<svg width="50" height="48" viewBox="0 0 50 48" fill="none" xmlns="http://www.w3.org/2000/svg">
<g filter="url(#filter0_d_14_310)">
<mask id="mask0_14_310" style="mask-type:alpha" maskUnits="userSpaceOnUse" x="2" y="0" width="48" height="48">
<rect x="2" width="48" height="48" fill="#D9D9D9"/>
</mask>
<g mask="url(#mask0_14_310)">
<path d="M30.25 31.6H33.85V25.7H39.7V22.1H33.85V16.25H30.25V22.1H24.35V25.7H30.25V31.6ZM13.65 40.8C10.15 39.4 7.33333 37.179 5.2 34.1371C3.06667 31.0952 2 27.7035 2 23.9621C2 20.2207 3.075 16.8333 5.225 13.8C7.375 10.7667 10.1833 8.55001 13.65 7.15001V12.5C11.55 13.6667 9.875 15.2619 8.625 17.2858C7.375 19.3097 6.75 21.527 6.75 23.9378C6.75 26.3952 7.375 28.6283 8.625 30.637C9.875 32.6457 11.55 34.25 13.65 35.45V40.8ZM32 41.95C29.5 41.95 27.1583 41.475 24.975 40.525C22.7917 39.575 20.8917 38.2917 19.275 36.675C17.6583 35.0583 16.375 33.1583 15.425 30.975C14.475 28.7917 14 26.45 14 23.95C14 21.45 14.475 19.1083 15.425 16.925C16.375 14.7417 17.6583 12.8417 19.275 11.225C20.8917 9.60835 22.7917 8.32501 24.975 7.37501C27.1583 6.42501 29.5 5.95001 32 5.95001C34.5 5.95001 36.8417 6.42501 39.025 7.37501C41.2083 8.32501 43.1083 9.60835 44.725 11.225C46.3417 12.8417 47.625 14.7417 48.575 16.925C49.525 19.1083 50 21.45 50 23.95C50 26.45 49.525 28.7917 48.575 30.975C47.625 33.1583 46.3417 35.0583 44.725 36.675C43.1083 38.2917 41.2083 39.575 39.025 40.525C36.8417 41.475 34.5 41.95 32 41.95ZM32.0118 37.2C35.6706 37.2 38.8 35.9123 41.4 33.3369C44 30.7615 45.3 27.6252 45.3 23.928C45.3 20.276 44.0004 17.15 41.4011 14.55C38.8019 11.95 35.6586 10.65 31.9711 10.65C28.329 10.65 25.215 11.9526 22.629 14.5578C20.043 17.163 18.75 20.2916 18.75 23.9436C18.75 27.6408 20.0456 30.7745 22.6368 33.3447C25.228 35.9149 28.353 37.2 32.0118 37.2Z" fill="#FF6853"/>
</g>
</g>
<defs>
<filter id="filter0_d_14_310" x="0" y="3.95001" width="50" height="38" filterUnits="userSpaceOnUse" color-interpolation-filters="sRGB">
<feFlood flood-opacity="0" result="BackgroundImageFix"/>
<feColorMatrix in="SourceAlpha" type="matrix" values="0 0 0 0 0 0 0 0 0 0 0 0 0 0 0 0 0 0 127 0" result="hardAlpha"/>
<feOffset dx="-2" dy="-2"/>
<feComposite in2="hardAlpha" operator="out"/>
<feColorMatrix type="matrix" values="0 0 0 0 1 0 0 0 0 1 0 0 0 0 1 0 0 0 1 0"/>
<feBlend mode="normal" in2="BackgroundImageFix" result="effect1_dropShadow_14_310"/>
<feBlend mode="normal" in="SourceGraphic" in2="effect1_dropShadow_14_310" result="shape"/>
</filter>
</defs>
</svg>
