<?xml version="1.0" encoding="utf-8"?>
<!-- Generator: Adobe Illustrator 25.4.1, SVG Export Plug-In . SVG Version: 6.00 Build 0)  -->
<svg version="1.1" id="Layer_1" xmlns="http://www.w3.org/2000/svg" xmlns:xlink="http://www.w3.org/1999/xlink" x="0px" y="0px"
	 viewBox="0 0 269 67" style="enable-background:new 0 0 269 67;" xml:space="preserve">
<style type="text/css">
	.st0{fill:#FFFFFF;}
	.st1{fill:#DBE3EB;}
</style>
<g>
	<path class="st0" d="M29.1,25.9c-0.6-0.3-1.3-0.6-2-0.9c-2.1-0.8-4.4-1.2-6.8-1.2c-4,0-7.5,0.9-10.5,2.7c-3,1.8-5.3,4.2-7,7.4
		c-1.6,3.2-2.5,6.8-2.5,10.9c0,4.1,0.8,7.7,2.5,10.9c1.7,3.1,4,5.6,7,7.4c3,1.8,6.5,2.7,10.5,2.7c2.4,0,4.7-0.5,6.8-1.4
		c0.9-0.4,1.6-0.8,2.4-1.3V65h15.7V4.9H29.1V25.9z M26.8,50.9c-1,0.5-2.2,0.8-3.5,0.8c-1.3,0-2.4-0.3-3.4-0.9s-1.9-1.4-2.5-2.5
		c-0.5-1-0.8-2.2-0.8-3.5s0.3-2.5,0.9-3.5c0.6-1,1.4-1.9,2.4-2.5c1-0.6,2.2-0.9,3.5-0.9c1.3,0,2.5,0.3,3.4,0.9
		c1,0.6,1.8,1.4,2.4,2.5c0.5,1,0.8,2.2,0.8,3.5c0,1.4-0.3,2.6-0.9,3.6C28.6,49.5,27.8,50.3,26.8,50.9z"/>
	<path class="st0" d="M79.7,26.3c-3.2-1.8-6.9-2.6-11.2-2.6c-4.3,0-8.1,0.9-11.5,2.8c-3.4,1.8-6.1,4.3-8,7.5
		c-1.9,3.2-2.9,6.8-2.9,10.9c0,4.2,1,7.8,3,11.1c2,3.2,4.8,5.7,8.4,7.5C61,65.1,65.1,66,69.8,66c3.7,0,6.9-0.6,9.8-1.7
		c2.8-1.1,5.3-2.9,7.3-5.2l-8-8c-1.2,1.4-2.5,2.4-4,3c-1.4,0.6-3.1,0.9-5,0.9c-2,0-3.6-0.4-4.9-1.1c-1.3-0.8-2.3-1.9-3-3.4
		c-0.1-0.2-0.2-0.5-0.3-0.7l27.7-0.2c0.3-1.2,0.4-2.2,0.5-3.1c0.1-0.9,0.2-1.8,0.2-2.6c0-3.9-0.9-7.4-2.8-10.5
		C85.4,30.3,82.9,28,79.7,26.3z M64.6,35.8c1.2-0.8,2.6-1.2,4.3-1.2c1.6,0,2.9,0.4,3.9,1.1c1,0.7,1.8,1.8,2.3,3.2
		c0.1,0.3,0.2,0.7,0.3,1L61.6,40c0.1-0.2,0.1-0.5,0.2-0.7C62.5,37.8,63.4,36.6,64.6,35.8z"/>
	<polygon class="st0" points="134,24.6 116.7,24.6 106.8,41.5 106.8,4.9 90.7,4.9 90.7,65 106.8,65 106.8,46.2 116.7,65 134.8,65 
		121.4,43.4 	"/>
	<path class="st0" d="M161.9,26.4c-3.4-1.9-7.4-2.8-11.8-2.8c-4.4,0-8.4,0.9-11.9,2.8c-3.4,1.8-6.2,4.3-8.1,7.5c-2,3.2-3,6.8-3,10.8
		c0,4,1,7.7,3,10.9c2,3.2,4.8,5.8,8.2,7.6c3.5,1.8,7.5,2.7,11.9,2.7c4.4,0,8.4-0.9,11.8-2.7c3.4-1.9,6.2-4.4,8.1-7.6
		c2-3.2,3-6.9,3-10.9c0-4-1-7.7-3-10.8C168,30.7,165.3,28.2,161.9,26.4z M155.9,48.6c-0.5,1-1.3,1.9-2.4,2.5c-1,0.5-2.2,0.8-3.5,0.8
		c-1.3,0-2.5-0.3-3.5-0.8c-1-0.6-1.8-1.4-2.4-2.5c-0.5-1.1-0.8-2.3-0.8-3.7c0-1.4,0.3-2.7,0.8-3.7c0.6-1.1,1.4-1.9,2.4-2.5
		c1-0.6,2.2-0.9,3.5-0.9c1.4,0,2.5,0.3,3.5,0.9c1,0.5,1.8,1.4,2.3,2.5c0.6,1,0.9,2.3,0.9,3.7C156.8,46.2,156.5,47.5,155.9,48.6z"/>
	<path class="st0" d="M204.9,24.5c-1.3-0.4-2.9-0.7-4.8-0.7c-4,0-7.4,1-10.2,3v-2.1h-16.1V65H190V43.2c0-1.8,0.4-3.2,1.2-4.1
		c0.8-1,2.1-1.5,3.7-1.5c1,0,1.5,0.1,2.5,0.5c1,0.4,1.5,0.9,1.5,0.9l10.3-12.5C208.5,25.7,206.3,24.9,204.9,24.5z"/>
</g>
<path class="st1" d="M268.2,44.8c-0.1-1.7-0.5-3.3-1.3-4.7c-0.7-1.4-1.6-2.6-2.9-3.7c-1.2-1.1-2.7-1.9-4.5-2.5
	c-0.4-0.1-0.8-0.2-1.2-0.3c0.7-0.2,1.3-0.5,1.9-0.7c2.3-1.1,4-2.5,5.3-4.4c1.3-1.9,1.9-3.9,1.9-6.3c0-1.8-0.4-3.4-1.2-4.8
	c-0.8-1.4-1.8-2.5-3-3.4c-1.2-0.9-2.5-1.7-3.8-2.2c-1.3-0.5-2.5-0.8-3.7-0.9c0,0-0.1,0-0.1,0s-0.1,0-0.2,0l5.8-7.7
	c0.1-0.1,0.1-0.1,0.1-0.2c0-0.1,0-0.2,0-0.4c0-0.3-0.1-0.5-0.3-0.7c-0.2-0.2-0.4-0.3-0.7-0.3h-9.3c-0.5,0-0.9,0.1-1.2,0.4
	c-0.3,0.2-0.5,0.4-0.6,0.6l-7.6,9.9c-0.3,0.4-0.7,1-1.2,1.7c-0.5,0.7-1,1.5-1.5,2.5c-0.5,0.9-0.9,1.9-1.3,2.9c-0.3,1-0.5,2-0.5,3
	c0,0.7,0.1,1.4,0.2,2h-9.8l0.3-0.2c2-1.4,3.8-2.7,5.2-4c1.5-1.3,2.7-2.7,3.5-4.2c0.8-1.5,1.3-3,1.3-4.7c0-2.2-0.6-4.1-1.7-5.6
	c-1.1-1.5-2.8-2.7-4.8-3.5c-2.1-0.8-4.5-1.3-7.3-1.3c-2,0-3.8,0.3-5.5,0.8c-1.7,0.5-3.2,1.3-4.4,2.3c-1.3,1-2.3,2.2-3,3.7
	c-0.7,1.4-1.1,3-1.1,4.7c0,0.3,0.1,0.5,0.3,0.7c0.2,0.2,0.5,0.3,0.7,0.3h8.7c0.4,0,0.8-0.1,1.1-0.2c0.3-0.2,0.6-0.4,0.7-0.9
	c0.1-0.2,0.2-0.6,0.4-0.9c0.2-0.4,0.4-0.7,0.7-1c0.3-0.3,0.8-0.5,1.4-0.5c0.8,0,1.3,0.2,1.4,0.6c0.2,0.4,0.2,0.8,0.2,1.3
	c0,0.9-0.6,1.9-1.7,3.1c-1.1,1.1-2.7,2.5-4.9,4.1c-2.2,1.6-4.9,3.6-8.1,5.9l-0.5,0.4c-0.6,0.4-0.9,0.9-1,1.4
	c-0.1,0.5-0.1,0.9-0.1,1.1v4.8c0,0.3,0.1,0.6,0.4,0.9c0.2,0.2,0.5,0.4,0.9,0.4h7.7c-1.7,0.6-3.2,1.4-4.4,2.4c-1.2,1-2.2,2.2-2.9,3.7
	c-0.7,1.4-1.1,3-1.2,4.7c-0.1,0.9-0.1,1.9-0.1,3.2c0,1.2,0,2.4,0,3.6c0,1.2,0.1,2.2,0.1,3.1c0.1,1.7,0.5,3.3,1.2,4.7
	c0.7,1.4,1.6,2.7,2.8,3.8c1.2,1.1,2.7,1.9,4.4,2.5c1.8,0.6,3.8,0.9,6.1,0.9c2.3,0,4.4-0.3,6.1-0.9c1.8-0.6,3.2-1.5,4.4-2.5
	c1.2-1.1,2.1-2.3,2.8-3.8c0.7-1.4,1.1-3,1.2-4.7c0.1,1.7,0.5,3.2,1.2,4.7c0.7,1.4,1.6,2.7,2.8,3.8c1.2,1.1,2.7,1.9,4.4,2.5
	c1.8,0.6,3.8,0.9,6.1,0.9c2.3,0,4.4-0.3,6.1-0.9c1.8-0.6,3.2-1.5,4.4-2.5c1.2-1.1,2.1-2.3,2.8-3.8c0.7-1.5,1.1-3,1.2-4.7
	c0.1-0.8,0.1-1.9,0.1-3.1c0-1.2,0-2.4,0-3.6C268.3,46.7,268.3,45.6,268.2,44.8z M249.8,20.8c0.3-0.5,0.7-0.8,1.2-1
	c0.5-0.2,1-0.4,1.6-0.4c0.6,0,1.2,0.1,1.6,0.4c0.5,0.2,0.9,0.6,1.2,1c0.3,0.4,0.4,1,0.4,1.6c0,0.6-0.2,1.2-0.5,1.7
	c-0.3,0.4-0.7,0.8-1.2,1c-0.5,0.2-1,0.3-1.6,0.3c-0.6,0-1.1-0.1-1.6-0.3c-0.5-0.2-0.8-0.6-1.2-1c-0.3-0.5-0.4-1-0.4-1.7
	C249.3,21.8,249.5,21.2,249.8,20.8z M227.2,51.4c0,1.1,0,2.1-0.1,3c0,0.9-0.2,1.6-0.6,2.2c-0.4,0.6-1,0.8-1.9,0.8
	c-0.9,0-1.5-0.3-1.9-0.8c-0.4-0.6-0.6-1.3-0.6-2.2c0-0.9-0.1-1.9-0.1-3c0-1.1,0-2.2,0-3.3c0-1.1,0.1-2.1,0.1-3
	c0.1-0.8,0.3-1.5,0.6-2.1c0.3-0.6,1-0.9,1.9-0.9c0.9,0,1.6,0.3,1.9,0.9c0.4,0.6,0.6,1.3,0.6,2.1c0.1,0.8,0.1,1.8,0.1,3
	C227.2,49.1,227.2,50.2,227.2,51.4z M243.3,36.4c-1.2,1-2.2,2.2-2.9,3.7c-0.7,1.4-1.1,3-1.2,4.6c-0.1-1.7-0.5-3.2-1.2-4.6
	c-0.7-1.4-1.6-2.6-2.9-3.7c-1.2-1-2.7-1.8-4.4-2.4h7c0.3,0,0.6-0.1,0.9-0.4s0.4-0.5,0.4-0.9v-4.7c0.2,0.3,0.4,0.6,0.6,0.9
	c1.4,1.8,3.2,3.2,5.5,4.1c0.9,0.4,1.9,0.7,2.9,0.9c0,0,0,0,0,0C246,34.5,244.5,35.4,243.3,36.4z M256.3,51.4c0,1.1,0,2.1-0.1,3
	c0,0.9-0.2,1.6-0.6,2.2c-0.4,0.6-1,0.8-1.9,0.8c-0.9,0-1.5-0.3-1.9-0.8c-0.4-0.6-0.6-1.3-0.6-2.2c0-0.9-0.1-1.9-0.1-3
	c0-1.1,0-2.2,0-3.3c0-1.1,0.1-2.1,0.1-3c0.1-0.8,0.3-1.5,0.6-2.1c0.3-0.6,1-0.9,1.9-0.9c0.9,0,1.6,0.3,1.9,0.9
	c0.4,0.6,0.6,1.3,0.6,2.1c0.1,0.8,0.1,1.8,0.1,3C256.3,49.1,256.3,50.2,256.3,51.4z"/>
</svg>
