<svg width="500" height="350" viewBox="0 0 500 350" fill="none" xmlns="http://www.w3.org/2000/svg">
<rect width="500" height="350" fill="white"/>
<g filter="url(#filter0_d_202_1818)">
<path d="M279.07 166.33H337.88V141.56H255.78V185.55H279.07V166.33Z" fill="white" stroke="#000F97" stroke-width="3" stroke-miterlimit="10"/>
<path d="M44.33 41H229.7V49.67H44.33C43.7605 49.67 43.1967 49.5577 42.6707 49.3394C42.1447 49.1212 41.6669 48.8014 41.2647 48.3982C40.8625 47.9951 40.5438 47.5166 40.3267 46.9901C40.1097 46.4636 39.9987 45.8995 40 45.33C40 44.1816 40.4562 43.0803 41.2682 42.2682C42.0803 41.4562 43.1816 41 44.33 41Z" fill="white" stroke="#000F97" stroke-width="3" stroke-miterlimit="10"/>
<path d="M229.69 49.6701H44.3301C43.7606 49.6701 43.1964 49.5578 42.6704 49.3395C42.1444 49.1213 41.6669 48.8015 41.2647 48.3983C40.8625 47.9952 40.5437 47.5167 40.3267 46.9902C40.1097 46.4637 39.9987 45.8995 40 45.3301V302.22C40 303.368 40.456 304.47 41.2681 305.282C42.0801 306.094 43.1817 306.55 44.3301 306.55H236.96V49.6701H229.69Z" fill="white" stroke="#000F97" stroke-width="3" stroke-miterlimit="10"/>
<path d="M310.88 152.29H267.77V156.95H310.88V152.29Z" fill="white" stroke="#000F97" stroke-width="3" stroke-miterlimit="10"/>
<path d="M297.39 161.22H267.77V165.88H297.39V161.22Z" fill="white" stroke="#000F97" stroke-width="3" stroke-miterlimit="10"/>
<path d="M279.11 170.15H267.77V174.81H279.11V170.15Z" fill="white" stroke="#000F97" stroke-width="3" stroke-miterlimit="10"/>
<path d="M168.71 207.58H108.25V214.12H168.71V207.58Z" fill="white" stroke="#000F97" stroke-width="3" stroke-miterlimit="10"/>
<path d="M159.25 220.11H117.71V226.65H159.25V220.11Z" fill="white" stroke="#000F97" stroke-width="3" stroke-miterlimit="10"/>
<path d="M163.55 232.63H113.41V239.17H163.55V232.63Z" fill="white" stroke="#000F97" stroke-width="3" stroke-miterlimit="10"/>
<path d="M361.18 166.33H279.07V210.32H361.18V166.33Z" fill="white" stroke="#000F97" stroke-width="3" stroke-miterlimit="10"/>
<path d="M137.04 114.14L124.85 126.74C124.615 126.98 124.323 127.158 124.001 127.256C123.68 127.353 123.339 127.369 123.01 127.3L104.78 123.49C104.429 123.417 104.066 123.44 103.727 123.555C103.389 123.67 103.087 123.875 102.854 124.146C102.621 124.418 102.465 124.747 102.403 125.1C102.341 125.452 102.374 125.815 102.5 126.15L110.74 148.32C110.883 148.703 111.14 149.033 111.476 149.265C111.812 149.497 112.211 149.621 112.62 149.62H164.34C164.747 149.619 165.144 149.494 165.478 149.262C165.812 149.03 166.067 148.701 166.21 148.32L174.46 126.15C174.585 125.815 174.619 125.452 174.556 125.1C174.494 124.747 174.338 124.418 174.105 124.146C173.872 123.875 173.571 123.67 173.232 123.555C172.893 123.44 172.53 123.417 172.179 123.49L153.949 127.27C153.619 127.34 153.276 127.326 152.952 127.228C152.629 127.13 152.336 126.952 152.1 126.71L139.92 114.11C139.731 113.918 139.506 113.767 139.257 113.664C139.009 113.561 138.742 113.51 138.473 113.513C138.205 113.516 137.939 113.573 137.693 113.68C137.446 113.788 137.224 113.944 137.04 114.14Z" fill="#FF6853"/>
<path d="M320.27 41.6201H257.58C256.52 41.6201 255.66 42.4797 255.66 43.5401V124.06C255.66 125.12 256.52 125.98 257.58 125.98H320.27C321.33 125.98 322.19 125.12 322.19 124.06V43.5401C322.19 42.4797 321.33 41.6201 320.27 41.6201Z" fill="white" stroke="#000F97" stroke-width="3" stroke-miterlimit="10"/>
<path d="M322.19 54.3901V62.1001H330.46C332.447 62.0988 334.415 62.4893 336.251 63.2492C338.088 64.009 339.756 65.1235 341.161 66.5287C342.566 67.9339 343.681 69.6023 344.441 71.4386C345.201 73.2748 345.591 75.2429 345.59 77.2301V90.3801C345.585 94.3894 343.988 98.2326 341.151 101.066C338.315 103.899 334.469 105.49 330.46 105.49H322.19V113.2H330.19C336.227 113.211 342.022 110.825 346.302 106.568C350.583 102.31 352.999 96.5275 353.02 90.4901V77.1701C353.02 71.1285 350.62 65.3343 346.348 61.0622C342.076 56.7902 336.281 54.3901 330.24 54.3901H322.19Z" fill="white" stroke="#000F97" stroke-width="3" stroke-miterlimit="10"/>
<path d="M287.49 75.5799L282.14 81.1099C281.905 81.3538 281.612 81.534 281.288 81.6337C280.965 81.7334 280.621 81.7493 280.29 81.6799L272.92 80.1499C272.569 80.0771 272.206 80.0996 271.867 80.215C271.528 80.3305 271.227 80.5347 270.994 80.8065C270.761 81.0782 270.606 81.4074 270.543 81.7598C270.481 82.1122 270.514 82.4748 270.64 82.8099L274.14 92.2099C274.28 92.593 274.535 92.9238 274.87 93.158C275.204 93.3922 275.602 93.5185 276.01 93.5199H301.88C302.288 93.5185 302.686 93.3922 303.02 93.158C303.354 92.9238 303.609 92.593 303.75 92.2099L307.25 82.8099C307.375 82.4748 307.409 82.1122 307.347 81.7598C307.284 81.4074 307.128 81.0782 306.895 80.8065C306.663 80.5347 306.361 80.3305 306.022 80.215C305.684 80.0996 305.32 80.0771 304.97 80.1499L297.6 81.6799C297.269 81.7493 296.925 81.7334 296.601 81.6337C296.278 81.534 295.985 81.3538 295.75 81.1099L290.4 75.5799C290.213 75.3817 289.987 75.2237 289.737 75.1158C289.487 75.0078 289.217 74.9521 288.945 74.9521C288.672 74.9521 288.402 75.0078 288.152 75.1158C287.902 75.2237 287.677 75.3817 287.49 75.5799Z" fill="#FF6853"/>
<path d="M318.68 181L314.02 185.81C313.786 186.052 313.495 186.232 313.173 186.331C312.851 186.431 312.51 186.448 312.18 186.38L305.9 185.08C305.551 185.008 305.189 185.031 304.851 185.146C304.514 185.261 304.213 185.464 303.981 185.735C303.748 186.005 303.592 186.332 303.529 186.683C303.466 187.034 303.497 187.395 303.62 187.73L306.62 195.85C306.763 196.233 307.02 196.563 307.356 196.795C307.692 197.027 308.092 197.151 308.5 197.15H331.7C332.107 197.149 332.504 197.025 332.838 196.792C333.172 196.56 333.428 196.231 333.57 195.85L336.57 187.73C336.693 187.395 336.725 187.034 336.661 186.683C336.598 186.332 336.442 186.005 336.209 185.735C335.977 185.464 335.676 185.261 335.339 185.146C335.001 185.031 334.639 185.008 334.29 185.08L328.02 186.38C327.689 186.449 327.345 186.433 327.022 186.334C326.698 186.234 326.405 186.054 326.17 185.81L321.52 181C321.334 180.813 321.113 180.664 320.869 180.562C320.626 180.461 320.364 180.408 320.1 180.408C319.836 180.408 319.574 180.461 319.331 180.562C319.087 180.664 318.866 180.813 318.68 181Z" fill="#FF6853"/>
<path d="M438.14 219.65H254.14V307.07H438.14V219.65Z" fill="white" stroke="#000F97" stroke-width="3" stroke-miterlimit="10"/>
<path d="M427.88 244.95L352.93 277.54C350.783 278.47 348.469 278.95 346.13 278.95C343.791 278.95 341.476 278.47 339.33 277.54L264.38 244.95C261.333 243.625 258.74 241.439 256.919 238.66C255.098 235.882 254.129 232.632 254.13 229.31V219.65H438.13V229.31C438.131 232.632 437.161 235.882 435.34 238.66C433.519 241.439 430.926 243.625 427.88 244.95Z" fill="white" stroke="#000F97" stroke-width="3" stroke-miterlimit="10"/>
<path d="M360.36 246.05L354.08 247.35C353.75 247.418 353.408 247.401 353.087 247.301C352.765 247.201 352.473 247.022 352.24 246.78L347.58 241.97C347.393 241.776 347.17 241.622 346.922 241.517C346.675 241.412 346.408 241.358 346.139 241.358C345.871 241.358 345.605 241.412 345.357 241.517C345.11 241.622 344.886 241.776 344.699 241.97L340.05 246.78C339.815 247.024 339.522 247.204 339.198 247.304C338.874 247.403 338.531 247.419 338.199 247.35L331.929 246.05C331.579 245.977 331.216 246 330.877 246.115C330.539 246.231 330.237 246.435 330.004 246.706C329.771 246.978 329.615 247.307 329.553 247.66C329.491 248.012 329.524 248.375 329.65 248.71L332.65 256.82C332.792 257.201 333.047 257.53 333.382 257.762C333.716 257.994 334.113 258.119 334.52 258.12H357.72C358.128 258.121 358.527 257.997 358.864 257.765C359.2 257.533 359.457 257.203 359.6 256.82L362.6 248.71C362.722 248.379 362.755 248.021 362.694 247.672C362.633 247.324 362.481 246.999 362.254 246.728C362.026 246.458 361.731 246.253 361.398 246.134C361.066 246.015 360.707 245.986 360.36 246.05Z" fill="#FF6853"/>
</g>
<path d="M364.506 133.443C364.225 133.372 363.938 133.326 363.648 133.304C362.854 133.073 362.176 132.552 361.748 131.844C361.424 131.404 360.984 130.871 360.381 131.01C360.007 131.14 359.683 131.383 359.454 131.705C359.061 132.13 358.704 132.587 358.388 133.072C358.241 133.27 358.124 133.489 358.041 133.721C357.952 134.129 358.009 134.555 358.203 134.925C358.67 135.762 359.319 136.482 360.103 137.033C361.217 137.962 362.394 138.814 363.625 139.581C363.774 139.689 363.944 139.764 364.124 139.8C364.304 139.836 364.49 139.832 364.668 139.79C364.979 139.639 365.243 139.407 365.433 139.118C366.174 138.192 367.31 137.242 366.87 136.107C366.381 134.993 365.554 134.061 364.506 133.443Z" fill="#FFA0A0"/>
<path d="M423.782 119.729C421.504 119.492 419.213 120.022 417.27 121.235C411.454 124.362 407.26 129.898 401.884 133.813C396.776 137.471 394.778 140.761 388.5 141C382.222 141.239 371.939 138.416 366.568 135.157C365.181 136.474 364.286 139.257 363.5 141C367.5 145 370.5 146.5 373 148C375.5 149.5 383.357 152.024 387.98 152.902C396.116 154.447 402.43 152.409 408.836 149.056C415.347 145.906 422.322 143.404 428.115 139.026C432.565 135.713 430.294 120.864 423.782 119.729Z" fill="#000F97"/>
<path d="M425.861 84.0395C423.839 84.488 421.007 85.7691 421.108 88.1393C421.108 88.9507 421.512 89.7194 421.533 90.5308C421.533 92.4526 419.611 93.7979 417.892 94.8015C417.453 95.0026 417.07 95.3187 416.779 95.7197C416.715 95.8157 416.669 95.9244 416.645 96.0394C416.622 96.1544 416.62 96.2732 416.641 96.3888C416.662 96.5044 416.704 96.6144 416.766 96.7122C416.828 96.81 416.908 96.8937 417.002 96.9582C417.386 97.1717 417.912 96.9582 418.276 97.2571C418.467 97.4276 418.588 97.6692 418.615 97.9318C418.641 98.1943 418.57 98.4574 418.418 98.6664C417.86 99.5231 417.109 100.22 416.233 100.695C415.387 101.199 414.688 101.938 414.21 102.83C414.097 103.047 414.028 103.286 414.007 103.532C413.986 103.779 414.013 104.027 414.087 104.261C414.161 104.496 414.281 104.712 414.437 104.896C414.594 105.079 414.786 105.227 414.999 105.329C415.242 105.389 415.474 105.49 415.687 105.628C416.051 105.948 415.869 106.546 415.545 106.909C415.222 107.272 414.817 107.635 414.756 108.104C414.696 108.574 415.343 109.364 416.051 109.428C416.76 109.416 417.455 109.218 418.074 108.852C418.539 109.3 418.074 110.154 418.478 110.667C418.771 110.948 419.155 111.101 419.55 111.094L422.18 111.372C422.603 111.388 423.021 111.482 423.414 111.649C424.081 112.012 424.425 112.738 424.911 113.293C425.396 113.848 426.327 114.276 426.934 113.784C427.54 113.293 427.035 112.033 426.549 111.222C425.577 109.034 425.363 106.556 425.942 104.218C426.256 99.4959 427.547 94.9037 429.725 90.7658C430.453 89.5486 431.404 88.1179 430.817 86.8581C430.371 85.9029 429.654 85.1183 428.766 84.6131C427.878 84.108 426.863 83.9075 425.861 84.0395Z" fill="black"/>
<path d="M452.146 102.911C452.702 102.239 452.285 101.127 451.613 100.594C450.941 100.061 450.083 99.7369 449.458 99.1114C448.895 98.2827 448.523 97.3403 448.367 96.3513C448.211 95.3623 448.275 94.3511 448.554 93.3895C448.841 91.8585 448.841 90.2875 448.554 88.7565C448.392 88.0042 448.056 87.3003 447.573 86.701C447.09 86.1017 446.474 85.6235 445.773 85.3048C444.838 85.0485 443.869 84.9313 442.9 84.9573C441.463 84.9573 437.361 82.8261 437.639 85.7913C437.871 88.1078 441.185 89.7989 442.135 91.8143C442.913 94.3468 443.009 97.0397 442.413 99.6211C442.376 102.636 442.152 105.645 441.741 108.632C441.082 111.061 440.116 113.397 438.868 115.582L437.871 117.505C438.311 117.585 438.763 117.573 439.198 117.469C439.632 117.366 440.041 117.173 440.397 116.903C440.608 116.684 440.794 116.443 440.953 116.184C441.287 115.793 441.651 115.429 442.042 115.096C443.256 113.89 444.719 112.965 446.329 112.385C446.932 112.2 447.72 112.015 447.836 111.366C447.87 111.074 447.87 110.778 447.836 110.486C447.836 109.351 449.156 108.748 450.153 108.702C450.509 108.747 450.87 108.665 451.172 108.47C451.798 107.961 451.404 106.965 450.918 106.339C450.431 105.714 449.852 104.926 450.222 104.208C450.593 103.49 451.613 103.536 452.146 102.911Z" fill="black"/>
<path d="M424.501 89.6135C422.369 92.8704 421.36 96.7342 421.627 100.617C421.657 103.647 421.991 106.666 422.623 109.628C423.104 112.628 424.394 115.439 426.354 117.76C427.417 118.928 428.784 119.779 430.302 120.217C431.82 120.654 433.429 120.662 434.951 120.238C438.358 119.01 439.957 115.397 441.069 112.13C442.964 107.497 443.688 102.469 443.178 97.4897C442.687 95.2871 441.759 93.2051 440.45 91.3669C439.14 89.5287 437.476 87.9715 435.554 86.7873C431.962 84.1927 426.91 86.3935 424.501 89.6135Z" fill="#FFA0A0"/>
<path d="M445.416 88.8502C444.152 87.6439 442.269 87.3312 440.79 86.393C439.312 85.4548 438.692 84.3603 437.476 83.5114C435.659 82.3711 433.479 81.8506 431.3 82.0371C429.582 82.0412 427.895 82.4729 426.413 83.288C425.746 83.6829 425.174 84.202 424.731 84.813C424.288 85.424 423.984 86.1139 423.837 86.8398C423.162 86.9836 422.567 87.3537 422.163 87.8803C421.759 88.407 421.574 89.0538 421.644 89.6991C421.631 90.3467 421.858 90.9784 422.288 91.4861C421.819 91.8326 421.387 92.2217 421 92.6477L421.215 96.0877C421.215 97.0483 421.215 98.0089 421.048 98.9471C421.429 99.3715 422.192 99.0811 422.478 98.5897C422.764 98.0982 422.764 97.4951 423.003 96.9813C423.241 96.4675 423.933 96.0654 424.386 96.4005C424.485 97.3118 424.838 98.1825 425.411 98.9247C425.696 99.2466 426.1 99.4554 426.542 99.5093C426.985 99.5632 427.432 99.4581 427.795 99.2151C428.344 98.7014 428.296 97.8525 428.392 97.1153C428.487 96.3782 428.94 95.507 429.703 95.5516C430.035 95.6021 430.347 95.733 430.609 95.9314C431.013 96.2078 431.473 96.4037 431.961 96.5075C432.449 96.6112 432.955 96.6204 433.446 96.5345C433.691 96.4701 433.919 96.3612 434.118 96.2141C434.318 96.0669 434.484 95.8843 434.608 95.6769C434.732 95.4694 434.811 95.2411 434.841 95.005C434.871 94.7688 434.851 94.5295 434.782 94.3007C435.592 94.189 436.117 95.1049 436.784 95.574C437.655 96.05 438.682 96.209 439.67 96.0207C440.304 95.9817 440.93 95.8615 441.529 95.6634C442.291 98.9305 442.102 96.2084 441.529 99.5093L442.292 103.526C442.602 103.526 442.841 103.817 442.912 104.129C443.437 106.185 443.448 107.101 444.402 109C444.569 106.118 444.176 105.023 445.535 102.387C446.546 99.9086 447.017 97.2653 446.918 94.6135C447.22 92.5833 446.682 90.5217 445.416 88.8502Z" fill="black"/>
<path d="M450.871 303.114C450.686 302.605 450.5 302.072 450.292 301.562H450.663V284.806C450.663 278.366 450.361 272.158 449.805 265.787C448.183 246.907 453.606 226.29 452.122 207.062C451.876 202.567 451.28 198.098 450.338 193.696C448.971 188.021 445.704 188.785 440.721 187.789C433.098 186.237 417.549 185.889 410.041 188.09C410.041 224.784 416.992 265.694 420.121 302.134H420.793C418.976 303.751 416.91 305.065 414.675 306.026C414.104 306.223 413.576 306.53 413.123 306.929C412.911 307.164 412.751 307.439 412.65 307.738C412.549 308.037 412.511 308.354 412.537 308.668C412.563 308.983 412.653 309.289 412.801 309.567C412.95 309.846 413.154 310.091 413.401 310.288C413.918 310.548 414.483 310.698 415.061 310.73C415.639 310.762 416.218 310.675 416.761 310.473L426.401 308.273C427.004 308.196 427.57 307.938 428.023 307.531C428.447 306.906 428.635 306.151 428.556 305.4V302.134H428.857C431.174 282.327 430.572 263.563 431.174 243.733C432.24 253 434.279 258.258 436.434 269.771C437.431 275.076 438.589 280.289 439.424 285.663C439.841 288.396 440.304 291.13 440.814 293.84C441.463 296.193 441.859 300.608 441.996 303.045H442.483C441.378 305.291 439.923 307.348 438.172 309.137C437.713 309.541 437.336 310.028 437.06 310.574C436.955 310.865 436.909 311.175 436.926 311.485C436.943 311.795 437.021 312.098 437.158 312.377C437.294 312.655 437.484 312.904 437.718 313.108C437.953 313.311 438.225 313.466 438.52 313.562C439.101 313.611 439.686 313.537 440.237 313.345C440.788 313.154 441.292 312.849 441.718 312.45L449.852 306.682C450.385 306.369 450.819 305.911 451.103 305.361C451.304 304.609 451.221 303.81 450.871 303.114Z" fill="black"/>
<path d="M424.871 119.937C424.034 119.226 422.999 118.789 421.905 118.686C421.452 118.72 421.012 118.849 420.613 119.064C420.213 119.28 419.864 119.577 419.588 119.937C418.671 121.232 418.046 122.71 417.757 124.269C415.068 134.901 413.361 145.757 412.659 156.701C412.497 159.272 408.511 167.311 409.044 169.836C409.901 173.982 407.352 185.241 407.723 189.457C407.909 191.773 407.723 194.322 409.368 195.688C410.227 196.246 411.219 196.565 412.242 196.615C415.81 197.125 430.479 196.615 434.071 197.194C436.666 197.565 447.65 198.329 449.99 197.194C452.887 195.665 454.254 192.237 455.228 189.04C458.889 176.924 449.782 151.72 451.01 139.095C451.566 133.373 452.632 120.354 444.522 119.636C441.579 119.358 438.589 121.003 435.786 121.605C432.069 122.491 428.153 121.893 424.871 119.937Z" fill="#000F97"/>
<path d="M362.073 132.076C362.588 132.459 363.048 132.911 363.44 133.42C363.819 133.941 363.993 134.585 363.927 135.227C363.809 135.739 363.571 136.215 363.231 136.617C363.011 136.971 362.698 137.26 362.327 137.451C361.956 137.643 361.54 137.731 361.123 137.705C360.866 137.639 360.623 137.529 360.404 137.381C359.842 137.029 359.307 136.634 358.805 136.2C358.476 135.942 358.213 135.608 358.041 135.227C357.981 134.876 357.998 134.516 358.09 134.172C358.182 133.829 358.347 133.509 358.574 133.234C359.01 132.483 359.612 131.841 360.335 131.358C360.96 131.057 361.632 131.682 362.073 132.076Z" fill="#FFA0A0"/>
<path d="M427.397 128.81C427.346 132.147 427.052 135.476 426.516 138.771C426.099 142.269 425.891 145.721 425.682 149.357L425.126 159.504C424.454 171.272 423.782 183.063 423.504 194.855C423.456 195.295 423.545 195.74 423.759 196.129C423.953 196.331 424.188 196.491 424.447 196.598C424.706 196.706 424.985 196.759 425.265 196.754L431.985 197.565C432.267 197.634 432.561 197.634 432.843 197.565C433.584 197.287 433.607 196.268 433.515 195.48C431.218 176.452 430.621 157.257 431.73 138.122C431.737 135.201 432.271 132.306 433.306 129.574C434.627 126.539 437.199 123.899 437.338 120.586C437.338 121.258 433.098 121.559 432.541 121.559C430.664 121.559 428.88 120.401 427.165 120.377C424.848 120.377 425.775 121.42 426.401 123.18C427.03 124.992 427.366 126.892 427.397 128.81Z" fill="#DBE3EB"/>
<path d="M450.408 121.883C455.042 126.122 457.054 133.35 458 138C458.946 142.65 459.5 145 459.5 150C459.5 152.5 459.196 157.489 458.5 159.5C457.179 162.21 453.304 164.514 450.408 165C446.098 165.741 446.631 166.268 442.228 167.01C434.72 168.284 439.123 167.589 427.142 169.72L420.19 171.249C419.356 171.411 416.158 172.778 415.788 171.99C414.902 170.199 414.285 168.286 413.957 166.315C413.772 165.11 420.075 163.998 421.187 163.488C422.299 162.979 428.066 160.867 428.969 160.635C433 159.602 433 159.5 439 157.5C439.78 157.24 442.555 155.853 443.5 154.5C445.945 151 446.43 150.306 445.862 147.134C445.319 144.098 445 143 444.055 139.447C443.11 135.893 442.7 134.155 441.718 131.914C440.634 129.824 440.153 127.474 440.328 125.126C440.528 124.061 441.013 123.07 441.73 122.257C442.447 121.444 443.371 120.839 444.403 120.507C445.435 120.175 446.538 120.128 447.594 120.37C448.651 120.612 449.623 121.135 450.408 121.883Z" fill="#000F97"/>
<path d="M409.647 169.766C409.6 170.563 409.752 171.359 410.087 172.083C410.322 172.486 410.661 172.819 411.069 173.047C411.476 173.275 411.937 173.39 412.404 173.38C412.819 173.33 413.225 173.22 413.609 173.056C414.706 172.796 415.669 172.145 416.32 171.226C416.473 170.859 416.552 170.465 416.552 170.068C416.552 169.67 416.473 169.276 416.32 168.909C415.88 167.241 415 165.481 412.59 165.851C412.128 165.888 411.679 166.022 411.273 166.245C410.867 166.468 410.513 166.775 410.235 167.145C409.957 167.516 409.76 167.941 409.659 168.393C409.557 168.845 409.553 169.313 409.647 169.766Z" fill="#FFA0A0"/>
<path d="M430.688 110.416C431.732 111.088 432.945 111.449 434.187 111.459C437.338 111.459 436.017 110.671 434.187 109.953C433.056 109.536 431.868 109.294 430.664 109.235C429.789 109.334 428.935 109.576 428.139 109.953C426.841 110.486 425.821 111.389 427.026 111.436C428.292 111.285 429.527 110.941 430.688 110.416Z" fill="black"/>
<defs>
<filter id="filter0_d_202_1818" x="38.5" y="39.5" width="405.14" height="273.07" filterUnits="userSpaceOnUse" color-interpolation-filters="sRGB">
<feFlood flood-opacity="0" result="BackgroundImageFix"/>
<feColorMatrix in="SourceAlpha" type="matrix" values="0 0 0 0 0 0 0 0 0 0 0 0 0 0 0 0 0 0 127 0" result="hardAlpha"/>
<feOffset dx="4" dy="4"/>
<feComposite in2="hardAlpha" operator="out"/>
<feColorMatrix type="matrix" values="0 0 0 0 1 0 0 0 0 0.407843 0 0 0 0 0.32549 0 0 0 1 0"/>
<feBlend mode="normal" in2="BackgroundImageFix" result="effect1_dropShadow_202_1818"/>
<feBlend mode="normal" in="SourceGraphic" in2="effect1_dropShadow_202_1818" result="shape"/>
</filter>
</defs>
</svg>
