<svg width="500" height="350" viewBox="0 0 500 350" fill="none" xmlns="http://www.w3.org/2000/svg">
<rect width="500" height="350" fill="white"/>
<path d="M373.24 144.023C373.081 144.069 372.913 144.069 372.754 144.023C371.054 143.829 369.396 143.368 367.841 142.656C367.44 142.48 367.072 142.237 366.752 141.938C366.222 141.287 365.957 140.459 366.01 139.621C365.983 139.4 366.009 139.176 366.086 138.966C366.162 138.757 366.287 138.569 366.451 138.417C366.659 138.286 366.899 138.214 367.146 138.208C367.711 138.092 368.295 138.092 368.861 138.208C369.255 138.368 369.657 138.507 370.066 138.625C370.483 138.625 371.016 138.509 371.085 138.093C371.395 138.069 371.707 138.108 372.001 138.208C372.296 138.307 372.568 138.465 372.8 138.672C373.565 139.251 374.955 139.969 374.862 141.104C374.791 141.58 374.626 142.037 374.376 142.448C374.051 142.865 373.75 143.814 373.24 144.023Z" fill="#FFA0A0"/>
<path d="M395.139 159.845C395.636 160.058 396.173 160.161 396.714 160.146C397.142 160.055 397.547 159.878 397.905 159.628C398.263 159.377 398.568 159.057 398.8 158.687C400.057 156.955 400.604 154.808 400.329 152.687C400.281 152.105 400.082 151.546 399.75 151.065C399.34 150.601 398.823 150.243 398.244 150.023C394.064 147.96 389.734 146.218 385.29 144.81C381.994 143.914 378.772 142.768 375.65 141.382C374.932 141.034 373.333 144.648 373.518 145.25C374.223 146.245 375.066 147.134 376.021 147.891C377.828 149.698 380.656 150.44 382.463 152.107C386.166 155.457 390.466 158.082 395.139 159.845Z" fill="#2AD8E3"/>
<path d="M401.975 127.205C400.82 129.761 399.912 132.422 399.263 135.151C397.88 138.475 396.189 141.662 394.212 144.672C392.223 147.686 391.02 151.151 390.713 154.749C390.644 155.509 390.797 156.274 391.153 156.949C391.624 157.573 392.246 158.067 392.96 158.386L395.44 159.66C395.778 159.881 396.16 160.027 396.56 160.087C396.96 160.147 397.369 160.12 397.757 160.007C398.095 159.796 398.38 159.511 398.591 159.173C400.285 156.275 401.572 153.157 402.415 149.907C404.269 144.579 407.049 139.598 409.367 134.456C410.919 131.004 414.326 124.425 407.999 123.568C406.754 123.542 405.526 123.87 404.46 124.514C403.393 125.157 402.531 126.091 401.975 127.205Z" fill="#2AD8E3"/>
<path d="M420.467 237.241C420.63 240.059 421.041 242.857 421.695 245.604C422.251 247.735 422.089 249.171 422.784 251.256C423.812 254.623 424.633 258.05 425.24 261.518C426.785 269.611 428.392 277.696 430.06 285.773C430.122 286.635 430.473 287.451 431.057 288.089C431.68 288.481 432.387 288.72 433.12 288.784C433.854 288.848 434.592 288.737 435.274 288.46C436.386 288.066 437.591 287.556 437.962 286.444C438.113 285.859 438.113 285.246 437.962 284.661C436.966 277.711 437.707 271.248 436.711 264.414C435.829 259.388 435.371 254.297 435.344 249.194C435.344 246.553 435.645 243.913 435.923 241.295C437.522 225.959 438.032 210.601 439.631 195.265C439.788 194.478 439.673 193.662 439.306 192.948C438.845 192.415 438.216 192.055 437.522 191.929C432.698 190.499 427.581 190.371 422.691 191.558C420.582 192.068 418.613 192.323 417.918 194.454C417.548 197.059 417.548 199.703 417.918 202.307C418.358 213.936 419.401 225.589 420.467 237.241Z" fill="#FF6853"/>
<path d="M398.638 234.716C397.267 219.196 396.88 203.606 397.479 188.037C397.413 186.703 397.788 185.385 398.545 184.285C399.934 183.01 401.758 182.314 403.643 182.339C407.188 181.722 410.808 181.66 414.372 182.153C416.11 182.382 417.767 183.023 419.206 184.022C420.645 185.021 421.824 186.351 422.645 187.898C423.359 189.983 423.535 192.214 423.155 194.385C422.717 198.434 421.942 202.441 420.837 206.361C419.748 210.438 418.288 214.423 417.315 218.523C416.173 223.635 415.399 228.822 414.998 234.044L410.549 282.298C410.526 284.256 410.34 286.208 409.992 288.135C409.529 289.85 408.278 290.452 406.192 290.452C403.272 290.452 402.206 288.529 401.882 286.097C400.77 278.221 400.793 270.02 400.26 262.074C399.796 252.947 399.256 243.828 398.638 234.716Z" fill="#FF6853"/>
<path d="M423.456 94.5875C426.093 97.0515 427.954 100.232 428.809 103.738C430.033 107.533 429.86 111.641 428.322 115.321C427.501 117.106 426.146 118.592 424.445 119.576C422.743 120.559 420.778 120.991 418.821 120.811C416.239 120.275 413.936 118.827 412.333 116.734C410.219 114.12 408.799 111.015 408.204 107.707C407.608 104.399 407.857 100.994 408.926 97.8075C409.784 95.2362 411.244 92.0856 413.932 91.4138C415.652 91.2611 417.386 91.464 419.024 92.01C420.663 92.556 422.171 93.4334 423.456 94.5875Z" fill="#FFA0A0"/>
<path d="M407.837 103.576C408.829 103.497 409.782 103.153 410.595 102.58C413.666 100.894 417.033 99.8161 420.513 99.406C421.527 99.2303 422.568 99.3019 423.548 99.6145C424.109 99.858 424.608 100.224 425.009 100.684C425.41 101.145 425.702 101.69 425.866 102.279C426.151 103.405 426.253 104.571 426.167 105.73C426.491 105.962 426.885 105.545 427.279 105.452C427.673 105.36 428.415 106.309 428.114 106.981C427.812 107.653 427.187 108.232 427.279 108.927C427.374 109.322 427.565 109.688 427.835 109.993C428.566 111.03 429.028 112.231 429.179 113.491C429.159 113.69 429.217 113.89 429.342 114.047C429.475 114.136 429.625 114.199 429.782 114.232C430.376 114.316 430.981 114.259 431.548 114.065C432.116 113.872 432.63 113.548 433.049 113.12C433.809 112.275 434.35 111.257 434.625 110.155C435.609 105.564 435.521 100.808 434.37 96.2555C434.216 95.0237 433.88 93.8215 433.374 92.688C432.737 91.5084 431.898 90.4499 430.894 89.5606C429.615 88.3013 428.173 87.2184 426.607 86.3407C423.432 84.7878 419.867 84.2152 416.365 84.6959C415.104 84.8431 413.866 85.1465 412.68 85.5994C410.806 86.472 409.128 87.7169 407.75 89.2581C406.371 90.7993 405.321 92.6046 404.663 94.5644C403.921 97.0431 403.991 103.529 407.837 103.576Z" fill="#000F97"/>
<path d="M417.662 82.7502C417.624 81.7428 417.831 80.7412 418.265 79.8313C418.725 79.036 419.358 78.3549 420.119 77.839C421.817 76.6695 423.825 76.0299 425.887 76.001C427.95 75.9722 429.974 76.5554 431.705 77.6769C432.948 78.4222 433.934 79.5292 434.53 80.8499C435.127 82.1705 435.305 83.6418 435.042 85.0667C434.594 86.4056 433.739 87.5715 432.597 88.4019C431.455 89.2324 430.082 89.6861 428.67 89.6998C424.869 89.7693 417.686 87.3138 417.662 82.7502Z" fill="#000F97"/>
<path d="M412.008 122.664C410.664 122.178 408.857 121.714 408.092 122.896C407.881 123.308 407.747 123.756 407.698 124.216C406.905 127.468 405.755 130.623 404.269 133.622C402.762 137.444 401.604 156.301 400.793 160.331C398.035 174.37 395.347 174.532 393.354 191.026C393.18 191.921 393.18 192.841 393.354 193.736C393.771 194.905 394.53 195.922 395.532 196.655C400.885 201.288 407.791 200.894 414.835 201.45C421.88 202.006 426.422 200.338 433.374 198.925C436.062 198.392 441.878 197.025 442.944 194.477C443.374 193.002 443.374 191.435 442.944 189.96C441.647 183.01 440.326 180.81 438.588 174.022C437.105 168.3 437.777 161.212 436.479 155.49C434.602 147.15 435.529 138.718 435.112 130.17C435.042 126.44 434.834 121.807 430.269 121.807C425.31 122.062 416.944 124.448 412.008 122.664Z" fill="#2AD8E3"/>
<path d="M432.076 293.348C431.361 295.328 430.509 297.255 429.527 299.116C429.354 299.475 429.255 299.865 429.235 300.263C429.215 300.661 429.275 301.059 429.411 301.433C429.898 302.406 431.172 302.638 432.238 302.777L434.556 303.031C435.617 303.282 436.733 303.151 437.707 302.661C438.069 302.387 438.369 302.038 438.584 301.638C438.8 301.239 438.928 300.797 438.958 300.344C439.013 299.441 438.927 298.534 438.704 297.657C438.101 294.391 437.499 291.147 436.873 287.881C435.807 288.09 433.281 288.09 432.516 288.97C431.752 289.85 432.308 292.236 432.076 293.348Z" fill="#000F97"/>
<path d="M405.891 289.921C405.635 289.925 405.383 289.98 405.149 290.083C404.361 290.5 404.593 291.658 404.454 292.539C404.28 293.205 403.93 293.812 403.441 294.297C402.952 294.782 402.341 295.127 401.673 295.295C400.376 295.735 398.985 295.805 397.664 296.222C396.995 296.385 396.379 296.718 395.875 297.189C395.372 297.66 394.998 298.252 394.791 298.909C394.791 299.233 394.791 299.627 395.046 299.789C395.198 299.885 395.378 299.926 395.556 299.905C400.199 299.959 404.841 299.742 409.459 299.257C409.703 299.266 409.945 299.226 410.173 299.138C410.4 299.051 410.607 298.917 410.78 298.747C410.949 298.514 411.06 298.244 411.105 297.959C411.452 296.013 411.985 292.052 410.734 290.292C409.761 289.017 407.235 289.828 405.891 289.921Z" fill="#000F97"/>
<path d="M437.36 124.355C439.028 125.786 440.218 127.694 440.766 129.822C442.63 135.577 444.101 141.451 445.169 147.405L446.907 155.976C447.01 156.434 447.01 156.909 446.907 157.366C446.813 157.725 446.638 158.057 446.397 158.339C443.838 161.567 440.788 164.373 437.36 166.655L424.522 176.153C423.757 176.709 422.807 177.335 421.903 177.01C421.582 176.875 421.291 176.678 421.046 176.431C420.07 175.576 419.213 174.594 418.497 173.512C418.34 173.323 418.25 173.087 418.242 172.841C418.264 172.674 418.321 172.513 418.408 172.37C418.496 172.226 418.613 172.102 418.752 172.007C423.386 167.767 427.65 163.366 431.821 158.756C433.084 157.558 434.052 156.083 434.648 154.447C434.856 153.559 434.95 152.649 434.926 151.737C434.549 144.448 433.368 137.223 431.404 130.193C431.01 128.386 430.222 125.768 431.868 124.448C432.654 123.849 433.61 123.517 434.598 123.501C435.586 123.484 436.554 123.783 437.36 124.355Z" fill="#2AD8E3"/>
<path d="M414.048 175.644C413.704 175.804 413.408 176.051 413.19 176.362C413.139 176.439 413.103 176.526 413.086 176.617C413.069 176.708 413.07 176.802 413.089 176.892C413.109 176.983 413.146 177.069 413.199 177.145C413.252 177.221 413.32 177.285 413.399 177.335L412.333 178.47C411.591 179.281 410.803 180.3 411.128 181.343C411.306 181.823 411.61 182.247 412.008 182.57C412.388 182.98 412.845 183.311 413.352 183.543C413.898 183.667 414.464 183.667 415.01 183.543C415.555 183.419 416.066 183.173 416.504 182.825C417.734 181.99 418.802 180.938 419.655 179.721C420.098 179.217 420.331 178.561 420.304 177.891C420.167 177.379 419.904 176.909 419.54 176.524C418.891 175.736 418.103 174.208 416.967 174.208C415.832 174.208 414.789 175.204 414.048 175.644Z" fill="#FFA0A0"/>
<path d="M250 266H234C229.029 266 225 270.029 225 275V292C225 296.971 229.029 301 234 301H250C254.971 301 259 296.971 259 292V275C259 270.029 254.971 266 250 266Z" fill="white" stroke="#000F97" stroke-width="3" stroke-miterlimit="10"/>
<path d="M174.997 271.391L172.541 274.548C170.167 277.6 170.717 281.998 173.768 284.371L176.925 286.827C179.977 289.201 184.375 288.651 186.749 285.6L189.204 282.443C191.578 279.391 191.029 274.993 187.977 272.62L184.82 270.164C181.768 267.79 177.37 268.339 174.997 271.391Z" fill="white" stroke="#000F97" stroke-width="3" stroke-miterlimit="10"/>
<path d="M344.674 132.555C343.191 134.936 343.918 138.067 346.298 139.551C348.678 141.034 351.81 140.307 353.293 137.926C354.776 135.546 354.049 132.414 351.669 130.931C349.289 129.448 346.157 130.175 344.674 132.555Z" fill="white" stroke="#000F97" stroke-width="3" stroke-miterlimit="10"/>
<path d="M324.958 127.943C323.642 84.7935 289.151 49.4115 246.066 47.1257C234.734 46.5029 223.394 48.1991 212.738 52.1107C202.083 56.0222 192.337 62.0669 184.095 69.8756C175.852 77.6842 169.287 87.0928 164.8 97.5264C161.501 105.198 159.377 113.306 158.484 121.576C157.95 126.518 162.029 130.558 167 130.558H183.423C188.394 130.558 192.34 126.496 193.245 121.609C193.897 118.086 194.935 114.636 196.344 111.323C198.931 105.241 202.718 99.7435 207.478 95.1609C212.238 90.5784 217.874 87.0047 224.047 84.654C230.221 82.3034 236.805 81.2241 243.405 81.4809C255.733 82.0128 267.413 87.1534 276.138 95.887C284.862 104.621 289.996 116.312 290.525 128.65C290.853 136.968 289.061 145.233 285.318 152.666C281.575 160.1 276.003 166.458 269.128 171.142C249.482 184.566 234.84 204.131 228.598 227.106L227.366 231.641C225.812 237.364 230.121 243 236.052 243H249.706C254.672 243 258.609 238.938 259.601 234.072C260.595 229.193 262.396 224.493 264.949 220.171C269.034 213.258 274.894 207.565 281.921 203.686C295.366 196.249 306.498 185.242 314.092 171.877C321.685 158.513 325.446 143.31 324.958 127.943Z" fill="white" stroke="#000F97" stroke-width="3" stroke-miterlimit="10"/>
<path d="M142.472 191.642C123.79 178.009 97.4162 181.043 82.1934 198.618C78.1803 203.234 75.1451 208.616 73.2734 214.435C71.4017 220.254 70.7328 226.388 71.3073 232.463C71.8819 238.537 73.6879 244.425 76.6152 249.765C78.4167 253.052 80.6196 256.088 83.1671 258.809C85.8095 261.631 90.2568 261.049 92.6305 257.997L95.4251 254.405C97.7987 251.353 97.1506 246.994 94.8346 243.899C94.1189 242.942 93.4677 241.936 92.8865 240.885C91.1705 237.784 90.0992 234.365 89.7366 230.833C89.374 227.3 89.7276 223.728 90.7763 220.329C91.8251 216.929 93.5474 213.774 95.8398 211.051C100.144 205.981 106.183 202.704 112.762 201.865C119.342 201.027 125.985 202.688 131.377 206.522C135.003 209.118 137.904 212.598 139.809 216.636C141.714 220.673 142.559 225.134 142.264 229.6C141.44 242.372 144.868 255.036 152.518 265.248V265.248C155.183 268.805 160.501 268.853 163.23 265.345L164.905 263.192C167.276 260.143 166.619 255.787 164.385 252.636C163.261 251.052 162.329 249.33 161.614 247.504C160.042 243.492 159.574 239.127 160.259 234.862C161.563 226.697 160.592 218.341 157.453 210.715C154.315 203.089 149.131 196.489 142.472 191.642Z" fill="white" stroke="#000F97" stroke-width="3" stroke-miterlimit="10"/>
<path d="M395.477 108.612C402.035 97.3314 398.79 82.7087 388.037 75.1939C385.212 73.2119 382.014 71.8234 378.64 71.1134C375.265 70.4033 371.783 70.3867 368.408 71.0644C365.033 71.7421 361.834 73.0998 359.009 75.0549C357.624 76.0131 356.343 77.1049 355.182 78.3123C353.18 80.3964 353.962 83.6741 356.415 85.2027V85.2027C358.868 86.7313 362.061 85.877 364.346 84.1063C364.541 83.9549 364.74 83.8082 364.944 83.6665C366.583 82.5222 368.439 81.721 370.4 81.311C372.361 80.9009 374.387 80.8904 376.356 81.2801C378.325 81.6698 380.196 82.4518 381.858 83.579C384.955 85.6979 387.147 88.8948 388.003 92.5382C388.858 96.1815 388.314 100.006 386.478 103.256C385.233 105.443 383.45 107.275 381.296 108.58C379.141 109.885 376.687 110.62 374.164 110.716C366.949 111 360.042 113.665 354.759 118.554V118.554C352.919 120.258 353.203 123.245 355.331 124.571L356.143 125.077C358.266 126.4 361.028 125.67 362.976 124.101C363.679 123.536 364.44 123.039 365.249 122.621C367.408 121.504 369.83 120.987 372.264 121.121C376.922 121.376 381.554 120.342 385.65 118.135C389.746 115.928 393.147 112.632 395.477 108.612Z" fill="white" stroke="#000F97" stroke-width="3" stroke-miterlimit="10"/>
<path d="M158.15 179.26L151.85 195.61C151.729 195.927 151.53 196.207 151.271 196.426C151.012 196.645 150.702 196.794 150.37 196.86L132.11 200.49C131.759 200.56 131.432 200.722 131.166 200.961C130.899 201.2 130.701 201.505 130.593 201.847C130.485 202.188 130.47 202.552 130.55 202.901C130.631 203.25 130.803 203.571 131.05 203.83L147.3 221.02C147.58 221.316 147.943 221.52 148.341 221.604C148.74 221.688 149.155 221.648 149.53 221.49L197.14 201.29C197.516 201.131 197.834 200.861 198.052 200.516C198.27 200.171 198.378 199.768 198.36 199.36L197.3 175.73C197.283 175.373 197.171 175.027 196.976 174.727C196.78 174.428 196.508 174.187 196.187 174.028C195.866 173.87 195.51 173.801 195.153 173.827C194.796 173.854 194.453 173.976 194.16 174.18L178.86 184.78C178.582 184.971 178.26 185.089 177.924 185.122C177.589 185.155 177.25 185.103 176.94 184.97L160.8 178.13C160.552 178.025 160.286 177.971 160.017 177.971C159.748 177.972 159.482 178.026 159.234 178.132C158.987 178.237 158.764 178.391 158.577 178.585C158.391 178.779 158.246 179.009 158.15 179.26Z" fill="#FF6853"/>
<path d="M338.87 225.43L315.99 230.18C315.551 230.27 315.096 230.248 314.667 230.115C314.239 229.982 313.851 229.743 313.54 229.42L296.34 211.62C296.01 211.277 295.593 211.029 295.133 210.902C294.674 210.776 294.189 210.774 293.729 210.899C293.27 211.024 292.851 211.27 292.519 211.611C292.187 211.953 291.953 212.377 291.84 212.84L284.33 243.41C284.202 243.938 284.238 244.492 284.433 245C284.628 245.507 284.972 245.943 285.42 246.25L342.35 284.94C342.792 285.242 343.315 285.403 343.85 285.403C344.385 285.403 344.908 285.242 345.35 284.94L371.01 266.71C371.399 266.435 371.707 266.061 371.901 265.627C372.096 265.193 372.171 264.714 372.118 264.241C372.065 263.769 371.885 263.319 371.599 262.938C371.313 262.558 370.93 262.262 370.49 262.08L347.59 252.6C347.177 252.428 346.813 252.155 346.534 251.805C346.254 251.456 346.067 251.041 345.99 250.6L341.99 227.6C341.931 227.251 341.803 226.917 341.614 226.618C341.424 226.32 341.177 226.061 340.886 225.859C340.596 225.657 340.268 225.515 339.921 225.441C339.575 225.368 339.218 225.364 338.87 225.43Z" fill="#FF6853"/>
<path d="M248.76 108.21L236.87 113.51C236.643 113.614 236.394 113.658 236.146 113.639C235.897 113.619 235.658 113.537 235.45 113.4L223.93 105.74C223.709 105.593 223.453 105.508 223.189 105.494C222.924 105.48 222.66 105.537 222.425 105.66C222.19 105.782 221.992 105.966 221.852 106.191C221.712 106.416 221.636 106.675 221.63 106.94L221.17 124.5C221.16 124.803 221.244 125.101 221.41 125.353C221.577 125.606 221.818 125.8 222.1 125.91L257.73 140.24C258.011 140.352 258.319 140.375 258.614 140.307C258.909 140.239 259.176 140.083 259.38 139.86L271.21 126.86C271.387 126.663 271.508 126.422 271.561 126.163C271.613 125.903 271.596 125.635 271.51 125.384C271.425 125.133 271.274 124.91 271.074 124.737C270.873 124.564 270.63 124.448 270.37 124.4L256.76 121.95C256.514 121.906 256.283 121.8 256.089 121.643C255.895 121.486 255.744 121.282 255.65 121.05L250.74 108.99C250.664 108.807 250.551 108.64 250.41 108.501C250.268 108.362 250.1 108.253 249.915 108.18C249.73 108.107 249.533 108.073 249.335 108.078C249.136 108.083 248.941 108.128 248.76 108.21Z" fill="#FF6853"/>
</svg>
