<svg width="500" height="350" viewBox="0 0 500 350" fill="none" xmlns="http://www.w3.org/2000/svg">
<rect width="500" height="350" fill="white"/>
<g filter="url(#filter0_d_202_1779)">
<path d="M454.24 90.13C449.847 78.3468 441.958 68.1879 431.629 61.0153C421.3 53.8427 409.025 49.9992 396.45 50H239.45C233.788 50.0027 228.357 52.2502 224.35 56.25L158.3 122.3C120.85 122.314 83.7988 129.995 49.4297 144.87L37.6299 149.97C35.9579 150.694 34.534 151.891 33.5337 153.413C32.5334 154.936 32.0003 156.718 32 158.54V214.63C32 218.698 33.6159 222.6 36.4927 225.477C39.3695 228.354 43.2714 229.97 47.3398 229.97H51.4697C54.0241 229.951 56.489 229.026 58.4248 227.36C60.3607 225.693 61.642 223.393 62.04 220.87C64.1822 208.365 70.6763 197.019 80.375 188.839C90.0737 180.659 102.352 176.172 115.04 176.17C127.728 176.172 140.006 180.659 149.705 188.839C159.403 197.019 165.898 208.365 168.04 220.87C168.444 223.388 169.728 225.681 171.664 227.341C173.599 229.002 176.06 229.923 178.61 229.94H321.93C324.483 229.929 326.949 229.011 328.887 227.349C330.825 225.688 332.109 223.391 332.51 220.87C334.656 208.366 341.151 197.023 350.849 188.844C360.547 180.665 372.823 176.176 385.51 176.17C398.197 176.172 410.476 180.659 420.174 188.839C429.873 197.019 436.368 208.365 438.51 220.87C438.914 223.388 440.198 225.681 442.133 227.341C444.069 229.002 446.53 229.923 449.08 229.94H449.88C452.272 229.94 454.641 229.469 456.851 228.553C459.061 227.637 461.069 226.295 462.76 224.603C464.451 222.911 465.792 220.902 466.707 218.692C467.621 216.481 468.091 214.112 468.09 211.72V167.05C468.101 140.789 463.41 114.738 454.24 90.13Z" fill="white" stroke="#000F97" stroke-width="3" stroke-miterlimit="10"/>
<path d="M115.05 183.14C108.904 183.139 102.819 184.348 97.1411 186.699C91.4631 189.05 86.3039 192.496 81.958 196.841C77.6121 201.186 74.1645 206.344 71.8125 212.022C69.4605 217.699 68.25 223.785 68.25 229.93C68.25 236.075 69.4605 242.16 71.8125 247.838C74.1645 253.515 77.6121 258.674 81.958 263.019C86.3039 267.364 91.4631 270.81 97.1411 273.161C102.819 275.512 108.904 276.721 115.05 276.72C127.456 276.715 139.352 271.783 148.123 263.008C156.893 254.234 161.82 242.336 161.82 229.93C161.82 217.524 156.893 205.626 148.123 196.851C139.352 188.077 127.456 183.145 115.05 183.14ZM115.05 268.67C109.962 268.671 104.923 267.67 100.222 265.724C95.5204 263.778 91.2483 260.924 87.6499 257.327C84.0515 253.729 81.197 249.458 79.2495 244.757C77.302 240.057 76.2998 235.018 76.2998 229.93C76.3025 219.654 80.3861 209.801 87.6528 202.536C94.9196 195.271 104.774 191.19 115.05 191.19C120.139 191.187 125.18 192.187 129.883 194.133C134.586 196.078 138.859 198.931 142.459 202.529C146.06 206.126 148.916 210.398 150.865 215.099C152.814 219.801 153.819 224.84 153.82 229.93C153.82 235.02 152.817 240.06 150.868 244.762C148.919 249.464 146.063 253.736 142.462 257.334C138.862 260.932 134.588 263.785 129.884 265.73C125.181 267.675 120.14 268.674 115.05 268.67Z" fill="white" stroke="#000F97" stroke-width="3" stroke-miterlimit="10"/>
<path d="M201.16 121.43L230.37 63.03C230.698 62.3689 230.852 61.6349 230.818 60.8976C230.784 60.1603 230.562 59.4439 230.173 58.8162C229.785 58.1886 229.243 57.6703 228.598 57.3105C227.954 56.9507 227.228 56.7612 226.49 56.76H223.82L158.28 122.3C155.04 122.3 197.15 123.83 197.15 123.83C197.978 123.854 198.795 123.641 199.505 123.216C200.216 122.791 200.79 122.171 201.16 121.43Z" fill="white" stroke="#000F97" stroke-width="3" stroke-miterlimit="10"/>
<path d="M308.119 123.87H214.69C213.952 123.869 213.226 123.679 212.581 123.319C211.937 122.96 211.395 122.441 211.006 121.814C210.618 121.186 210.396 120.47 210.362 119.732C210.327 118.995 210.482 118.261 210.81 117.6L240.06 59.13C240.417 58.4092 240.969 57.8027 241.653 57.3787C242.336 56.9546 243.125 56.73 243.93 56.73H308.119C309.268 56.73 310.369 57.1862 311.181 57.9982C311.994 58.8102 312.45 59.9116 312.45 61.06V119.54C312.45 120.688 311.994 121.79 311.181 122.602C310.369 123.414 309.268 123.87 308.119 123.87Z" fill="white" stroke="#000F97" stroke-width="3" stroke-miterlimit="10"/>
<path d="M401.53 123.87H323.93C323.36 123.871 322.796 123.76 322.27 123.543C321.743 123.326 321.265 123.008 320.862 122.605C320.459 122.203 320.139 121.725 319.92 121.199C319.702 120.673 319.59 120.109 319.59 119.54V61.06C319.59 60.4905 319.702 59.9267 319.92 59.4007C320.139 58.8747 320.459 58.3969 320.862 57.9947C321.265 57.5925 321.743 57.2737 322.27 57.0567C322.796 56.8397 323.36 56.7287 323.93 56.73H393.08C394.121 56.7289 395.129 57.1034 395.917 57.7848C396.705 58.4663 397.22 59.409 397.37 60.44L405.82 118.92C405.909 119.535 405.864 120.162 405.689 120.758C405.515 121.355 405.214 121.906 404.807 122.376C404.4 122.845 403.896 123.222 403.331 123.48C402.766 123.738 402.151 123.871 401.53 123.87Z" fill="white" stroke="#000F97" stroke-width="3" stroke-miterlimit="10"/>
<path d="M417.079 123.87H463.82C461.527 112.375 458.317 101.082 454.22 90.1C448.838 75.6493 438.234 63.7421 424.5 56.73H408.61C407.983 56.7282 407.364 56.8624 406.795 57.1231C406.225 57.3839 405.719 57.7651 405.311 58.2404C404.904 58.7158 404.604 59.2739 404.433 59.8764C404.261 60.4788 404.223 61.1112 404.32 61.73L412.77 120.21C412.932 121.234 413.456 122.167 414.247 122.838C415.038 123.51 416.042 123.876 417.079 123.87Z" fill="white" stroke="#000F97" stroke-width="3" stroke-miterlimit="10"/>
<path d="M41.1899 183.87L32 185.87V158.57H46C47.1355 158.57 48.2597 158.794 49.3086 159.229C50.3575 159.664 51.3104 160.301 52.1128 161.104C52.9152 161.908 53.5513 162.861 53.9849 163.911C54.4185 164.96 54.641 166.085 54.6396 167.22C54.6453 171.116 53.3127 174.897 50.8643 177.928C48.4158 180.958 45.0004 183.056 41.1899 183.87Z" stroke="#000F97" stroke-width="3" stroke-miterlimit="10"/>
<path d="M461.07 157.08H468.07V170.39H463.38C461.303 170.39 459.312 169.565 457.843 168.097C456.375 166.628 455.55 164.637 455.55 162.56C455.55 161.837 455.693 161.121 455.971 160.454C456.249 159.786 456.656 159.18 457.169 158.671C457.682 158.161 458.291 157.759 458.96 157.486C459.63 157.213 460.347 157.075 461.07 157.08Z" stroke="#000F97" stroke-width="3" stroke-miterlimit="10"/>
<path d="M360.34 123.5H384.58C385.333 123.5 386.055 123.799 386.588 124.332C387.121 124.864 387.42 125.587 387.42 126.34C387.42 127.809 386.836 129.218 385.797 130.257C384.758 131.296 383.349 131.88 381.88 131.88H360.34C359.587 131.88 358.864 131.581 358.332 131.048C357.799 130.516 357.5 129.793 357.5 129.04V126.34C357.5 125.587 357.799 124.864 358.332 124.332C358.864 123.799 359.587 123.5 360.34 123.5Z" fill="white" stroke="#000F97" stroke-width="3" stroke-miterlimit="10"/>
<path d="M385.82 183.14C373.41 183.14 361.509 188.07 352.734 196.844C343.96 205.619 339.03 217.52 339.03 229.93C339.03 242.339 343.96 254.241 352.734 263.015C361.509 271.79 373.41 276.72 385.82 276.72C398.229 276.72 410.13 271.79 418.905 263.015C427.68 254.241 432.61 242.339 432.61 229.93C432.61 223.785 431.4 217.701 429.048 212.024C426.697 206.347 423.25 201.189 418.905 196.844C414.56 192.5 409.402 189.053 403.726 186.702C398.049 184.35 391.964 183.14 385.82 183.14ZM385.82 268.67C380.732 268.671 375.694 267.67 370.993 265.724C366.292 263.777 362.021 260.924 358.423 257.326C354.826 253.729 351.972 249.457 350.026 244.757C348.079 240.056 347.078 235.018 347.08 229.93C347.08 219.655 351.161 209.802 358.426 202.537C365.691 195.271 375.545 191.19 385.82 191.19C396.094 191.19 405.948 195.271 413.213 202.537C420.479 209.802 424.56 219.655 424.56 229.93C424.561 235.018 423.56 240.056 421.614 244.757C419.667 249.457 416.814 253.729 413.216 257.326C409.619 260.924 405.347 263.777 400.646 265.724C395.946 267.67 390.908 268.671 385.82 268.67Z" fill="white" stroke="#000F97" stroke-width="3" stroke-miterlimit="10"/>
<path d="M102.59 196.77C106.479 195.347 110.589 194.623 114.73 194.63C118.854 194.627 122.947 195.352 126.82 196.77L129.74 194.24C124.974 192.245 119.857 191.225 114.69 191.24C109.523 191.223 104.405 192.244 99.6396 194.24L102.59 196.77Z" fill="white" stroke="#000F97" stroke-width="3" stroke-miterlimit="10"/>
<path d="M153.31 233.29C153.108 235.688 152.683 238.061 152.04 240.38C152.986 236.984 153.467 233.475 153.47 229.95C153.483 220.92 150.326 212.171 144.55 205.23L143.03 208.82C147.591 214.919 150.048 222.334 150.03 229.95C150.03 230.4 150.03 230.85 150.03 231.3L153.31 233.29Z" fill="white" stroke="#000F97" stroke-width="3" stroke-miterlimit="10"/>
<path d="M147.22 251.04L143.3 250.7C138.796 256.89 132.407 261.451 125.09 263.7L124.21 267.5C129.282 266.214 134.041 263.916 138.201 260.744C142.362 257.571 145.838 253.59 148.42 249.04C148.04 249.74 147.64 250.39 147.22 251.04Z" fill="white" stroke="#000F97" stroke-width="3" stroke-miterlimit="10"/>
<path d="M79.44 231.3C79.44 230.85 79.44 230.4 79.44 229.95C79.422 222.334 81.8786 214.919 86.44 208.82L84.92 205.23C79.1467 212.172 75.9932 220.921 76.0098 229.95C76.0098 231.08 76.0597 232.19 76.1597 233.29L79.44 231.3Z" fill="white" stroke="#000F97" stroke-width="3" stroke-miterlimit="10"/>
<path d="M105.24 267.52L104.36 263.72C97.0431 261.471 90.6533 256.91 86.1499 250.72L82.23 251.06C81.82 250.41 81.4098 249.76 81.0298 249.06C83.7981 253.925 87.5851 258.134 92.1313 261.4C96.6776 264.666 101.875 266.91 107.37 267.98C106.65 267.87 105.94 267.69 105.24 267.52Z" fill="white" stroke="#000F97" stroke-width="3" stroke-miterlimit="10"/>
<path d="M153.31 233.29L136.89 223.38L144.55 205.23C140.581 200.431 135.515 196.658 129.78 194.23L114.73 207.23L99.6797 194.23C93.9421 196.658 88.873 200.431 84.8999 205.23L92.5601 223.38L76.1396 233.29C76.6741 239.618 78.7667 245.716 82.23 251.04L101.03 249.43L105.24 267.52C108.343 268.298 111.531 268.691 114.73 268.69C117.926 268.69 121.11 268.297 124.21 267.52L128.42 249.43L147.22 251.04C150.683 245.716 152.776 239.618 153.31 233.29Z" fill="white" stroke="#000F97" stroke-width="3" stroke-miterlimit="10"/>
<path d="M332.51 220.87C334.656 208.366 341.151 197.023 350.849 188.844C360.547 180.665 372.823 176.176 385.51 176.17C398.197 176.172 410.476 180.659 420.174 188.839C429.873 197.019 436.368 208.364 438.51 220.87C438.914 223.388 440.198 225.681 442.133 227.341C444.069 229.002 446.53 229.923 449.08 229.94H449.88C452.272 229.94 454.641 229.469 456.851 228.553C459.061 227.637 461.069 226.295 462.76 224.603C464.451 222.911 465.792 220.902 466.707 218.692C467.621 216.481 468.091 214.112 468.09 211.72V184.36L432.06 173.87C401.727 165.077 369.423 165.842 339.54 176.06C323.531 181.53 306.728 184.32 289.81 184.32H243.33C214.907 184.319 186.599 180.741 159.07 173.67C130.333 166.282 100.072 167.369 71.9399 176.8C57.6504 181.595 44.1807 188.552 32 197.43V214.56C32 216.574 32.3966 218.569 33.1675 220.43C33.9384 222.291 35.0682 223.982 36.4927 225.407C37.9171 226.831 39.6081 227.961 41.4692 228.732C43.3304 229.503 45.3254 229.9 47.3398 229.9H51.4697C54.0139 229.884 56.4704 228.969 58.4048 227.316C60.3392 225.664 61.6271 223.38 62.04 220.87C64.1822 208.364 70.6763 197.019 80.375 188.839C90.0737 180.659 102.352 176.172 115.04 176.17C127.728 176.172 140.006 180.659 149.705 188.839C159.403 197.019 165.898 208.364 168.04 220.87C168.444 223.388 169.728 225.681 171.664 227.341C173.599 229.002 176.06 229.923 178.61 229.94H321.93C324.483 229.929 326.949 229.011 328.887 227.349C330.825 225.688 332.109 223.391 332.51 220.87Z" stroke="#000F97" stroke-width="3" stroke-miterlimit="10"/>
<path d="M373.34 196.77C377.229 195.348 381.339 194.623 385.48 194.63C389.618 194.622 393.724 195.347 397.61 196.77L400.53 194.24C395.764 192.245 390.647 191.224 385.48 191.24C380.313 191.224 375.196 192.245 370.43 194.24L373.34 196.77Z" fill="white" stroke="#000F97" stroke-width="3" stroke-miterlimit="10"/>
<path d="M424.07 233.29C423.865 235.688 423.436 238.062 422.79 240.38C423.74 236.985 424.221 233.476 424.22 229.95C424.231 220.922 421.079 212.175 415.31 205.23L413.82 208.87C418.377 214.971 420.834 222.385 420.82 230C420.82 230.45 420.82 230.9 420.82 231.35L424.07 233.29Z" fill="white" stroke="#000F97" stroke-width="3" stroke-miterlimit="10"/>
<path d="M417.97 251.04L414.06 250.7C409.557 256.89 403.166 261.451 395.85 263.7L394.96 267.5C400.032 266.216 404.792 263.918 408.953 260.746C413.113 257.573 416.589 253.591 419.17 249.04C418.82 249.74 418.39 250.39 417.97 251.04Z" fill="white" stroke="#000F97" stroke-width="3" stroke-miterlimit="10"/>
<path d="M350.19 231.3C350.19 230.847 350.19 230.397 350.19 229.95C350.176 222.335 352.632 214.921 357.19 208.82L355.67 205.23C349.901 212.175 346.748 220.922 346.76 229.95C346.76 231.08 346.82 232.19 346.91 233.29L350.19 231.3Z" fill="white" stroke="#000F97" stroke-width="3" stroke-miterlimit="10"/>
<path d="M375.99 267.52L375.11 263.72C367.793 261.471 361.403 256.91 356.9 250.72L352.99 251.06C352.57 250.41 352.17 249.76 351.79 249.06C354.555 253.926 358.34 258.136 362.884 261.401C367.429 264.667 372.626 266.911 378.12 267.98C377.41 267.87 376.7 267.69 375.99 267.52Z" fill="white" stroke="#000F97" stroke-width="3" stroke-miterlimit="10"/>
<path d="M424.07 233.29L407.64 223.38L415.31 205.23C411.335 200.433 406.266 196.661 400.53 194.23L385.48 207.23L370.43 194.23C364.693 196.661 359.625 200.433 355.65 205.23L363.32 223.38L346.89 233.29C347.428 239.619 349.523 245.717 352.99 251.04L371.78 249.43L375.99 267.52C379.093 268.297 382.281 268.69 385.48 268.69C388.676 268.69 391.86 268.297 394.96 267.52L399.18 249.43L417.97 251.04C421.436 245.717 423.532 239.619 424.07 233.29Z" fill="white" stroke="#000F97" stroke-width="3" stroke-miterlimit="10"/>
<path d="M251.26 150.93L233.13 169.67C232.781 170.029 232.347 170.295 231.868 170.444C231.39 170.592 230.881 170.618 230.39 170.52L203.26 164.89C202.741 164.791 202.205 164.831 201.707 165.005C201.208 165.179 200.764 165.482 200.42 165.883C200.076 166.284 199.845 166.768 199.748 167.287C199.651 167.807 199.693 168.342 199.87 168.84L212.14 201.84C212.354 202.408 212.736 202.897 213.234 203.243C213.732 203.589 214.323 203.777 214.93 203.78H291.87C292.475 203.775 293.064 203.587 293.56 203.24C294.056 202.894 294.436 202.406 294.65 201.84L306.93 168.84C307.107 168.341 307.149 167.805 307.052 167.284C306.955 166.764 306.722 166.279 306.377 165.878C306.032 165.476 305.587 165.174 305.086 165C304.586 164.827 304.049 164.789 303.53 164.89L276.41 170.52C275.918 170.618 275.41 170.592 274.932 170.444C274.453 170.295 274.019 170.029 273.67 169.67L255.54 150.93C255.261 150.646 254.928 150.42 254.56 150.266C254.193 150.112 253.798 150.032 253.4 150.032C253.002 150.032 252.607 150.112 252.24 150.266C251.872 150.42 251.539 150.646 251.26 150.93Z" fill="#FF6853"/>
</g>
<path d="M172.052 165.807C166.083 160.223 165.639 146.316 165.966 138.731C166.104 135.218 167.009 130.943 170.172 129.327C170.705 129.013 171.29 128.841 171.869 128.829C174.183 128.826 175.046 131.63 175.402 133.959C176.75 141.78 177.675 149.727 178.172 157.766C178.906 157.634 181.794 160.379 182.5 160.5C201 163 206 159 203 162.126C204.338 162.347 207.567 161.552 208.5 162.5C208.953 162.986 209.053 163.274 209.052 163.994C209.051 164.713 208.801 165.441 208.346 166.045C206.524 168.047 201.647 167.846 199.432 167.919L183.101 168.409C180.514 168.643 177.96 168.448 175.534 167.83C174.227 167.42 173.044 166.732 172.052 165.807Z" fill="#FFA0A0"/>
<path d="M73.4774 266.954L76.4899 273.255C88.5578 269.388 102.323 259.634 113.69 254.032C115.703 253.214 117.496 251.937 118.927 250.302C120.556 247.554 121.239 244.348 120.873 241.175L118.502 204.685C118.557 204.241 118.459 203.792 118.224 203.411C118.039 203.216 117.816 203.061 117.569 202.953C117.322 202.846 117.057 202.789 116.788 202.786C113.004 202.226 109.324 191.073 105.5 191L101.802 237.885C101.61 240.48 100.817 242.994 99.4845 245.229C98.3288 246.75 96.8886 248.032 95.2439 249.005C89.0336 253.198 80.2208 261.441 73.8251 265.402C73.6754 265.468 73.5407 265.563 73.4291 265.683C73.3176 265.802 73.2316 265.943 73.1762 266.097C73.1674 266.253 73.1894 266.409 73.2411 266.556C73.2928 266.703 73.3731 266.838 73.4774 266.954Z" fill="#FFD316"/>
<path d="M136.739 161C142.221 214.705 141.355 154.145 136.739 152.5C133.565 172.538 104.946 168.014 104.923 188.261C104.923 224.191 116.185 255.024 121.144 290.653C121.329 291.973 121.77 292.83 123.253 292.622C125.57 292.297 127.47 292.622 128.536 290.722C129.602 288.823 129.185 285.348 129.37 283.425C129.88 278.305 130.251 273.163 130.575 268.02C131.224 257.665 131.711 247.287 132.893 236.978C134.283 225.141 135.789 212.724 136.739 200.84C138.964 174.107 144.572 186.552 136.739 161Z" fill="#FFD316"/>
<path d="M115.96 187.646C120.912 192.232 130.794 191.068 136.605 194.5C137.169 193.707 137.917 193.016 138.537 192.264C156.113 171.562 168.391 156.492 176.61 130.554C172.064 129.394 168.113 126.582 165.528 122.667C150.965 137.296 125.718 150.634 113.791 167.394C111.346 170.829 109.055 174.288 106.937 177.785C109.49 181.461 112.525 184.777 115.96 187.646Z" fill="#2AD8E3"/>
<path d="M166.245 118.941C166.289 116.451 167.03 114.024 168.386 111.935C170.967 107.317 174.634 103.398 179.071 100.517C184.32 97.4575 192.652 96.6198 197.195 101.587C202.477 107.393 196.332 115.189 192.084 120.24C188.829 124.429 184.124 127.247 178.895 128.142C171.159 129.062 166.275 124.734 166.245 118.941Z" fill="#FFA0A0"/>
<path d="M200.417 101.776C200.695 103.664 200.699 105.583 200.43 107.472C200.39 109.599 199.955 111.7 199.15 113.668C198.574 114.759 197.856 115.768 197.014 116.67C195.546 118.282 193.923 119.746 192.169 121.04L191.281 120.409L195.637 115.207C196.114 114.717 196.513 114.157 196.819 113.546C197.092 112.732 197.113 111.854 196.879 111.028C196.645 110.202 196.167 109.465 195.507 108.915C194.135 107.854 192.421 107.333 190.691 107.45C188.981 107.572 187.289 107.873 185.642 108.35C183.297 108.927 180.936 109.408 178.564 109.824C177.788 109.954 176.797 109.988 176.446 109.283C176.319 108.978 176.232 108.657 176.185 108.33C176.103 108.092 175.974 107.873 175.807 107.685C175.639 107.498 175.436 107.345 175.209 107.236C174.982 107.128 174.736 107.065 174.485 107.053C174.233 107.04 173.982 107.077 173.745 107.163C173.27 107.358 172.873 107.707 172.617 108.153C172.362 108.599 172.262 109.117 172.333 109.626C172.404 110.133 172.597 110.616 172.896 111.032C173.194 111.447 173.59 111.784 174.048 112.013C172.226 114.213 170.423 116.427 168.588 118.647C166.231 121.519 163.465 118.612 163.313 115.547C163.376 113.476 163.915 111.447 164.888 109.617C167.621 103.459 170.927 96.8548 177.055 94.0789C182.706 91.5327 190.39 91.0865 195.563 94.7679C197.998 96.4173 199.729 98.9167 200.417 101.776Z" fill="#FFD316"/>
<path d="M143.262 108.943C151.209 104.099 161.642 108.585 165.865 111.434C161.284 115.674 150.216 124.861 142.585 127.68C133.045 131.205 115.793 116.584 118.905 118.798C122.017 121.013 133.327 114.999 143.262 108.943Z" fill="#FFD316"/>
<path d="M121.167 290.676C124.076 290.44 127.002 290.565 129.88 291.047C132.106 292.691 134.526 294.053 137.087 295.101C137.856 295.337 138.566 295.731 139.173 296.259C139.495 296.545 139.699 296.94 139.746 297.368C139.793 297.796 139.68 298.226 139.428 298.575C139.165 298.809 138.856 298.984 138.52 299.088C138.184 299.192 137.83 299.222 137.481 299.178C132.105 299.233 126.735 298.775 121.445 297.811C121.122 297.794 120.813 297.672 120.565 297.463C120.391 297.266 120.271 297.026 120.217 296.768C119.938 295.743 119.878 294.671 120.042 293.621C120.206 292.571 120.589 291.567 121.167 290.676Z" fill="black"/>
<path d="M73.2458 265.935C74.8001 268.279 76.0536 270.808 76.9766 273.464C76.6291 276.101 76.6291 278.772 76.9766 281.41C77.1429 282.173 77.1429 282.963 76.9766 283.726C76.8841 284.102 76.6605 284.432 76.3461 284.657C76.0317 284.882 75.6471 284.987 75.2618 284.954C74.5898 284.838 74.1727 284.19 73.8483 283.61C71.3134 279.101 69.2107 274.362 67.5684 269.456C67.4769 269.154 67.4769 268.832 67.5684 268.53C67.6467 268.293 67.7915 268.084 67.9855 267.927C68.6877 267.265 69.5139 266.748 70.4167 266.406C71.3194 266.064 72.2809 265.904 73.2458 265.935Z" fill="black"/>
<path d="M209.839 165.032C209.052 164.745 208.233 164.554 207.401 164.463C206.703 164.364 205.541 164.463 205.541 163.679C205.541 162.896 206 163 206.5 162.5C207 162 205.5 162 204.5 162.5C203.5 163 202.638 162.922 202.638 162.922C202.638 162.922 194 162 192.5 161.5C191 161 183.5 160 175.835 157.183C175.125 157.004 174.391 156.942 173.661 157.001C172.906 149.271 171.726 141.588 170.128 133.987C169.696 131.718 168.732 128.956 166.436 128.744C165.861 128.72 165.288 128.827 164.762 129.059C161.699 130.406 160.974 134.382 160.956 137.724C160.938 144.905 161.806 158.232 167.967 164.123C168.956 165.087 170.123 165.85 171.403 166.369C173.852 167.2 174.502 166.898 179.001 167.681C183.5 168.465 192 169 195.312 168.74C198.625 168.481 198.5 168 202.964 168.499C204.947 169.283 207.067 169.66 209.199 169.609C209.875 169.589 210.539 169.42 211.143 169.116C211.447 168.965 211.709 168.741 211.906 168.465C212.103 168.188 212.228 167.867 212.271 167.53C212.195 166.905 211.917 166.322 211.477 165.871C211.038 165.419 210.462 165.125 209.839 165.032Z" fill="#FFA0A0"/>
<defs>
<filter id="filter0_d_202_1779" x="30.5" y="48.5" width="443.09" height="233.72" filterUnits="userSpaceOnUse" color-interpolation-filters="sRGB">
<feFlood flood-opacity="0" result="BackgroundImageFix"/>
<feColorMatrix in="SourceAlpha" type="matrix" values="0 0 0 0 0 0 0 0 0 0 0 0 0 0 0 0 0 0 127 0" result="hardAlpha"/>
<feOffset dx="4" dy="4"/>
<feComposite in2="hardAlpha" operator="out"/>
<feColorMatrix type="matrix" values="0 0 0 0 1 0 0 0 0 0.407843 0 0 0 0 0.32549 0 0 0 1 0"/>
<feBlend mode="normal" in2="BackgroundImageFix" result="effect1_dropShadow_202_1779"/>
<feBlend mode="normal" in="SourceGraphic" in2="effect1_dropShadow_202_1779" result="shape"/>
</filter>
</defs>
</svg>
