<svg width="500" height="350" viewBox="0 0 500 350" fill="none" xmlns="http://www.w3.org/2000/svg">
<rect width="500" height="350" fill="white"/>
<g filter="url(#filter0_d_202_1780)">
<path d="M431.951 109.237H67.5153V308H431.951V109.237Z" fill="white" stroke="#000F97" stroke-width="3" stroke-miterlimit="10"/>
<path d="M431.942 256.333H413.818V308H431.942V256.333Z" fill="white" stroke="#000F97" stroke-width="3" stroke-miterlimit="10"/>
<path d="M303.546 123.551H82.6797V248.392H303.546V123.551Z" fill="white" stroke="#000F97" stroke-width="3" stroke-miterlimit="10"/>
<path d="M292.749 131.691H93.4667V240.252H292.749V131.691Z" fill="white" stroke="#000F97" stroke-width="3" stroke-miterlimit="10"/>
<path d="M308.074 248.392H78.1417V264.275H308.074V248.392Z" fill="white" stroke="#000F97" stroke-width="3" stroke-miterlimit="10"/>
<path d="M308.074 256.333V264.275H78.1416V256.333H67.5153V308H315.316V256.333H308.074Z" fill="white" stroke="#000F97" stroke-width="3" stroke-miterlimit="10"/>
<path d="M315.317 308H413.819V123.541H315.317V308Z" fill="white" stroke="#000F97" stroke-width="3" stroke-miterlimit="10"/>
<path d="M325.574 299.86H405.158V131.691H325.574V299.86Z" fill="white" stroke="#000F97" stroke-width="3" stroke-miterlimit="10"/>
<path d="M441.982 42H57.4657V109.237H441.982V42Z" fill="white" stroke="#000F97" stroke-width="3" stroke-miterlimit="10"/>
<path d="M452.457 98.0627H47V109.237H452.457V98.0627Z" fill="white" stroke="#000F97" stroke-width="3" stroke-miterlimit="10"/>
<path d="M340.805 215.776H321.263C320.146 215.776 319.24 216.681 319.24 217.799V217.808C319.24 218.926 320.146 219.831 321.263 219.831H340.805C341.922 219.831 342.828 218.926 342.828 217.808V217.799C342.828 216.681 341.922 215.776 340.805 215.776Z" fill="white" stroke="#000F97" stroke-width="3" stroke-miterlimit="10"/>
<path d="M191.742 169.885L180.227 181.797C180.005 182.028 179.728 182.198 179.422 182.293C179.116 182.387 178.791 182.402 178.478 182.336L161.243 178.763C160.913 178.695 160.571 178.716 160.252 178.825C159.933 178.934 159.649 179.126 159.429 179.381C159.209 179.637 159.061 179.947 159.001 180.278C158.941 180.61 158.971 180.952 159.088 181.268L166.887 202.228C167.022 202.588 167.263 202.899 167.579 203.118C167.895 203.338 168.27 203.456 168.655 203.457H217.552C217.938 203.458 218.316 203.341 218.633 203.121C218.951 202.901 219.194 202.59 219.329 202.228L227.119 181.268C227.236 180.952 227.265 180.61 227.205 180.278C227.145 179.947 226.998 179.637 226.778 179.381C226.559 179.126 226.274 178.934 225.955 178.825C225.636 178.716 225.294 178.695 224.964 178.763L207.729 182.336C207.417 182.4 207.094 182.384 206.79 182.29C206.486 182.196 206.211 182.026 205.99 181.797L194.465 169.885C194.289 169.702 194.077 169.557 193.843 169.457C193.609 169.358 193.357 169.307 193.103 169.307C192.849 169.307 192.598 169.358 192.364 169.457C192.13 169.557 191.918 169.702 191.742 169.885Z" fill="#FF6853"/>
<path d="M248.362 57.637L239.74 66.5522C239.519 66.7812 239.244 66.9507 238.939 67.0449C238.635 67.1391 238.312 67.155 238.001 67.0911L225.36 64.4629C225.029 64.394 224.685 64.4152 224.365 64.5244C224.045 64.6336 223.76 64.8267 223.54 65.0835C223.319 65.3404 223.173 65.6516 223.114 65.9848C223.055 66.318 223.086 66.6608 223.205 66.9776L228.991 82.5296C229.126 82.8915 229.369 83.2033 229.687 83.423C230.004 83.6428 230.382 83.7599 230.768 83.7586H268.688C269.073 83.758 269.449 83.64 269.764 83.4204C270.08 83.2007 270.322 82.89 270.456 82.5296L276.242 66.9776C276.352 66.6658 276.377 66.3308 276.317 66.006C276.256 65.6812 276.111 65.3779 275.897 65.1264C275.683 64.8749 275.407 64.6839 275.096 64.5724C274.785 64.461 274.45 64.433 274.125 64.4912L261.494 67.1194C261.181 67.185 260.856 67.17 260.55 67.0757C260.244 66.9815 259.967 66.8111 259.745 66.5806L251.123 57.6654C250.948 57.4746 250.735 57.3218 250.499 57.2164C250.263 57.111 250.007 57.0552 249.748 57.0526C249.49 57.0499 249.233 57.1004 248.995 57.201C248.756 57.3015 248.541 57.4499 248.362 57.637Z" fill="#FF6853"/>
</g>
<path d="M105.444 300.841L108.64 299.955C108.826 299.92 108.994 299.824 109.12 299.683C109.168 299.503 109.152 299.311 109.073 299.142C108.974 297.997 108.747 296.842 108.563 295.683C108.577 295.85 104.874 296.213 104.456 296.711C103.985 297.57 105.155 299.922 105.444 300.841Z" fill="#FFA0A0"/>
<path d="M118.3 298.955C119.304 299.227 120.391 299.456 121.352 299.686C121.662 299.801 122.003 299.801 122.313 299.686C122.449 299.576 122.562 299.44 122.644 299.285C122.727 299.131 122.778 298.962 122.794 298.788C123.003 297.889 123.212 296.991 123.442 296.071C123.474 295.977 123.474 295.874 123.442 295.779C123.442 295.633 123.233 295.57 123.087 295.528C122.293 295.257 119.931 294.4 119.22 295.027C118.948 295.34 118.509 298.997 118.3 298.955Z" fill="#FFA0A0"/>
<path d="M90.3346 96.2147C90.5361 95.4377 90.6137 94.6338 90.5645 93.8327C90.5645 93.0596 90.1883 92.1402 89.394 92.0149C88.5998 91.8895 88.0145 92.579 87.6383 93.2476C86.0983 96.4244 85.21 99.8771 85.0256 103.402C86.2256 103.796 87.4831 103.987 88.7461 103.967C88.7511 102.51 89.1097 101.076 89.7911 99.7877C90.7577 98.5853 91.3726 97.1389 91.5677 95.6087H90.9407L90.3346 96.2147Z" fill="#FFA0A0"/>
<path d="M114.643 147.678C113.242 142.852 102.457 140.846 98.4025 138.902C93.9961 136.798 90.0691 133.811 86.865 130.127C86.1122 129.341 85.5163 128.419 85.1093 127.41C84.0852 124.652 89.4568 103.549 88.9969 103.423L84.3569 102.044C82.2667 108.208 79.9258 114.372 77.773 120.578C76.1218 125.342 73.2583 130.336 74.1779 135.559C74.7632 138.882 78.3582 141.096 80.6991 143.499C83.0401 145.902 89.415 152.254 92.7383 155.639L102.687 165.689C104.903 170.641 110.024 157.457 111.34 155.744C112.657 154.03 115.437 150.415 114.643 147.678Z" fill="#000F97"/>
<path d="M117.841 297.429C120.072 297.762 122.255 298.365 124.341 299.226C125.731 300.865 127.325 302.319 129.086 303.552C129.623 303.867 130.087 304.294 130.444 304.805C130.618 305.064 130.695 305.376 130.661 305.686C130.626 305.996 130.483 306.284 130.256 306.498C130.018 306.627 129.755 306.704 129.485 306.726C129.216 306.747 128.944 306.712 128.688 306.623C124.618 305.722 120.643 304.434 116.817 302.778C116.578 302.702 116.367 302.556 116.21 302.361C116.115 302.181 116.071 301.978 116.085 301.775C116.058 300.969 116.201 300.165 116.503 299.417C116.805 298.668 117.261 297.991 117.841 297.429Z" fill="#FFD316"/>
<path d="M110.073 297.614C107.884 298.188 105.773 299.027 103.786 300.11C102.598 301.893 101.179 303.511 99.5677 304.923C99.0654 305.3 98.6492 305.779 98.3472 306.33C98.2095 306.608 98.1717 306.926 98.2401 307.229C98.3084 307.532 98.4788 307.803 98.7226 307.996C98.9781 308.083 99.2489 308.116 99.5178 308.092C99.7866 308.069 100.048 307.99 100.284 307.86C104.226 306.493 108.03 304.758 111.646 302.679C111.879 302.575 112.076 302.404 112.212 302.189C112.281 301.999 112.307 301.796 112.286 301.595C112.106 300.028 111.31 298.595 110.073 297.614Z" fill="#FFD316"/>
<path d="M112.636 138.965C114.539 138.968 116.365 138.217 117.715 136.876C122.941 132.237 123.421 124.339 123.484 117.402C123.535 116.687 123.413 115.97 123.129 115.312C122.77 114.867 122.323 114.499 121.816 114.233C121.309 113.967 120.753 113.808 120.182 113.766C115.353 113.39 110.567 113.223 105.697 113.077C105.288 113.037 104.876 113.109 104.506 113.286C104.159 113.57 103.929 113.971 103.858 114.414C103.638 116.454 103.575 118.507 103.67 120.557C103.463 122.641 103.463 124.741 103.67 126.825C103.781 128.835 104.306 130.801 105.213 132.598C106.119 134.396 107.387 135.987 108.937 137.273C109.973 138.194 111.262 138.783 112.636 138.965Z" fill="#FFA0A0"/>
<path d="M132.2 156.454C130.632 158.251 127.769 155.806 123.484 148.598C121.498 145.233 125.762 142.329 127.936 140.24L138.052 130.085C141.595 126.768 144.808 123.115 147.646 119.178C150.78 114.565 152.587 109.181 152.871 103.611C152.809 102.87 153.008 102.131 153.435 101.522C153.82 101.161 154.291 100.904 154.803 100.776C155.316 100.648 155.852 100.653 156.362 100.791C157.139 100.951 157.841 101.364 158.359 101.965C158.877 102.566 159.182 103.321 159.225 104.113C160.646 117.736 141.501 145.589 132.2 156.454Z" fill="#000F97"/>
<path d="M153.812 100.623C153.645 99.6832 153.017 98.743 153.331 97.8445C153.54 97.3013 154.042 96.9043 154.104 96.361C154.167 95.8178 154.104 95.6297 154.104 95.2536C154.136 95.0235 154.226 94.8051 154.365 94.6188C154.503 94.4325 154.687 94.2843 154.899 94.188C155.326 93.9976 155.789 93.898 156.257 93.8954C156.736 93.8529 157.216 93.9548 157.637 94.188C157.988 94.4429 158.251 94.8007 158.389 95.2118C158.715 96.1221 158.795 97.1026 158.619 98.0535C158.442 99.0003 158.183 99.9301 157.846 100.832C157.78 101.083 157.642 101.308 157.449 101.48C157.273 101.61 157.061 101.683 156.842 101.689C156.149 101.787 155.446 101.787 154.752 101.689C153.874 101.543 154.042 101.397 153.812 100.623Z" fill="#FFA0A0"/>
<path d="M88.1852 258.653C87.1738 256.173 86.4695 253.579 86.0877 250.928C85.9307 248.896 85.9853 246.852 86.2506 244.831C87.6208 231.593 90.6045 218.571 95.1353 206.056C95.5418 204.296 96.6211 202.764 98.1425 201.789C99.3771 201.36 100.706 201.281 101.983 201.561L112.934 203C113.83 203.032 114.702 203.304 115.457 203.788C116.348 204.616 116.883 205.758 116.95 206.972C117.85 214.631 116.321 222.378 112.58 229.122C109.272 236.076 105.45 242.774 101.145 249.159C100.4 250.056 99.8609 251.105 99.5652 252.232C99.4622 253.225 99.5493 254.228 99.8219 255.188C102.493 268.547 107.953 279.964 110.147 293.386C110.214 293.789 110.196 294.202 110.095 294.598C109.994 294.994 109.811 295.364 109.559 295.686C109.307 296.008 108.99 296.274 108.63 296.467C108.269 296.659 107.872 296.775 107.465 296.806C105.778 296.953 102.925 297.201 102.053 296.584C101.861 296.435 101.725 296.225 101.666 295.989L98.6533 287.63C96.389 281.367 94.1323 275.11 91.883 268.86C90.6354 265.445 89.4027 262.042 88.1852 258.653Z" fill="#FF6853"/>
<path d="M118.28 295.57C117.956 295.514 117.657 295.361 117.423 295.131C117.249 294.843 117.175 294.505 117.214 294.17C117.485 283.326 122.836 273.275 126.327 263.079C126.797 261.844 127.134 260.562 127.33 259.255C127.487 257.645 127.423 256.021 127.142 254.429C124.905 239.468 115.96 226.472 110.797 212.242C110.465 211.494 110.322 210.677 110.379 209.86C110.56 209.263 110.859 208.708 111.257 208.227C111.656 207.746 112.146 207.35 112.699 207.06C115.383 205.181 118.247 203.571 121.248 202.255C124.09 200.98 127.518 200.04 130.172 201.816C132.024 203.506 133.186 205.82 133.433 208.314C136.192 220.851 138.972 233.388 140.874 245.924C141.211 247.546 141.268 249.214 141.041 250.855C140.551 254.376 139.853 257.865 138.951 261.303C133.057 273.672 131.782 281.383 126.41 293.982C125.909 295.194 125.553 296.865 124.09 297.095C122.627 297.325 119.826 295.988 118.28 295.57Z" fill="#FF6853"/>
<path d="M132.973 200.458C133.119 200.458 133.161 200.458 132.973 200.27C132.212 199.053 131.514 197.798 130.883 196.509C130.336 188.415 129.254 180.367 127.643 172.417C125.553 162.618 121.164 153.612 118.509 143.896C117.736 141.054 116.419 141.054 112.803 141.201C112.104 141.161 111.403 141.203 110.713 141.326C108.372 141.201 109.167 141.618 107.265 141.033C106.795 140.886 106.299 140.843 105.811 140.909C105.323 140.975 104.856 141.148 104.442 141.416C104.029 141.683 103.68 142.038 103.42 142.456C103.16 142.874 102.995 143.345 102.938 143.833C102.938 145.714 102.938 147.594 102.833 149.475C99.14 164.744 96.9282 180.334 96.2287 196.028C96.0197 196.822 95.8107 197.616 95.5808 198.431C95.0719 199.595 94.734 200.827 94.5775 202.087C94.568 202.192 94.568 202.297 94.5775 202.401C94.4987 202.738 94.4913 203.088 94.5558 203.429C94.6203 203.769 94.7552 204.093 94.952 204.378C95.1488 204.663 95.4031 204.904 95.6986 205.086C95.994 205.267 96.3241 205.384 96.6676 205.431C108.18 208.994 120.57 208.47 131.74 203.947L132.158 203.759H132.451L132.952 203.404C133.338 203.099 133.592 202.658 133.663 202.171C133.687 201.852 133.637 201.531 133.518 201.234C133.398 200.937 133.212 200.671 132.973 200.458Z" fill="#EBEFEB"/>
<path d="M121.498 140.114C124.863 135.935 127.978 140.553 129.169 144.523C134.039 160.549 135.586 177.766 137.091 194.774C137.341 197.512 137.571 200.228 137.822 202.965C138.686 212.786 139.55 222.599 140.414 232.406C140.414 232.991 130.737 235.456 129.963 235.707C124.889 237.05 119.616 237.474 114.392 236.961C107.912 236.522 101.454 235.394 94.9536 235.456C92.1575 235.715 89.3382 235.546 86.5931 234.955C87.5187 229.184 88.0147 223.352 88.0771 217.508C88.6833 203.425 90.0418 189.384 91.4213 175.343C92.1738 167.465 92.6336 159.421 93.616 151.627C94.1385 147.344 95.8733 139.884 99.5728 137.983C103.272 136.082 105.404 141.222 108.581 142.559C110.39 143.457 112.409 143.848 114.422 143.69C116.435 143.532 118.368 142.83 120.014 141.66C120.557 141.193 121.054 140.676 121.498 140.114Z" fill="#000F97"/>
<path d="M114.789 130.085C114.789 130.085 103.941 124.819 103.858 114.372C103.774 103.925 105.279 105.408 109.313 105.199C113.347 104.99 112.469 107.498 117.067 108.271C121.666 109.044 129.754 107.748 128.27 113.912C126.786 120.076 122 130.315 120.182 130.085C118.363 129.855 115.771 132.362 114.789 130.085Z" fill="#FFD316"/>
<defs>
<filter id="filter0_d_202_1780" x="45.5" y="40.5" width="412.457" height="273" filterUnits="userSpaceOnUse" color-interpolation-filters="sRGB">
<feFlood flood-opacity="0" result="BackgroundImageFix"/>
<feColorMatrix in="SourceAlpha" type="matrix" values="0 0 0 0 0 0 0 0 0 0 0 0 0 0 0 0 0 0 127 0" result="hardAlpha"/>
<feOffset dx="4" dy="4"/>
<feComposite in2="hardAlpha" operator="out"/>
<feColorMatrix type="matrix" values="0 0 0 0 1 0 0 0 0 0.407843 0 0 0 0 0.32549 0 0 0 1 0"/>
<feBlend mode="normal" in2="BackgroundImageFix" result="effect1_dropShadow_202_1780"/>
<feBlend mode="normal" in="SourceGraphic" in2="effect1_dropShadow_202_1780" result="shape"/>
</filter>
</defs>
</svg>
