<svg width="500" height="350" viewBox="0 0 500 350" fill="none" xmlns="http://www.w3.org/2000/svg">
<rect width="500" height="350" fill="white"/>
<g filter="url(#filter0_d_202_1819)">
<path d="M372.96 54H78.5901C72.2554 54 67.1201 59.1353 67.1201 65.47V260.84C67.1201 267.175 72.2554 272.31 78.5901 272.31H372.96C379.295 272.31 384.43 267.175 384.43 260.84V65.47C384.43 59.1353 379.295 54 372.96 54Z" fill="white" stroke="#000F97" stroke-width="3" stroke-miterlimit="10"/>
<path d="M373.42 59.05H78.14C74.76 59.05 72.02 61.7901 72.02 65.17V261.15C72.02 264.53 74.76 267.27 78.14 267.27H373.42C376.8 267.27 379.54 264.53 379.54 261.15V65.17C379.54 61.7901 376.8 59.05 373.42 59.05Z" fill="white" stroke="#000F97" stroke-width="3" stroke-miterlimit="10"/>
<path d="M476.43 76.54H414.6C407.393 76.54 401.55 82.3827 401.55 89.59V236.73C401.55 243.937 407.393 249.78 414.6 249.78H476.43C483.637 249.78 489.48 243.937 489.48 236.73V89.59C489.48 82.3827 483.637 76.54 476.43 76.54Z" fill="white" stroke="#000F97" stroke-width="3" stroke-miterlimit="10"/>
<path d="M50 270.31H401.55V279.09C401.539 280.529 400.961 281.905 399.94 282.918C398.919 283.931 397.539 284.5 396.1 284.5H55.45C54.0115 284.5 52.6313 283.931 51.6103 282.918C50.5894 281.905 50.0106 280.529 50 279.09V270.31Z" fill="white" stroke="#000F97" stroke-width="3" stroke-miterlimit="10"/>
<path d="M475.83 78.8799H465.56C464.75 78.8789 463.952 79.0805 463.239 79.4665C462.527 79.8525 461.922 80.4106 461.48 81.0899L460.78 82.1799C460.338 82.8592 459.733 83.4173 459.021 83.8033C458.308 84.1892 457.511 84.3909 456.7 84.3899H434.33C433.521 84.3901 432.725 84.1881 432.014 83.8021C431.303 83.4161 430.7 82.8584 430.26 82.1799L429.55 81.0899C429.109 80.412 428.506 79.8548 427.795 79.4689C427.084 79.083 426.289 78.8805 425.48 78.8799H415.2C412.222 78.8799 409.365 80.0631 407.259 82.1691C405.153 84.2751 403.97 87.1315 403.97 90.1099V236.21C403.965 237.688 404.252 239.153 404.814 240.52C405.376 241.887 406.202 243.13 407.245 244.177C408.289 245.224 409.528 246.054 410.893 246.621C412.258 247.188 413.722 247.48 415.2 247.48H475.83C478.809 247.48 481.665 246.297 483.771 244.191C485.877 242.085 487.06 239.228 487.06 236.25V90.1099C487.06 87.1315 485.877 84.2751 483.771 82.1691C481.665 80.0631 478.809 78.8799 475.83 78.8799Z" fill="white" stroke="#000F97" stroke-width="3" stroke-miterlimit="10"/>
<path d="M379.54 78.8799H72.02V220.64H379.54V78.8799Z" fill="white" stroke="#000F97" stroke-width="3" stroke-miterlimit="10"/>
<path d="M88.3599 63.2899L84.9898 66.7699C84.8733 66.8919 84.7283 66.9825 84.5674 67.0332C84.4066 67.0839 84.2352 67.0931 84.0699 67.0599L79.2798 66.0599C79.1058 66.0245 78.9255 66.036 78.7574 66.0933C78.5893 66.1507 78.4399 66.2517 78.3238 66.3862C78.2077 66.5206 78.1295 66.6835 78.0972 66.8581C78.0649 67.0328 78.0798 67.2129 78.1402 67.3799L80.3702 73.3799C80.44 73.5732 80.5677 73.7402 80.7359 73.8583C80.9041 73.9764 81.1046 74.0398 81.3101 74.0399H96.8599C97.0637 74.0378 97.262 73.9734 97.4283 73.8555C97.5945 73.7375 97.7208 73.5716 97.7901 73.3799L100.03 67.3799C100.09 67.2129 100.105 67.0328 100.073 66.8581C100.041 66.6835 99.9623 66.5206 99.8462 66.3862C99.7301 66.2517 99.5807 66.1507 99.4126 66.0933C99.2445 66.036 99.0642 66.0245 98.8902 66.0599L94.0899 67.0599C93.9245 67.0931 93.7537 67.0839 93.5928 67.0332C93.432 66.9825 93.2864 66.8919 93.17 66.7699L89.7998 63.2899C89.7066 63.1931 89.5949 63.1161 89.4712 63.0636C89.3475 63.011 89.2145 62.9839 89.0801 62.9839C88.9457 62.9839 88.8127 63.011 88.689 63.0636C88.5653 63.1161 88.4532 63.1931 88.3599 63.2899Z" fill="#FF6853"/>
<path d="M304.43 134.079L292.486 146.355C292.074 146.786 291.56 147.105 290.99 147.284C290.42 147.463 289.812 147.495 289.226 147.378L272.25 143.851C271.633 143.726 270.994 143.766 270.399 143.969C269.803 144.171 269.273 144.527 268.862 145.001C268.45 145.476 268.173 146.05 268.059 146.666C267.945 147.282 267.997 147.918 268.211 148.507L276.114 169.672C276.362 170.354 276.814 170.943 277.41 171.359C278.007 171.776 278.717 172 279.446 172H334.554C335.277 171.992 335.98 171.766 336.569 171.349C337.158 170.933 337.605 170.348 337.851 169.672L345.789 148.507C346.003 147.918 346.055 147.282 345.941 146.666C345.827 146.05 345.55 145.476 345.138 145.001C344.727 144.527 344.197 144.171 343.601 143.969C343.006 143.766 342.367 143.726 341.75 143.851L324.737 147.378C324.151 147.495 323.546 147.463 322.976 147.284C322.406 147.105 321.89 146.786 321.477 146.355L309.533 134.079C309.203 133.738 308.807 133.467 308.369 133.281C307.93 133.096 307.459 133 306.983 133C306.506 133 306.035 133.096 305.597 133.281C305.158 133.467 304.761 133.738 304.43 134.079Z" fill="#FF6853"/>
<path d="M418.33 87.2L415.43 90.2C415.33 90.3039 415.204 90.3804 415.066 90.4224C414.927 90.4644 414.781 90.4704 414.64 90.44L410.53 89.59C410.378 89.5547 410.22 89.5613 410.072 89.6089C409.923 89.6565 409.791 89.7435 409.688 89.8605C409.586 89.9775 409.516 90.1202 409.489 90.2733C409.461 90.4265 409.475 90.5843 409.53 90.73L411.44 95.88C411.501 96.0451 411.612 96.1873 411.757 96.2874C411.901 96.3876 412.074 96.4408 412.25 96.44H425.6C425.775 96.4417 425.946 96.3886 426.09 96.2882C426.233 96.1878 426.341 96.0451 426.4 95.88L428.32 90.73C428.374 90.5843 428.389 90.4265 428.361 90.2733C428.333 90.1202 428.264 89.9775 428.161 89.8605C428.059 89.7435 427.926 89.6565 427.778 89.6089C427.63 89.5613 427.471 89.5547 427.32 89.59L423.21 90.44C423.067 90.4694 422.919 90.4629 422.78 90.421C422.64 90.3791 422.513 90.3032 422.41 90.2L419.52 87.2C419.361 87.0443 419.147 86.957 418.925 86.957C418.702 86.957 418.489 87.0443 418.33 87.2Z" fill="#FF6853"/>
<path d="M252.02 66.4102H223.1V71.4602H252.02V66.4102Z" fill="white" stroke="#000F97" stroke-width="3" stroke-miterlimit="10"/>
<path d="M290.53 66.4102H261.61V71.4602H290.53V66.4102Z" fill="white" stroke="#000F97" stroke-width="3" stroke-miterlimit="10"/>
<path d="M329.03 66.4102H300.11V71.4602H329.03V66.4102Z" fill="white" stroke="#000F97" stroke-width="3" stroke-miterlimit="10"/>
<path d="M367.53 66.4102H338.61V71.4602H367.53V66.4102Z" fill="white" stroke="#000F97" stroke-width="3" stroke-miterlimit="10"/>
<path d="M479 85H465V88H479V85Z" fill="#000F97"/>
<path d="M479 90H465V93H479V90Z" fill="#000F97"/>
<path d="M479 95H465V98H479V95Z" fill="#000F97"/>
<path d="M487.06 104.58H404.38V170.29H487.06V104.58Z" fill="white" stroke="#000F97" stroke-width="3" stroke-miterlimit="10"/>
<path d="M248.16 112.2H104.4V127.74H248.16V112.2Z" fill="white" stroke="#000F97" stroke-width="3" stroke-miterlimit="10"/>
<path d="M203.18 141.99H104.4V157.53H203.18V141.99Z" fill="white" stroke="#000F97" stroke-width="3" stroke-miterlimit="10"/>
<path d="M223.62 171.77H104.4V187.31H223.62V171.77Z" fill="white" stroke="#000F97" stroke-width="3" stroke-miterlimit="10"/>
<path d="M475.85 119.75H411.8V126.67H475.85V119.75Z" fill="white" stroke="#000F97" stroke-width="3" stroke-miterlimit="10"/>
<path d="M455.81 133.02H411.8V139.94H455.81V133.02Z" fill="white" stroke="#000F97" stroke-width="3" stroke-miterlimit="10"/>
<path d="M464.92 146.29H411.8V153.21H464.92V146.29Z" fill="white" stroke="#000F97" stroke-width="3" stroke-miterlimit="10"/>
</g>
<path d="M39.8224 128.022C37.3197 127.142 38.6869 123.204 44.457 115.883C47.1219 112.455 51.7101 115.744 54.8616 117.111L69.4142 123.482C74.2699 125.8 79.3371 127.646 84.5461 128.995C90.5684 130.368 96.8523 130.064 102.714 128.115C103.469 127.747 104.328 127.649 105.147 127.837C105.671 128.094 106.123 128.479 106.459 128.957C106.795 129.435 107.005 129.99 107.07 130.57C107.214 131.443 107.065 132.34 106.645 133.119C106.226 133.899 105.561 134.517 104.753 134.879C91.243 141.829 54.7921 133.281 39.8224 128.022Z" fill="#FFD316"/>
<path d="M106.213 127.86C107.116 127.304 107.835 126.285 108.901 126.262C109.503 126.262 110.129 126.609 110.731 126.447C111.334 126.285 111.45 126.053 111.844 125.937C112.093 125.879 112.354 125.885 112.601 125.954C112.848 126.022 113.074 126.152 113.257 126.331C113.636 126.694 113.929 127.137 114.115 127.628C114.347 128.102 114.435 128.634 114.37 129.157C114.248 129.629 113.98 130.051 113.605 130.362C112.795 131.052 111.822 131.523 110.778 131.729C109.723 131.929 108.653 132.038 107.58 132.053C107.295 132.077 107.008 132.029 106.746 131.914C106.549 131.768 106.39 131.578 106.282 131.358C105.928 130.693 105.663 129.984 105.494 129.25C105.286 128.3 105.471 128.323 106.213 127.86Z" fill="#FFA0A0"/>
<path d="M59.9595 218.229C60.8364 222.142 61.2101 226.151 61.0718 230.159C60.7472 233.043 60.1181 235.885 59.1948 238.637C55.1605 251.912 50.2526 264.905 44.5032 277.532C44.25 278.308 43.7646 278.987 43.1128 279.478C41.6993 280.358 39.7296 279.131 39.2198 277.532C38.8808 275.887 39.0339 274.179 39.6601 272.621C42.997 261.154 46.3374 249.456 48.6779 237.734C49.249 235.263 48.5673 232.74 48.628 230.205C48.4649 227.261 47.9276 224.35 47.029 221.541C44.4105 211.997 41.4444 202.522 38.177 193.187C37.1806 190.268 36.1609 186.955 37.644 184.245C39.1271 181.534 42.5103 180.631 45.5923 180.307C47.5021 180.121 49.4227 180.075 51.3392 180.168C54.8615 180.33 55.8347 181.558 55.9738 184.801C55.9738 188.577 56.5763 192.399 56.9702 196.152C57.6886 203.495 58.6618 210.885 59.9595 218.229Z" fill="#FFA0A0"/>
<path d="M32.8474 252.977C32.4766 262.243 32.1058 271.509 31.2716 280.59L26.4517 281.192C25.8492 261.872 25.2003 242.506 22.744 223.279C21.4695 213.341 19.7083 203.472 18.7583 193.511C18.3875 189.642 18.3643 185.172 21.3073 182.647C22.6361 181.59 24.2495 180.953 25.9419 180.816C29.0702 180.446 34.9329 181.72 35.6976 185.45C35.7877 187.72 35.6479 189.994 35.2805 192.237L34.9329 200.53C34.5003 211.696 34.0446 222.854 33.5657 234.004L32.8474 252.977Z" fill="#FFA0A0"/>
<path d="M30.7154 295.509C29.0862 295.507 27.4674 295.249 25.9186 294.744C25.5302 294.67 25.1788 294.466 24.9222 294.165C24.8187 293.924 24.7712 293.663 24.7832 293.401V292.381C24.7494 292.292 24.7494 292.193 24.7832 292.103C24.7832 291.987 25.0381 292.103 25.1771 292.103C27.6444 292.724 30.2031 292.897 32.7314 292.613C33.3005 292.59 33.8528 292.414 34.3304 292.103C34.3304 292.103 34.5389 291.941 34.6548 292.103C34.7707 292.265 34.7939 292.242 34.817 292.312C35.0443 292.812 35.1169 293.369 35.0256 293.91C34.8402 294.304 34.1682 294.652 33.7974 294.86C32.8363 295.318 31.7797 295.54 30.7154 295.509Z" fill="#F7F7F7"/>
<path d="M32.4534 278.714C32.6619 277.996 32.801 277.092 32.2448 276.606C31.8825 276.363 31.4525 276.241 31.0167 276.258C29.6234 276.238 28.2344 276.418 26.8919 276.791C26.683 276.826 26.4894 276.923 26.3357 277.069C26.2017 277.275 26.1368 277.518 26.1504 277.764C26.0573 279.391 26.1506 281.023 26.4284 282.629C26.4589 282.863 26.5295 283.09 26.637 283.3C26.7958 283.476 26.9886 283.618 27.2036 283.718C27.4186 283.817 27.6515 283.872 27.8883 283.88C29.0238 284.042 30.3678 284.389 31.1093 283.416C31.7995 281.928 32.253 280.342 32.4534 278.714Z" fill="#2AD8E3"/>
<path d="M33.4268 287.516C32.899 286.957 32.2896 286.481 31.6193 286.103C30.8336 285.572 29.9234 285.252 28.9776 285.177C28.3096 285.21 27.6601 285.407 27.0863 285.751C26.5125 286.094 26.032 286.573 25.687 287.146C25.0229 288.314 24.6493 289.625 24.5979 290.968C24.5267 291.457 24.5991 291.956 24.8064 292.404C25.0059 292.686 25.2609 292.924 25.5558 293.103C25.8508 293.282 26.1793 293.399 26.5213 293.447C29.1601 294.067 31.9297 293.798 34.4 292.682C36.0685 291.941 34.2842 288.513 33.4268 287.516Z" fill="#2AD8E3"/>
<path d="M25.8027 281.378C25.4657 282.02 25.2982 282.738 25.3161 283.463L24.7831 291.547C24.7478 291.653 24.7478 291.767 24.7831 291.872C24.7831 291.988 25.038 291.988 25.177 291.988C27.4943 291.988 29.8116 291.825 32.1289 291.686C32.7546 291.686 33.4961 291.524 33.7278 290.945C33.8392 290.543 33.7979 290.114 33.6119 289.741C32.9631 287.748 32.8009 285.594 32.1289 283.602C31.8827 282.724 31.4115 281.925 30.7617 281.285C29.8348 280.359 26.7064 279.988 25.8027 281.378Z" fill="#2AD8E3"/>
<path d="M50.4124 292.15C50.0322 292.566 49.5132 292.83 48.9525 292.891C48.5668 292.888 48.1838 292.825 47.8171 292.706C46.6584 292.381 45.4998 292.057 44.4107 291.64C41.1328 290.267 38.0848 288.4 35.3732 286.104C35.1695 285.972 34.9893 285.808 34.8402 285.617C34.681 285.297 34.5981 284.944 34.5981 284.586C34.5981 284.228 34.681 283.876 34.8402 283.555C34.8904 283.374 35.0059 283.217 35.1647 283.115C35.2524 283.077 35.347 283.057 35.4427 283.057C35.5384 283.057 35.6331 283.077 35.7208 283.115C36.5606 283.644 37.3379 284.265 38.0381 284.968C41.3672 287.426 45.1343 289.226 49.1379 290.273C49.4855 290.389 50.7137 290.505 50.9222 290.737C51.1308 290.968 50.6673 291.756 50.4124 292.15Z" fill="#F7F7F7"/>
<path d="M43.3911 280.289C44.2945 279.062 45.13 277.786 45.8937 276.467C45.8937 276.351 46.0559 276.189 45.8937 276.073C45.8755 276.016 45.8454 275.964 45.8054 275.92C45.7654 275.876 45.7165 275.842 45.662 275.818C44.7761 275.063 43.7038 274.559 42.5568 274.359C42.1795 274.318 41.8003 274.417 41.4909 274.637C41.2319 274.904 41.0411 275.23 40.9347 275.586C40.4819 276.714 40.1856 277.899 40.0542 279.107C40.011 279.296 40.0116 279.493 40.0558 279.681C40.0999 279.87 40.1866 280.046 40.3091 280.196C40.4264 280.295 40.5596 280.373 40.703 280.428C41.1903 280.764 41.7309 281.014 42.3019 281.169C42.9971 281.192 43.0203 280.822 43.3911 280.289Z" fill="#2AD8E3"/>
<path d="M39.2429 276.073C39.1551 275.924 39.0264 275.803 38.8722 275.725C38.7079 275.672 38.53 275.677 38.3692 275.74C38.2084 275.804 38.0748 275.921 37.9916 276.073C37.8207 276.369 37.6957 276.689 37.6208 277.023C37.1671 278.156 36.5756 279.23 35.8597 280.219C35.5034 280.72 35.2573 281.291 35.1375 281.894C35.0176 282.497 35.0269 283.118 35.1645 283.717C35.7176 284.807 36.6362 285.668 37.7598 286.15L42.3944 288.86C43.7279 289.671 45.1317 290.362 46.5887 290.922C47.5713 291.292 48.625 291.434 49.6707 291.339C50.1963 291.294 50.7055 291.133 51.1621 290.869C51.6187 290.605 52.0114 290.243 52.3124 289.81C52.8227 288.869 53.01 287.787 52.8454 286.729C52.8376 285.703 52.5228 284.702 51.9417 283.856C51.5257 283.407 51.0248 283.045 50.4679 282.791C49.9111 282.536 49.3093 282.394 48.6974 282.374C47.4924 282.374 46.2643 282.374 45.0361 282.374C44.7489 282.39 44.4623 282.334 44.2019 282.212C43.9759 282.054 43.7797 281.858 43.6226 281.632C41.997 279.916 40.5311 278.055 39.2429 276.073Z" fill="#2AD8E3"/>
<path d="M35.0719 180.237C36.018 178.867 37.2451 177.715 38.6715 176.856C40.0979 175.997 41.6909 175.452 43.3446 175.257C46.6525 174.917 49.9937 175.112 53.2394 175.836C54.9078 176.137 57.2715 176.6 58.0362 178.361C58.3627 180.007 58.4563 181.692 58.3143 183.364C58.989 188.301 60.0032 193.185 61.3499 197.982C62.0219 200.762 62.6708 203.565 63.0879 206.391C63.6562 210.955 64.8886 220.554 64.7831 225.151C64.7831 233.861 64.7831 232.939 60.4925 245.958C58.1752 252.189 52.7296 265.301 48.906 270.721C50.2964 271.509 50.7367 272.343 49.4158 273.965C49.1889 274.246 48.9079 274.479 48.5896 274.65C48.2712 274.821 47.9219 274.927 47.562 274.961C46.9883 274.998 46.4129 274.92 45.8704 274.729C43.2483 274.045 40.7018 273.098 38.2697 271.903C37.9685 271.741 37.6209 271.579 37.5282 271.301C37.4699 271.128 37.4699 270.941 37.5282 270.768C37.8282 269.909 38.3014 269.12 38.9185 268.451C39.0104 268.322 39.1399 268.225 39.2893 268.173C39.4717 268.126 39.6631 268.126 39.8455 268.173H40.6797C41.9079 258.907 46.7349 248.158 47.9631 238.939C48.2209 237.314 48.3526 235.672 48.357 234.028C48.1053 230.66 45.3233 221.353 44.0398 218.228L35.8365 195.248C34.8642 192.826 34.1723 190.3 33.7742 187.72C33.3533 185.15 33.8105 182.515 35.0719 180.237Z" fill="#000F97"/>
<path d="M18.2717 208.545C16.4802 199.069 15.6187 189.441 15.6995 179.797C15.6951 179.21 15.7731 178.625 15.9312 178.06C16.2027 177.35 16.6587 176.727 17.2521 176.253C18.7997 175.055 20.7527 174.507 22.6977 174.724C24.6179 174.937 26.5026 175.397 28.3056 176.09L34.794 178.268C36.673 178.579 38.4793 179.23 40.1237 180.191C42.0471 181.998 40.3787 186.909 40.286 189.248C39.9615 197.681 41.2129 206.136 40.286 214.545C39.6139 220.313 38.9687 225.943 38.204 231.711C37.9259 234.027 37.8332 238.483 37.6014 240.869C37.4392 242.583 37.2075 244.297 36.9758 245.989C36.3733 250.622 34.4464 266.505 33.8439 271C34.3073 271 34.5159 271.254 34.5623 271.973C34.6086 272.691 34.5623 273.826 33.7976 274.173C33.5547 274.273 33.2955 274.328 33.0328 274.335L27.0542 274.752C26.429 274.787 25.8024 274.787 25.1772 274.752C25.0182 274.798 24.8496 274.798 24.6906 274.752C24.5484 274.618 24.4582 274.437 24.4357 274.243C24.2268 273.414 24.2268 272.546 24.4357 271.718C24.4569 271.553 24.53 271.399 24.6443 271.277C24.7113 271.221 24.7907 271.182 24.876 271.162C24.5606 270.428 24.38 269.643 24.343 268.845C22.8368 253.185 20.7049 224.113 18.2717 208.545Z" fill="#000F97"/>
<path d="M33.6585 103.722C32.6174 102.43 31.8311 100.952 31.3412 99.3666C31.0631 98.4863 31.04 97.5597 30.7851 96.7026C30.4587 95.8076 30.256 94.8724 30.1826 93.9227C30.2178 92.9321 30.1712 91.9404 30.0435 90.9575C29.8813 90.054 29.5337 89.2201 29.3252 88.3398C29.0309 87.0639 29.1032 85.7309 29.5337 84.4943C29.7419 83.854 30.0383 83.2459 30.4143 82.6874C30.7619 82.1546 31.3412 81.7608 31.6656 81.228C31.9119 80.7267 32.121 80.2079 32.2913 79.6759C32.5684 79.0953 32.8779 78.5307 33.2182 77.9848C33.8776 76.8704 34.6545 75.8297 35.5355 74.8806C36.7682 73.4536 38.3307 72.349 40.0874 71.6627C41.844 70.9764 43.7417 70.7292 45.6157 70.9425C53.1237 72.1935 53.4018 82.0851 53.3786 88.6641C53.599 93.886 51.8733 99.0039 48.5355 103.027C43.5533 108.586 37.2735 108.239 33.6585 103.722Z" fill="#FFA0A0"/>
<path d="M48.3731 67.4444C50.2037 68.1857 52.5442 66.8884 54.2358 67.954C54.7657 68.3832 55.1686 68.9484 55.4013 69.5892C55.634 70.23 55.6877 70.922 55.5567 71.591C55.2864 72.9233 55.0853 74.2687 54.9542 75.6218C55.1287 76.5246 55.1287 77.4525 54.9542 78.3553C54.6445 78.9346 54.1837 79.4192 53.6206 79.7578C53.0576 80.0963 52.4134 80.2761 51.7563 80.2781C50.4471 80.2622 49.1384 80.3396 47.8401 80.5098C43.2055 81.5754 41.12 88.4555 35.7207 86.9034C35.2919 86.7224 34.8871 86.489 34.5157 86.2084C33.9553 85.91 33.3113 85.8072 32.6858 85.9163C32.0603 86.0254 31.4891 86.3402 31.0629 86.8107C30.507 87.5413 30.2206 88.4415 30.2519 89.3589C30.2059 89.8444 30.2941 90.3332 30.5068 90.772C30.666 91.0317 30.8748 91.2574 31.1214 91.4362C31.3679 91.6151 31.6473 91.7436 31.9435 91.8145C32.6387 92.0229 33.3571 91.8145 33.7278 92.3241C34.0986 92.8337 33.612 94.1542 33.4961 94.6406C33.1485 96.4012 32.7777 98.185 32.4301 99.9456C28.5834 95.7758 24.6209 91.4207 22.9061 86.0463C21.1913 80.6719 22.3963 73.9076 27.1931 70.8497C28.8394 69.9037 30.6213 69.2161 32.4765 68.8111C36.2305 67.7919 39.9922 66.9039 43.7617 66.1471C44.5217 65.951 45.319 65.951 46.079 66.1471C46.8437 66.3324 47.4925 67.0969 48.3731 67.4444Z" fill="#FF6853"/>
<path d="M39.7528 109.768C40.7956 110.138 41.9542 109.953 43.0433 110.254C44.0126 110.675 44.8732 111.31 45.5599 112.113C46.2465 112.916 46.741 113.865 47.0059 114.887C48.0248 117.751 48.8 120.696 49.3232 123.69C49.9025 126.655 50.505 129.62 51.1075 132.609C51.71 135.597 52.382 139.002 52.7296 142.269C53.0772 145.535 53.1467 148.269 53.3553 151.28C53.7724 157.465 57.3178 163.488 58.685 169.558C59.3171 171.821 59.6521 174.157 59.6815 176.507C59.705 177.134 59.5263 177.751 59.1717 178.268C58.846 178.61 58.451 178.879 58.013 179.056C53.9212 180.857 49.6486 182.216 45.2679 183.11C42.1181 183.608 38.9174 183.701 35.7439 183.388C32.8009 183.202 25.3393 182.947 22.4195 182.646C21.0313 182.576 19.6699 182.238 18.4106 181.65C16.3966 180.265 14.994 178.158 14.4944 175.766C12.5478 169.257 15.1432 161.867 16.186 155.172C17.2287 148.477 17.5764 141.69 19.2448 135.111C20.5935 128.851 22.4138 122.702 24.6904 116.717C25.8805 113.805 27.438 111.057 29.325 108.54C32.0594 104.88 36.4854 108.563 39.7528 109.768Z" fill="#2AD8E3"/>
<path d="M39.6138 136.941C38.7255 152.041 38.7642 167.181 39.7297 182.276C39.8915 186.227 40.3954 190.157 41.2359 194.021C32.3514 192.218 23.3051 191.333 14.2395 191.38C13.7032 191.432 13.1623 191.352 12.6637 191.148C11.4588 190.569 11.227 188.832 11.1807 187.418C10.3147 167.065 12.5653 146.699 17.8545 127.026C18.9977 122.903 20.2876 118.841 21.7244 114.841C22.3812 112.616 23.4502 110.533 24.8759 108.702C28.7689 104.231 37.0648 104.694 38.7796 111.019C41.0969 119.219 40.1236 128.346 39.6138 136.941Z" fill="#FFD316"/>
<path d="M42.7652 114.146C43.316 117.537 44.0901 120.888 45.0825 124.177C46.3802 127.953 48.2341 131.497 49.1841 135.389C50.9916 143.033 49.0451 151.211 50.505 158.925C51.2002 162.516 52.6137 165.875 53.4016 169.488C54.792 175.813 54.1895 182.646 56.5068 188.646H61.906C61.0486 174.863 56.4836 161.658 54.5139 148.014C52.915 136.941 52.9613 125.381 48.8829 115.073C48.2712 113.263 47.293 111.599 46.0094 110.185C45.152 109.351 42.8116 107.613 41.8615 108.887C41.3517 109.698 42.5799 113.196 42.7652 114.146Z" fill="#FFD316"/>
<rect x="30.7634" y="90.854" width="9" height="18.5983" rx="2" transform="rotate(-34.733 30.7634 90.854)" fill="#000F97"/>
<path d="M22.9756 108.193C23.6324 107.604 24.4435 107.215 25.3137 107.072C26.1839 106.928 27.0771 107.036 27.8882 107.382C29.6287 108.742 30.8545 110.654 31.3642 112.803C34.3148 120.926 37.2732 129.042 40.2394 137.149C41.6594 140.311 42.3105 143.765 42.1395 147.226C41.6761 150.678 38.8027 153.898 36.0683 152.786C34.5804 151.942 33.4026 150.643 32.7082 149.08C27.497 140.06 23.3078 130.488 20.218 120.54C18.6654 115.582 19.2679 111.204 22.9756 108.193Z" fill="#FFD316"/>
<path d="M41.2591 152.392C43.0787 150.873 44.295 148.753 44.6887 146.416C45.1334 143.971 45.3121 141.486 45.2216 139.003C45.2216 136.292 45.2216 133.582 45.2216 130.895C45.363 125.605 45.0607 120.312 44.3179 115.073C44.2928 114.92 44.246 114.772 44.1789 114.632C44.0868 114.522 43.9686 114.437 43.835 114.384C43.7013 114.332 43.5566 114.313 43.4141 114.331L38.5247 114.123C39.6138 114.123 37.3429 131.566 37.1111 133.119C36.3232 138.632 34.9329 145.558 35.9293 151.141C36.4159 153.967 39.5675 153.597 41.2591 152.392Z" fill="#FFD316"/>
<path d="M41.4908 113.335C41.1339 113.365 40.7747 113.321 40.4357 113.205C40.0967 113.09 39.7853 112.905 39.5211 112.663C39.288 112.368 39.1149 112.029 39.0113 111.667C38.4052 109.954 37.9706 108.185 37.7137 106.386C37.6436 106.089 37.6436 105.779 37.7137 105.482C37.7596 105.336 37.8526 105.209 37.9784 105.121C38.1041 105.033 38.2555 104.989 38.4088 104.996C38.6869 104.996 38.965 105.297 39.1967 105.135C39.2855 105.057 39.3431 104.95 39.3589 104.834C39.6138 104 39.8687 103.166 40.1005 102.308C40.1704 101.864 40.3321 101.438 40.5755 101.059C40.8188 100.68 41.1385 100.356 41.514 100.108C42.0604 99.8952 42.6588 99.8547 43.2288 99.9919C43.9578 100.089 44.6551 100.35 45.268 100.756C45.8329 101.241 46.2562 101.869 46.4928 102.575C46.7294 103.281 46.7706 104.037 46.612 104.764C46.2756 106.217 45.7863 107.63 45.1521 108.98C44.8923 110.282 44.5042 111.554 43.9935 112.779C43.5069 113.474 42.2324 113.312 41.4908 113.335Z" fill="#FFA0A0"/>
<defs>
<filter id="filter0_d_202_1819" x="48.5" y="52.5" width="446.48" height="237.5" filterUnits="userSpaceOnUse" color-interpolation-filters="sRGB">
<feFlood flood-opacity="0" result="BackgroundImageFix"/>
<feColorMatrix in="SourceAlpha" type="matrix" values="0 0 0 0 0 0 0 0 0 0 0 0 0 0 0 0 0 0 127 0" result="hardAlpha"/>
<feOffset dx="4" dy="4"/>
<feComposite in2="hardAlpha" operator="out"/>
<feColorMatrix type="matrix" values="0 0 0 0 1 0 0 0 0 0.407843 0 0 0 0 0.32549 0 0 0 1 0"/>
<feBlend mode="normal" in2="BackgroundImageFix" result="effect1_dropShadow_202_1819"/>
<feBlend mode="normal" in="SourceGraphic" in2="effect1_dropShadow_202_1819" result="shape"/>
</filter>
</defs>
</svg>
