<svg width="48" height="50" viewBox="0 0 48 50" fill="none" xmlns="http://www.w3.org/2000/svg">
<g filter="url(#filter0_d_14_304)">
<mask id="mask0_14_304" style="mask-type:alpha" maskUnits="userSpaceOnUse" x="0" y="2" width="48" height="48">
<rect y="2" width="48" height="48" fill="#D9D9D9"/>
</mask>
<g mask="url(#mask0_14_304)">
<path d="M24.0202 47.25C21.0578 47.25 18.2891 46.6986 15.714 45.5958C13.1388 44.493 10.8858 42.9762 8.9548 41.0452C7.02383 39.1142 5.50697 36.8635 4.4042 34.2929C3.3014 31.7224 2.75 28.956 2.75 25.9936C2.75 23.0312 3.30305 20.2585 4.40915 17.6756C5.51525 15.0927 7.02627 12.8432 8.9422 10.9272C10.8581 9.01112 13.1111 7.49424 15.7012 6.37654C18.2912 5.25884 21.0575 4.69999 24 4.69999C25.3599 4.69999 26.6754 4.84039 27.9464 5.12119C29.2175 5.40202 30.452 5.77829 31.65 6.24999V11.3C30.4833 10.7333 29.2667 10.2833 28 9.94999C26.7333 9.61665 25.4079 9.44999 24.0237 9.44999C19.4013 9.44999 15.4835 11.0471 12.2701 14.2413C9.0567 17.4355 7.45 21.344 7.45 25.967C7.45 30.59 9.05795 34.5095 12.2739 37.7257C15.4898 40.9419 19.3981 42.55 23.9988 42.55C28.5996 42.55 32.5083 40.9463 35.725 37.739C38.9417 34.5316 40.55 30.6186 40.55 26C40.55 25.0159 40.4667 24.0449 40.3 23.0869C40.1333 22.129 39.8833 21.2167 39.55 20.35H44.45C44.6833 21.2639 44.8833 22.1832 45.05 23.108C45.2167 24.0328 45.3 24.9968 45.3 26C45.3 28.9425 44.7411 31.7088 43.6235 34.2988C42.5058 36.8889 40.9889 39.1419 39.0728 41.0578C37.1568 42.9737 34.9096 44.4847 32.3313 45.5908C29.753 46.6969 26.9826 47.25 24.0202 47.25ZM39.65 17.4V12.35H34.6V7.64999H39.65V2.54999H44.35V7.64999H49.45V12.35H44.35V17.4H39.65ZM31 23.65C31.8167 23.65 32.5208 23.3542 33.1125 22.7625C33.7042 22.1708 34 21.4667 34 20.65C34 19.8333 33.7042 19.1292 33.1125 18.5375C32.5208 17.9458 31.8167 17.65 31 17.65C30.1833 17.65 29.4875 17.9399 28.9125 18.5198C28.3375 19.0997 28.05 19.8039 28.05 20.6323C28.05 21.4608 28.3368 22.1708 28.9104 22.7625C29.484 23.3542 30.1806 23.65 31 23.65ZM17 23.65C17.8167 23.65 18.5125 23.36 19.0875 22.7801C19.6625 22.2002 19.95 21.4961 19.95 20.6676C19.95 19.8392 19.6632 19.1292 19.0896 18.5375C18.516 17.9458 17.8194 17.65 17 17.65C16.1833 17.65 15.4792 17.9458 14.8875 18.5375C14.2958 19.1292 14 19.8333 14 20.65C14 21.4667 14.2958 22.1708 14.8875 22.7625C15.4792 23.3542 16.1833 23.65 17 23.65ZM24 36.95C26.3 36.95 28.4 36.3137 30.3 35.0412C32.2 33.7687 33.5333 32.055 34.3 29.9H13.7C14.5 32.055 15.8417 33.7687 17.725 35.0412C19.6083 36.3137 21.7 36.95 24 36.95Z" fill="#FF6853"/>
</g>
</g>
<defs>
<filter id="filter0_d_14_304" x="0.75" y="0.549988" width="47.25" height="46.7" filterUnits="userSpaceOnUse" color-interpolation-filters="sRGB">
<feFlood flood-opacity="0" result="BackgroundImageFix"/>
<feColorMatrix in="SourceAlpha" type="matrix" values="0 0 0 0 0 0 0 0 0 0 0 0 0 0 0 0 0 0 127 0" result="hardAlpha"/>
<feOffset dx="-2" dy="-2"/>
<feComposite in2="hardAlpha" operator="out"/>
<feColorMatrix type="matrix" values="0 0 0 0 1 0 0 0 0 1 0 0 0 0 1 0 0 0 1 0"/>
<feBlend mode="normal" in2="BackgroundImageFix" result="effect1_dropShadow_14_304"/>
<feBlend mode="normal" in="SourceGraphic" in2="effect1_dropShadow_14_304" result="shape"/>
</filter>
</defs>
</svg>
