<svg width="48" height="48" viewBox="0 0 48 48" fill="none" xmlns="http://www.w3.org/2000/svg">
<g filter="url(#filter0_d_14_316)">
<mask id="mask0_14_316" style="mask-type:alpha" maskUnits="userSpaceOnUse" x="0" y="0" width="48" height="48">
<rect width="48" height="48" fill="#D9D9D9"/>
</mask>
<g mask="url(#mask0_14_316)">
<path d="M24.002 43.25C21.334 43.25 18.8372 42.7517 16.5115 41.755C14.1858 40.7583 12.1424 39.3795 10.3815 37.6186C8.62052 35.8576 7.2417 33.8147 6.245 31.4899C5.24833 29.1651 4.75 26.6685 4.75 24C4.75 22.473 4.94167 20.9662 5.325 19.4797C5.70833 17.9932 6.25 16.5917 6.95 15.275C7.65 13.9583 8.48333 12.7333 9.45 11.6C10.4167 10.4667 11.4667 9.50001 12.6 8.70001L26.9 23L24.35 25.6L13.15 14.45C11.95 15.7833 11.0333 17.2583 10.4 18.875C9.76667 20.4917 9.45 22.2051 9.45 24.0153C9.45 28.0718 10.8555 31.5083 13.6664 34.325C16.4774 37.1417 19.919 38.55 23.9914 38.55C28.0638 38.55 31.5083 37.1437 34.325 34.3311C37.1417 31.5185 38.55 28.0748 38.55 24C38.55 20.2798 37.3012 17.0331 34.8036 14.2599C32.3061 11.4866 29.2049 9.90001 25.5 9.50001V14.5H21.9V4.70001H23.9C26.5542 4.70001 29.056 5.20748 31.4053 6.22241C33.7547 7.23738 35.8078 8.62071 37.5647 10.3724C39.3216 12.1241 40.7167 14.166 41.75 16.4981C42.7833 18.8301 43.3 21.3301 43.3 23.9981C43.3 26.666 42.7942 29.164 41.7826 31.4921C40.7709 33.8201 39.3838 35.8634 37.6211 37.622C35.8584 39.3806 33.8149 40.7583 31.4905 41.755C29.1661 42.7517 26.67 43.25 24.002 43.25ZM23.9053 36.4C23.2551 36.4 22.725 36.1968 22.315 35.7903C21.905 35.3838 21.7 34.8555 21.7 34.2053C21.7 33.5551 21.9033 33.025 22.3098 32.615C22.7162 32.205 23.2446 32 23.8948 32C24.5449 32 25.075 32.2033 25.485 32.6098C25.895 33.0163 26.1 33.5446 26.1 34.1948C26.1 34.8449 25.8967 35.375 25.4902 35.785C25.0838 36.195 24.5555 36.4 23.9053 36.4ZM34.2052 26.1C33.5551 26.1 33.025 25.8968 32.615 25.4903C32.205 25.0838 32 24.5555 32 23.9053C32 23.2551 32.2033 22.725 32.6098 22.315C33.0162 21.905 33.5446 21.7 34.1948 21.7C34.8449 21.7 35.375 21.9033 35.785 22.3098C36.195 22.7162 36.4 23.2446 36.4 23.8948C36.4 24.5449 36.1968 25.075 35.7903 25.485C35.3838 25.895 34.8554 26.1 34.2052 26.1ZM13.7553 26.1C13.1051 26.1 12.575 25.8968 12.165 25.4903C11.755 25.0838 11.55 24.5555 11.55 23.9053C11.55 23.2551 11.7533 22.725 12.1598 22.315C12.5662 21.905 13.0946 21.7 13.7448 21.7C14.3949 21.7 14.925 21.9033 15.335 22.3098C15.745 22.7162 15.95 23.2446 15.95 23.8948C15.95 24.5449 15.7467 25.075 15.3403 25.485C14.9338 25.895 14.4055 26.1 13.7553 26.1Z" fill="#FF6853"/>
</g>
</g>
<defs>
<filter id="filter0_d_14_316" x="2.75" y="2.70001" width="40.55" height="40.55" filterUnits="userSpaceOnUse" color-interpolation-filters="sRGB">
<feFlood flood-opacity="0" result="BackgroundImageFix"/>
<feColorMatrix in="SourceAlpha" type="matrix" values="0 0 0 0 0 0 0 0 0 0 0 0 0 0 0 0 0 0 127 0" result="hardAlpha"/>
<feOffset dx="-2" dy="-2"/>
<feComposite in2="hardAlpha" operator="out"/>
<feColorMatrix type="matrix" values="0 0 0 0 1 0 0 0 0 1 0 0 0 0 1 0 0 0 1 0"/>
<feBlend mode="normal" in2="BackgroundImageFix" result="effect1_dropShadow_14_316"/>
<feBlend mode="normal" in="SourceGraphic" in2="effect1_dropShadow_14_316" result="shape"/>
</filter>
</defs>
</svg>
