<?xml version="1.0" encoding="utf-8"?>
<!-- Generator: Adobe Illustrator 26.1.0, SVG Export Plug-In . SVG Version: 6.00 Build 0)  -->
<svg version="1.1" id="Layer_1" xmlns="http://www.w3.org/2000/svg" xmlns:xlink="http://www.w3.org/1999/xlink" x="0px" y="0px"
	 viewBox="0 0 500 350" style="enable-background:new 0 0 500 350;" xml:space="preserve">
<style type="text/css">
	.st0{fill:#FFFFFF;stroke:#000F97;stroke-width:3;stroke-miterlimit:10;}
	.st1{fill:#FF6853;}
	.st2{fill:#FFA0A0;}
	.st3{fill:#000F97;}
	.st4{fill:#DBE3EB;}
</style>
<g>
	<path class="st0" d="M279.1,166.3h58.8v-24.8h-82.1v44h23.3V166.3z"/>
	<path class="st0" d="M44.3,41h185.4v8.7H44.3c-0.6,0-1.1-0.1-1.7-0.3c-0.5-0.2-1-0.5-1.4-0.9c-0.4-0.4-0.7-0.9-0.9-1.4
		c-0.2-0.5-0.3-1.1-0.3-1.7c0-1.1,0.5-2.2,1.3-3.1C42.1,41.5,43.2,41,44.3,41z"/>
	<path class="st0" d="M229.7,49.7H44.3c-0.6,0-1.1-0.1-1.7-0.3c-0.5-0.2-1-0.5-1.4-0.9c-0.4-0.4-0.7-0.9-0.9-1.4
		c-0.2-0.5-0.3-1.1-0.3-1.7v256.9c0,1.1,0.5,2.2,1.3,3.1c0.8,0.8,1.9,1.3,3.1,1.3H237V49.7H229.7z"/>
	<path class="st0" d="M310.9,152.3h-43.1v4.7h43.1V152.3z"/>
	<path class="st0" d="M297.4,161.2h-29.6v4.7h29.6V161.2z"/>
	<path class="st0" d="M279.1,170.1h-11.3v4.7h11.3V170.1z"/>
	<path class="st0" d="M168.7,207.6h-60.5v6.5h60.5V207.6z"/>
	<path class="st0" d="M159.2,220.1h-41.5v6.5h41.5V220.1z"/>
	<path class="st0" d="M163.6,232.6h-50.1v6.5h50.1V232.6z"/>
	<path class="st0" d="M361.2,166.3h-82.1v44h82.1V166.3z"/>
	<path class="st1" d="M137,114.1l-12.2,12.6c-0.2,0.2-0.5,0.4-0.8,0.5c-0.3,0.1-0.7,0.1-1,0l-18.2-3.8c-0.4-0.1-0.7,0-1.1,0.1
		c-0.3,0.1-0.6,0.3-0.9,0.6c-0.2,0.3-0.4,0.6-0.5,1c-0.1,0.4,0,0.7,0.1,1.1l8.2,22.2c0.1,0.4,0.4,0.7,0.7,0.9s0.7,0.4,1.1,0.4h51.7
		c0.4,0,0.8-0.1,1.1-0.4c0.3-0.2,0.6-0.6,0.7-0.9l8.2-22.2c0.1-0.3,0.2-0.7,0.1-1.1c-0.1-0.4-0.2-0.7-0.5-1
		c-0.2-0.3-0.5-0.5-0.9-0.6c-0.3-0.1-0.7-0.1-1.1-0.1l-18.2,3.8c-0.3,0.1-0.7,0.1-1,0c-0.3-0.1-0.6-0.3-0.9-0.5l-12.2-12.6
		c-0.2-0.2-0.4-0.3-0.7-0.4c-0.2-0.1-0.5-0.2-0.8-0.2c-0.3,0-0.5,0.1-0.8,0.2C137.4,113.8,137.2,113.9,137,114.1z"/>
	<path class="st0" d="M320.3,41.6h-62.7c-1.1,0-1.9,0.9-1.9,1.9v80.5c0,1.1,0.9,1.9,1.9,1.9h62.7c1.1,0,1.9-0.9,1.9-1.9V43.5
		C322.2,42.5,321.3,41.6,320.3,41.6z"/>
	<path class="st0" d="M322.2,54.4v7.7h8.3c2,0,4,0.4,5.8,1.1c1.8,0.8,3.5,1.9,4.9,3.3c1.4,1.4,2.5,3.1,3.3,4.9
		c0.8,1.8,1.1,3.8,1.1,5.8v13.1c0,4-1.6,7.9-4.4,10.7c-2.8,2.8-6.7,4.4-10.7,4.4h-8.3v7.7h8c6,0,11.8-2.4,16.1-6.6
		c4.3-4.3,6.7-10,6.7-16.1V77.2c0-6-2.4-11.8-6.7-16.1c-4.3-4.3-10.1-6.7-16.1-6.7H322.2z"/>
	<path class="st1" d="M287.5,75.6l-5.3,5.5c-0.2,0.2-0.5,0.4-0.9,0.5c-0.3,0.1-0.7,0.1-1,0l-7.4-1.5c-0.4-0.1-0.7-0.1-1.1,0.1
		c-0.3,0.1-0.6,0.3-0.9,0.6c-0.2,0.3-0.4,0.6-0.5,1c-0.1,0.4,0,0.7,0.1,1.1l3.5,9.4c0.1,0.4,0.4,0.7,0.7,0.9
		c0.3,0.2,0.7,0.4,1.1,0.4h25.9c0.4,0,0.8-0.1,1.1-0.4c0.3-0.2,0.6-0.6,0.7-0.9l3.5-9.4c0.1-0.3,0.2-0.7,0.1-1.1
		c-0.1-0.4-0.2-0.7-0.5-1c-0.2-0.3-0.5-0.5-0.9-0.6c-0.3-0.1-0.7-0.1-1.1-0.1l-7.4,1.5c-0.3,0.1-0.7,0.1-1,0
		c-0.3-0.1-0.6-0.3-0.9-0.5l-5.4-5.5c-0.2-0.2-0.4-0.4-0.7-0.5c-0.2-0.1-0.5-0.2-0.8-0.2c-0.3,0-0.5,0.1-0.8,0.2
		C287.9,75.2,287.7,75.4,287.5,75.6z"/>
	<path class="st1" d="M318.7,181l-4.7,4.8c-0.2,0.2-0.5,0.4-0.8,0.5c-0.3,0.1-0.7,0.1-1,0l-6.3-1.3c-0.3-0.1-0.7,0-1,0.1
		c-0.3,0.1-0.6,0.3-0.9,0.6c-0.2,0.3-0.4,0.6-0.5,0.9c-0.1,0.4,0,0.7,0.1,1l3,8.1c0.1,0.4,0.4,0.7,0.7,0.9s0.7,0.4,1.1,0.4h23.2
		c0.4,0,0.8-0.1,1.1-0.4c0.3-0.2,0.6-0.6,0.7-0.9l3-8.1c0.1-0.3,0.2-0.7,0.1-1c-0.1-0.4-0.2-0.7-0.5-0.9c-0.2-0.3-0.5-0.5-0.9-0.6
		c-0.3-0.1-0.7-0.1-1-0.1l-6.3,1.3c-0.3,0.1-0.7,0.1-1,0c-0.3-0.1-0.6-0.3-0.9-0.5l-4.7-4.8c-0.2-0.2-0.4-0.3-0.7-0.4
		c-0.2-0.1-0.5-0.2-0.8-0.2s-0.5,0.1-0.8,0.2C319.1,180.7,318.9,180.8,318.7,181z"/>
	<path class="st0" d="M438.1,219.6h-184v87.4h184V219.6z"/>
	<path class="st0" d="M427.9,244.9l-75,32.6c-2.1,0.9-4.5,1.4-6.8,1.4c-2.3,0-4.7-0.5-6.8-1.4l-74.9-32.6c-3-1.3-5.6-3.5-7.5-6.3
		c-1.8-2.8-2.8-6-2.8-9.4v-9.7h184v9.7c0,3.3-1,6.6-2.8,9.4C433.5,241.4,430.9,243.6,427.9,244.9z"/>
	<path class="st1" d="M360.4,246l-6.3,1.3c-0.3,0.1-0.7,0.1-1,0c-0.3-0.1-0.6-0.3-0.8-0.5l-4.7-4.8c-0.2-0.2-0.4-0.3-0.7-0.5
		c-0.2-0.1-0.5-0.2-0.8-0.2c-0.3,0-0.5,0.1-0.8,0.2c-0.2,0.1-0.5,0.3-0.7,0.5l-4.6,4.8c-0.2,0.2-0.5,0.4-0.9,0.5
		c-0.3,0.1-0.7,0.1-1,0l-6.3-1.3c-0.3-0.1-0.7-0.1-1.1,0.1c-0.3,0.1-0.6,0.3-0.9,0.6c-0.2,0.3-0.4,0.6-0.5,1c-0.1,0.4,0,0.7,0.1,1.1
		l3,8.1c0.1,0.4,0.4,0.7,0.7,0.9c0.3,0.2,0.7,0.4,1.1,0.4h23.2c0.4,0,0.8-0.1,1.1-0.4c0.3-0.2,0.6-0.6,0.7-0.9l3-8.1
		c0.1-0.3,0.2-0.7,0.1-1c-0.1-0.3-0.2-0.7-0.4-0.9c-0.2-0.3-0.5-0.5-0.9-0.6C361.1,246,360.7,246,360.4,246z"/>
</g>
<path class="st2" d="M364.5,133.4c-0.3-0.1-0.6-0.1-0.9-0.1c-0.8-0.2-1.5-0.8-1.9-1.5c-0.3-0.4-0.8-1-1.4-0.8
	c-0.4,0.1-0.7,0.4-0.9,0.7c-0.4,0.4-0.8,0.9-1.1,1.4c-0.1,0.2-0.3,0.4-0.3,0.6c-0.1,0.4,0,0.8,0.2,1.2c0.5,0.8,1.1,1.6,1.9,2.1
	c1.1,0.9,2.3,1.8,3.5,2.5c0.1,0.1,0.3,0.2,0.5,0.2s0.4,0,0.5,0c0.3-0.2,0.6-0.4,0.8-0.7c0.7-0.9,1.9-1.9,1.4-3
	C366.4,135,365.6,134.1,364.5,133.4z"/>
<path class="st3" d="M423.8,119.7c-2.3-0.2-4.6,0.3-6.5,1.5c-5.8,3.1-10,8.7-15.4,12.6c-5.1,3.7-7.1,6.9-13.4,7.2
	s-16.6-2.6-21.9-5.8c-1.4,1.3-2.3,4.1-3.1,5.8c4,4,7,5.5,9.5,7s10.4,4,15,4.9c8.1,1.5,14.4-0.5,20.9-3.8c6.5-3.1,13.5-5.7,19.3-10
	C432.6,135.7,430.3,120.9,423.8,119.7z"/>
<path d="M425.9,84c-2,0.4-4.9,1.7-4.8,4.1c0,0.8,0.4,1.6,0.4,2.4c0,1.9-1.9,3.3-3.6,4.3c-0.4,0.2-0.8,0.5-1.1,0.9
	c-0.1,0.1-0.1,0.2-0.1,0.3c0,0.1,0,0.2,0,0.3s0.1,0.2,0.1,0.3c0.1,0.1,0.1,0.2,0.2,0.2c0.4,0.2,0.9,0,1.3,0.3
	c0.2,0.2,0.3,0.4,0.3,0.7c0,0.3,0,0.5-0.2,0.7c-0.6,0.9-1.3,1.6-2.2,2c-0.8,0.5-1.5,1.2-2,2.1c-0.1,0.2-0.2,0.5-0.2,0.7
	c0,0.2,0,0.5,0.1,0.7c0.1,0.2,0.2,0.5,0.4,0.6c0.2,0.2,0.3,0.3,0.6,0.4c0.2,0.1,0.5,0.2,0.7,0.3c0.4,0.3,0.2,0.9-0.1,1.3
	c-0.3,0.4-0.7,0.7-0.8,1.2c-0.1,0.5,0.6,1.3,1.3,1.3c0.7,0,1.4-0.2,2-0.6c0.5,0.4,0,1.3,0.4,1.8c0.3,0.3,0.7,0.4,1.1,0.4l2.6,0.3
	c0.4,0,0.8,0.1,1.2,0.3c0.7,0.4,1,1.1,1.5,1.6c0.5,0.6,1.4,1,2,0.5c0.6-0.5,0.1-1.8-0.4-2.6c-1-2.2-1.2-4.7-0.6-7
	c0.3-4.7,1.6-9.3,3.8-13.5c0.7-1.2,1.7-2.6,1.1-3.9c-0.4-1-1.2-1.7-2.1-2.2C427.9,84.1,426.9,83.9,425.9,84z"/>
<path d="M452.1,102.9c0.6-0.7,0.1-1.8-0.5-2.3c-0.7-0.5-1.5-0.9-2.2-1.5c-0.6-0.8-0.9-1.8-1.1-2.8c-0.2-1-0.1-2,0.2-3
	c0.3-1.5,0.3-3.1,0-4.6c-0.2-0.8-0.5-1.5-1-2.1c-0.5-0.6-1.1-1.1-1.8-1.4c-0.9-0.3-1.9-0.4-2.9-0.3c-1.4,0-5.5-2.1-5.3,0.8
	c0.2,2.3,3.5,4,4.5,6c0.8,2.5,0.9,5.2,0.3,7.8c0,3-0.3,6-0.7,9c-0.7,2.4-1.6,4.8-2.9,6.9l-1,1.9c0.4,0.1,0.9,0.1,1.3,0
	c0.4-0.1,0.8-0.3,1.2-0.6c0.2-0.2,0.4-0.5,0.6-0.7c0.3-0.4,0.7-0.8,1.1-1.1c1.2-1.2,2.7-2.1,4.3-2.7c0.6-0.2,1.4-0.4,1.5-1
	c0-0.3,0-0.6,0-0.9c0-1.1,1.3-1.7,2.3-1.8c0.4,0,0.7,0,1-0.2c0.6-0.5,0.2-1.5-0.3-2.1c-0.5-0.6-1.1-1.4-0.7-2.1
	C450.6,103.5,451.6,103.5,452.1,102.9z"/>
<path class="st2" d="M424.5,89.6c-2.1,3.3-3.1,7.1-2.9,11c0,3,0.4,6,1,9c0.5,3,1.8,5.8,3.7,8.1c1.1,1.2,2.4,2,3.9,2.5
	c1.5,0.4,3.1,0.4,4.6,0c3.4-1.2,5-4.8,6.1-8.1c1.9-4.6,2.6-9.7,2.1-14.6c-0.5-2.2-1.4-4.3-2.7-6.1c-1.3-1.8-3-3.4-4.9-4.6
	C432,84.2,426.9,86.4,424.5,89.6z"/>
<path d="M445.4,88.9c-1.3-1.2-3.1-1.5-4.6-2.5c-1.5-0.9-2.1-2-3.3-2.9c-1.8-1.1-4-1.7-6.2-1.5c-1.7,0-3.4,0.4-4.9,1.3
	c-0.7,0.4-1.2,0.9-1.7,1.5c-0.4,0.6-0.7,1.3-0.9,2c-0.7,0.1-1.3,0.5-1.7,1c-0.4,0.5-0.6,1.2-0.5,1.8c0,0.6,0.2,1.3,0.6,1.8
	c-0.5,0.3-0.9,0.7-1.3,1.2l0.2,3.4c0,1,0,1.9-0.2,2.9c0.4,0.4,1.1,0.1,1.4-0.4c0.3-0.5,0.3-1.1,0.5-1.6c0.2-0.5,0.9-0.9,1.4-0.6
	c0.1,0.9,0.5,1.8,1,2.5c0.3,0.3,0.7,0.5,1.1,0.6c0.4,0.1,0.9-0.1,1.3-0.3c0.5-0.5,0.5-1.4,0.6-2.1c0.1-0.7,0.5-1.6,1.3-1.6
	c0.3,0.1,0.6,0.2,0.9,0.4c0.4,0.3,0.9,0.5,1.4,0.6c0.5,0.1,1,0.1,1.5,0c0.2-0.1,0.5-0.2,0.7-0.3c0.2-0.1,0.4-0.3,0.5-0.5
	c0.1-0.2,0.2-0.4,0.2-0.7c0-0.2,0-0.5-0.1-0.7c0.8-0.1,1.3,0.8,2,1.3c0.9,0.5,1.9,0.6,2.9,0.4c0.6,0,1.3-0.2,1.9-0.4
	c0.8,3.3,0.6,0.5,0,3.8l0.8,4c0.3,0,0.5,0.3,0.6,0.6c0.5,2.1,0.5,3,1.5,4.9c0.2-2.9-0.2-4,1.1-6.6c1-2.5,1.5-5.1,1.4-7.8
	C447.2,92.6,446.7,90.5,445.4,88.9z"/>
<path d="M450.9,303.1c-0.2-0.5-0.4-1-0.6-1.6h0.4v-16.8c0-6.4-0.3-12.6-0.9-19c-1.6-18.9,3.8-39.5,2.3-58.7c-0.2-4.5-0.8-9-1.8-13.4
	c-1.4-5.7-4.6-4.9-9.6-5.9c-7.6-1.6-23.2-1.9-30.7,0.3c0,36.7,7,77.6,10.1,114h0.7c-1.8,1.6-3.9,2.9-6.1,3.9
	c-0.6,0.2-1.1,0.5-1.6,0.9c-0.2,0.2-0.4,0.5-0.5,0.8c-0.1,0.3-0.1,0.6-0.1,0.9c0,0.3,0.1,0.6,0.3,0.9c0.1,0.3,0.4,0.5,0.6,0.7
	c0.5,0.3,1.1,0.4,1.7,0.4c0.6,0,1.2-0.1,1.7-0.3l9.6-2.2c0.6-0.1,1.2-0.3,1.6-0.7c0.4-0.6,0.6-1.4,0.5-2.1v-3.3h0.3
	c2.3-19.8,1.7-38.6,2.3-58.4c1.1,9.3,3.1,14.5,5.3,26c1,5.3,2.2,10.5,3,15.9c0.4,2.7,0.9,5.5,1.4,8.2c0.6,2.4,1,6.8,1.2,9.2h0.5
	c-1.1,2.2-2.6,4.3-4.3,6.1c-0.5,0.4-0.8,0.9-1.1,1.4c-0.1,0.3-0.2,0.6-0.1,0.9c0,0.3,0.1,0.6,0.2,0.9c0.1,0.3,0.3,0.5,0.6,0.7
	c0.2,0.2,0.5,0.4,0.8,0.5c0.6,0,1.2,0,1.7-0.2c0.6-0.2,1.1-0.5,1.5-0.9l8.1-5.8c0.5-0.3,1-0.8,1.3-1.3
	C451.3,304.6,451.2,303.8,450.9,303.1z"/>
<path class="st3" d="M424.9,119.9c-0.8-0.7-1.9-1.1-3-1.3c-0.5,0-0.9,0.2-1.3,0.4c-0.4,0.2-0.7,0.5-1,0.9c-0.9,1.3-1.5,2.8-1.8,4.3
	c-2.7,10.6-4.4,21.5-5.1,32.4c-0.2,2.6-4.1,10.6-3.6,13.1c0.9,4.1-1.7,15.4-1.3,19.6c0.2,2.3,0,4.9,1.6,6.2c0.9,0.6,1.9,0.9,2.9,0.9
	c3.6,0.5,18.2,0,21.8,0.6c2.6,0.4,13.6,1.1,15.9,0c2.9-1.5,4.3-5,5.2-8.2c3.7-12.1-5.4-37.3-4.2-49.9c0.6-5.7,1.6-18.7-6.5-19.5
	c-2.9-0.3-5.9,1.4-8.7,2C432.1,122.5,428.2,121.9,424.9,119.9z"/>
<path class="st2" d="M362.1,132.1c0.5,0.4,1,0.8,1.4,1.3c0.4,0.5,0.6,1.2,0.5,1.8c-0.1,0.5-0.4,1-0.7,1.4c-0.2,0.4-0.5,0.6-0.9,0.8
	c-0.4,0.2-0.8,0.3-1.2,0.3c-0.3-0.1-0.5-0.2-0.7-0.3c-0.6-0.4-1.1-0.7-1.6-1.2c-0.3-0.3-0.6-0.6-0.8-1c-0.1-0.4,0-0.7,0-1.1
	c0.1-0.3,0.3-0.7,0.5-0.9c0.4-0.8,1-1.4,1.8-1.9C361,131.1,361.6,131.7,362.1,132.1z"/>
<path class="st4" d="M427.4,128.8c-0.1,3.3-0.3,6.7-0.9,10c-0.4,3.5-0.6,6.9-0.8,10.6l-0.6,10.1c-0.7,11.8-1.3,23.6-1.6,35.4
	c0,0.4,0,0.9,0.3,1.3c0.2,0.2,0.4,0.4,0.7,0.5c0.3,0.1,0.5,0.2,0.8,0.2l6.7,0.8c0.3,0.1,0.6,0.1,0.9,0c0.7-0.3,0.8-1.3,0.7-2.1
	c-2.3-19-2.9-38.2-1.8-57.4c0-2.9,0.5-5.8,1.6-8.5c1.3-3,3.9-5.7,4-9c0,0.7-4.2,1-4.8,1c-1.9,0-3.7-1.2-5.4-1.2
	c-2.3,0-1.4,1-0.8,2.8C427,125,427.4,126.9,427.4,128.8z"/>
<path class="st3" d="M450.4,121.9c4.6,4.2,6.6,11.5,7.6,16.1s1.5,7,1.5,12c0,2.5-0.3,7.5-1,9.5c-1.3,2.7-5.2,5-8.1,5.5
	c-4.3,0.7-3.8,1.3-8.2,2c-7.5,1.3-3.1,0.6-15.1,2.7l-7,1.5c-0.8,0.2-4,1.5-4.4,0.7c-0.9-1.8-1.5-3.7-1.8-5.7
	c-0.2-1.2,6.1-2.3,7.2-2.8c1.1-0.5,6.9-2.6,7.8-2.9c4-1,4-1.1,10-3.1c0.8-0.3,3.6-1.6,4.5-3c2.4-3.5,2.9-4.2,2.4-7.4
	c-0.5-3-0.9-4.1-1.8-7.7c-0.9-3.6-1.4-5.3-2.3-7.5c-1.1-2.1-1.6-4.4-1.4-6.8c0.2-1.1,0.7-2.1,1.4-2.9c0.7-0.8,1.6-1.4,2.7-1.8
	c1-0.3,2.1-0.4,3.2-0.1C448.7,120.6,449.6,121.1,450.4,121.9z"/>
<path class="st2" d="M409.6,169.8c0,0.8,0.1,1.6,0.4,2.3c0.2,0.4,0.6,0.7,1,1c0.4,0.2,0.9,0.3,1.3,0.3c0.4-0.1,0.8-0.2,1.2-0.3
	c1.1-0.3,2.1-0.9,2.7-1.8c0.2-0.4,0.2-0.8,0.2-1.2c0-0.4-0.1-0.8-0.2-1.2c-0.4-1.7-1.3-3.4-3.7-3.1c-0.5,0-0.9,0.2-1.3,0.4
	c-0.4,0.2-0.8,0.5-1,0.9c-0.3,0.4-0.5,0.8-0.6,1.2C409.6,168.8,409.6,169.3,409.6,169.8z"/>
<path d="M430.7,110.4c1,0.7,2.3,1,3.5,1c3.2,0,1.8-0.8,0-1.5c-1.1-0.4-2.3-0.7-3.5-0.7c-0.9,0.1-1.7,0.3-2.5,0.7
	c-1.3,0.5-2.3,1.4-1.1,1.5C428.3,111.3,429.5,110.9,430.7,110.4z"/>
</svg>
