<?xml version="1.0" encoding="utf-8"?>
<!-- Generator: Adobe Illustrator 26.1.0, SVG Export Plug-In . SVG Version: 6.00 Build 0)  -->
<svg version="1.1" id="Layer_1" xmlns="http://www.w3.org/2000/svg" xmlns:xlink="http://www.w3.org/1999/xlink" x="0px" y="0px"
	 viewBox="0 0 500 350" style="enable-background:new 0 0 500 350;" xml:space="preserve">
<style type="text/css">
	.st0{fill:#FFA0A0;}
	.st1{fill:#2AD8E3;}
	.st2{fill:#FF6853;}
	.st3{fill:#000F97;}
	.st4{fill:#FFFFFF;stroke:#000F97;stroke-width:3;stroke-miterlimit:10;}
</style>
<path class="st0" d="M373.2,144c-0.2,0-0.3,0-0.5,0c-1.7-0.2-3.4-0.7-4.9-1.4c-0.4-0.2-0.8-0.4-1.1-0.7c-0.5-0.7-0.8-1.5-0.7-2.3
	c0-0.2,0-0.4,0.1-0.7c0.1-0.2,0.2-0.4,0.4-0.5c0.2-0.1,0.4-0.2,0.7-0.2c0.6-0.1,1.1-0.1,1.7,0c0.4,0.2,0.8,0.3,1.2,0.4
	c0.4,0,0.9-0.1,1-0.5c0.3,0,0.6,0,0.9,0.1c0.3,0.1,0.6,0.3,0.8,0.5c0.8,0.6,2.2,1.3,2.1,2.4c-0.1,0.5-0.2,0.9-0.5,1.3
	C374.1,142.9,373.8,143.8,373.2,144z"/>
<path class="st1" d="M395.1,159.8c0.5,0.2,1,0.3,1.6,0.3c0.4-0.1,0.8-0.3,1.2-0.5c0.4-0.3,0.7-0.6,0.9-0.9c1.3-1.7,1.8-3.9,1.5-6
	c0-0.6-0.2-1.1-0.6-1.6c-0.4-0.5-0.9-0.8-1.5-1c-4.2-2.1-8.5-3.8-13-5.2c-3.3-0.9-6.5-2-9.6-3.4c-0.7-0.3-2.3,3.3-2.1,3.9
	c0.7,1,1.5,1.9,2.5,2.6c1.8,1.8,4.6,2.5,6.4,4.2C386.2,155.5,390.5,158.1,395.1,159.8z"/>
<path class="st1" d="M402,127.2c-1.2,2.6-2.1,5.2-2.7,7.9c-1.4,3.3-3.1,6.5-5.1,9.5c-2,3-3.2,6.5-3.5,10.1c-0.1,0.8,0.1,1.5,0.4,2.2
	c0.5,0.6,1.1,1.1,1.8,1.4l2.5,1.3c0.3,0.2,0.7,0.4,1.1,0.4c0.4,0.1,0.8,0,1.2-0.1c0.3-0.2,0.6-0.5,0.8-0.8c1.7-2.9,3-6,3.8-9.3
	c1.9-5.3,4.6-10.3,7-15.5c1.6-3.5,5-10-1.4-10.9c-1.2,0-2.5,0.3-3.5,0.9C403.4,125.2,402.5,126.1,402,127.2z"/>
<path class="st2" d="M420.5,237.2c0.2,2.8,0.6,5.6,1.2,8.4c0.6,2.1,0.4,3.6,1.1,5.7c1,3.4,1.8,6.8,2.5,10.3
	c1.5,8.1,3.2,16.2,4.8,24.3c0.1,0.9,0.4,1.7,1,2.3c0.6,0.4,1.3,0.6,2.1,0.7c0.7,0.1,1.5,0,2.2-0.3c1.1-0.4,2.3-0.9,2.7-2
	c0.2-0.6,0.2-1.2,0-1.8c-1-7-0.3-13.4-1.3-20.2c-0.9-5-1.3-10.1-1.4-15.2c0-2.6,0.3-5.3,0.6-7.9c1.6-15.3,2.1-30.7,3.7-46
	c0.2-0.8,0-1.6-0.3-2.3c-0.5-0.5-1.1-0.9-1.8-1c-4.8-1.4-9.9-1.6-14.8-0.4c-2.1,0.5-4.1,0.8-4.8,2.9c-0.4,2.6-0.4,5.2,0,7.9
	C418.4,213.9,419.4,225.6,420.5,237.2z"/>
<path class="st2" d="M398.6,234.7c-1.4-15.5-1.8-31.1-1.2-46.7c-0.1-1.3,0.3-2.7,1.1-3.8c1.4-1.3,3.2-2,5.1-1.9
	c3.5-0.6,7.2-0.7,10.7-0.2c1.7,0.2,3.4,0.9,4.8,1.9c1.4,1,2.6,2.3,3.4,3.9c0.7,2.1,0.9,4.3,0.5,6.5c-0.4,4-1.2,8.1-2.3,12
	c-1.1,4.1-2.5,8.1-3.5,12.2c-1.1,5.1-1.9,10.3-2.3,15.5l-4.4,48.3c0,2-0.2,3.9-0.6,5.8c-0.5,1.7-1.7,2.3-3.8,2.3
	c-2.9,0-4-1.9-4.3-4.4c-1.1-7.9-1.1-16.1-1.6-24C399.8,252.9,399.3,243.8,398.6,234.7z"/>
<path class="st0" d="M423.5,94.6c2.6,2.5,4.5,5.6,5.4,9.2c1.2,3.8,1.1,7.9-0.5,11.6c-0.8,1.8-2.2,3.3-3.9,4.3
	c-1.7,1-3.7,1.4-5.6,1.2c-2.6-0.5-4.9-2-6.5-4.1c-2.1-2.6-3.5-5.7-4.1-9c-0.6-3.3-0.3-6.7,0.7-9.9c0.9-2.6,2.3-5.7,5-6.4
	c1.7-0.2,3.5,0.1,5.1,0.6C420.7,92.6,422.2,93.4,423.5,94.6z"/>
<path class="st3" d="M407.8,103.6c1-0.1,1.9-0.4,2.8-1c3.1-1.7,6.4-2.8,9.9-3.2c1-0.2,2.1-0.1,3,0.2c0.6,0.2,1.1,0.6,1.5,1.1
	c0.4,0.5,0.7,1,0.9,1.6c0.3,1.1,0.4,2.3,0.3,3.5c0.3,0.2,0.7-0.2,1.1-0.3c0.4-0.1,1.1,0.9,0.8,1.5c-0.3,0.7-0.9,1.3-0.8,1.9
	c0.1,0.4,0.3,0.8,0.6,1.1c0.7,1,1.2,2.2,1.3,3.5c0,0.2,0,0.4,0.2,0.6c0.1,0.1,0.3,0.2,0.4,0.2c0.6,0.1,1.2,0,1.8-0.2
	c0.6-0.2,1.1-0.5,1.5-0.9c0.8-0.8,1.3-1.9,1.6-3c1-4.6,0.9-9.3-0.3-13.9c-0.2-1.2-0.5-2.4-1-3.6c-0.6-1.2-1.5-2.2-2.5-3.1
	c-1.3-1.3-2.7-2.3-4.3-3.2c-3.2-1.6-6.7-2.1-10.2-1.6c-1.3,0.1-2.5,0.5-3.7,0.9c-1.9,0.9-3.6,2.1-4.9,3.7c-1.4,1.5-2.4,3.3-3.1,5.3
	C403.9,97,404,103.5,407.8,103.6z"/>
<path class="st3" d="M417.7,82.8c0-1,0.2-2,0.6-2.9c0.5-0.8,1.1-1.5,1.9-2c1.7-1.2,3.7-1.8,5.8-1.8c2.1,0,4.1,0.6,5.8,1.7
	c1.2,0.7,2.2,1.9,2.8,3.2c0.6,1.3,0.8,2.8,0.5,4.2c-0.4,1.3-1.3,2.5-2.4,3.3c-1.1,0.8-2.5,1.3-3.9,1.3
	C424.9,89.8,417.7,87.3,417.7,82.8z"/>
<path class="st1" d="M412,122.7c-1.3-0.5-3.2-1-3.9,0.2c-0.2,0.4-0.3,0.9-0.4,1.3c-0.8,3.3-1.9,6.4-3.4,9.4
	c-1.5,3.8-2.7,22.7-3.5,26.7c-2.8,14-5.4,14.2-7.4,30.7c-0.2,0.9-0.2,1.8,0,2.7c0.4,1.2,1.2,2.2,2.2,2.9c5.4,4.6,12.3,4.2,19.3,4.8
	c7,0.6,11.6-1.1,18.5-2.5c2.7-0.5,8.5-1.9,9.6-4.4c0.4-1.5,0.4-3,0-4.5c-1.3-7-2.6-9.2-4.4-15.9c-1.5-5.7-0.8-12.8-2.1-18.5
	c-1.9-8.3-1-16.8-1.4-25.3c-0.1-3.7-0.3-8.4-4.8-8.4C425.3,122.1,416.9,124.4,412,122.7z"/>
<path class="st3" d="M432.1,293.3c-0.7,2-1.6,3.9-2.5,5.8c-0.2,0.4-0.3,0.7-0.3,1.1c0,0.4,0,0.8,0.2,1.2c0.5,1,1.8,1.2,2.8,1.3
	l2.3,0.3c1.1,0.3,2.2,0.1,3.2-0.4c0.4-0.3,0.7-0.6,0.9-1c0.2-0.4,0.3-0.8,0.4-1.3c0.1-0.9,0-1.8-0.3-2.7c-0.6-3.3-1.2-6.5-1.8-9.8
	c-1.1,0.2-3.6,0.2-4.4,1.1C431.8,289.9,432.3,292.2,432.1,293.3z"/>
<path class="st3" d="M405.9,289.9c-0.3,0-0.5,0.1-0.7,0.2c-0.8,0.4-0.6,1.6-0.7,2.5c-0.2,0.7-0.5,1.3-1,1.8c-0.5,0.5-1.1,0.8-1.8,1
	c-1.3,0.4-2.7,0.5-4,0.9c-0.7,0.2-1.3,0.5-1.8,1c-0.5,0.5-0.9,1.1-1.1,1.7c0,0.3,0,0.7,0.3,0.9c0.2,0.1,0.3,0.1,0.5,0.1
	c4.6,0.1,9.3-0.2,13.9-0.6c0.2,0,0.5,0,0.7-0.1c0.2-0.1,0.4-0.2,0.6-0.4c0.2-0.2,0.3-0.5,0.3-0.8c0.3-1.9,0.9-5.9-0.4-7.7
	C409.8,289,407.2,289.8,405.9,289.9z"/>
<path class="st1" d="M437.4,124.4c1.7,1.4,2.9,3.3,3.4,5.5c1.9,5.8,3.3,11.6,4.4,17.6l1.7,8.6c0.1,0.5,0.1,0.9,0,1.4
	c-0.1,0.4-0.3,0.7-0.5,1c-2.6,3.2-5.6,6-9,8.3l-12.8,9.5c-0.8,0.6-1.7,1.2-2.6,0.9c-0.3-0.1-0.6-0.3-0.9-0.6c-1-0.9-1.8-1.8-2.5-2.9
	c-0.2-0.2-0.2-0.4-0.3-0.7c0-0.2,0.1-0.3,0.2-0.5c0.1-0.1,0.2-0.3,0.3-0.4c4.6-4.2,8.9-8.6,13.1-13.3c1.3-1.2,2.2-2.7,2.8-4.3
	c0.2-0.9,0.3-1.8,0.3-2.7c-0.4-7.3-1.6-14.5-3.5-21.5c-0.4-1.8-1.2-4.4,0.5-5.7c0.8-0.6,1.7-0.9,2.7-0.9
	C435.6,123.5,436.6,123.8,437.4,124.4z"/>
<path class="st0" d="M414,175.6c-0.3,0.2-0.6,0.4-0.9,0.7c-0.1,0.1-0.1,0.2-0.1,0.3c0,0.1,0,0.2,0,0.3c0,0.1,0.1,0.2,0.1,0.3
	c0.1,0.1,0.1,0.1,0.2,0.2l-1.1,1.1c-0.7,0.8-1.5,1.8-1.2,2.9c0.2,0.5,0.5,0.9,0.9,1.2c0.4,0.4,0.8,0.7,1.3,1c0.5,0.1,1.1,0.1,1.7,0
	c0.5-0.1,1.1-0.4,1.5-0.7c1.2-0.8,2.3-1.9,3.2-3.1c0.4-0.5,0.7-1.2,0.6-1.8c-0.1-0.5-0.4-1-0.8-1.4c-0.6-0.8-1.4-2.3-2.6-2.3
	C415.8,174.2,414.8,175.2,414,175.6z"/>
<path class="st4" d="M250,266h-16c-5,0-9,4-9,9v17c0,5,4,9,9,9h16c5,0,9-4,9-9v-17C259,270,255,266,250,266z"/>
<path class="st4" d="M175,271.4l-2.5,3.2c-2.4,3.1-1.8,7.4,1.2,9.8l3.2,2.5c3.1,2.4,7.4,1.8,9.8-1.2l2.5-3.2
	c2.4-3.1,1.8-7.4-1.2-9.8l-3.2-2.5C181.8,267.8,177.4,268.3,175,271.4z"/>
<path class="st4" d="M344.7,132.6c-1.5,2.4-0.8,5.5,1.6,7c2.4,1.5,5.5,0.8,7-1.6c1.5-2.4,0.8-5.5-1.6-7S346.2,130.2,344.7,132.6z"/>
<path class="st4" d="M325,127.9c-1.3-43.1-35.8-78.5-78.9-80.8c-11.3-0.6-22.7,1.1-33.3,5c-10.7,3.9-20.4,10-28.6,17.8
	c-8.2,7.8-14.8,17.2-19.3,27.7c-3.3,7.7-5.4,15.8-6.3,24c-0.5,4.9,3.5,9,8.5,9h16.4c5,0,8.9-4.1,9.8-8.9c0.7-3.5,1.7-7,3.1-10.3
	c2.6-6.1,6.4-11.6,11.1-16.2c4.8-4.6,10.4-8.2,16.6-10.5c6.2-2.4,12.8-3.4,19.4-3.2c12.3,0.5,24,5.7,32.7,14.4
	c8.7,8.7,13.9,20.4,14.4,32.8c0.3,8.3-1.5,16.6-5.2,24c-3.7,7.4-9.3,13.8-16.2,18.5c-19.6,13.4-34.3,33-40.5,56l-1.2,4.5
	c-1.6,5.7,2.8,11.4,8.7,11.4h13.7c5,0,8.9-4.1,9.9-8.9c1-4.9,2.8-9.6,5.3-13.9c4.1-6.9,9.9-12.6,17-16.5
	c13.4-7.4,24.6-18.4,32.2-31.8C321.7,158.5,325.4,143.3,325,127.9z"/>
<path class="st4" d="M142.5,191.6c-18.7-13.6-45.1-10.6-60.3,7c-4,4.6-7,10-8.9,15.8c-1.9,5.8-2.5,12-2,18c0.6,6.1,2.4,12,5.3,17.3
	c1.8,3.3,4,6.3,6.6,9c2.6,2.8,7.1,2.2,9.5-0.8l2.8-3.6c2.4-3.1,1.7-7.4-0.6-10.5c-0.7-1-1.4-2-1.9-3c-1.7-3.1-2.8-6.5-3.1-10.1
	c-0.4-3.5,0-7.1,1-10.5c1-3.4,2.8-6.6,5.1-9.3c4.3-5.1,10.3-8.3,16.9-9.2c6.6-0.8,13.2,0.8,18.6,4.7c3.6,2.6,6.5,6.1,8.4,10.1
	c1.9,4,2.8,8.5,2.5,13c-0.8,12.8,2.6,25.4,10.3,35.6l0,0c2.7,3.6,8,3.6,10.7,0.1l1.7-2.2c2.4-3,1.7-7.4-0.5-10.6
	c-1.1-1.6-2.1-3.3-2.8-5.1c-1.6-4-2-8.4-1.4-12.6c1.3-8.2,0.3-16.5-2.8-24.1C154.3,203.1,149.1,196.5,142.5,191.6z"/>
<path class="st4" d="M395.5,108.6c6.6-11.3,3.3-25.9-7.4-33.4c-2.8-2-6-3.4-9.4-4.1c-3.4-0.7-6.9-0.7-10.2,0c-3.4,0.7-6.6,2-9.4,4
	c-1.4,1-2.7,2-3.8,3.3c-2,2.1-1.2,5.4,1.2,6.9l0,0c2.5,1.5,5.6,0.7,7.9-1.1c0.2-0.2,0.4-0.3,0.6-0.4c1.6-1.1,3.5-1.9,5.5-2.4
	c2-0.4,4-0.4,6,0c2,0.4,3.8,1.2,5.5,2.3c3.1,2.1,5.3,5.3,6.1,9c0.9,3.6,0.3,7.5-1.5,10.7c-1.2,2.2-3,4-5.2,5.3
	c-2.2,1.3-4.6,2-7.1,2.1c-7.2,0.3-14.1,2.9-19.4,7.8l0,0c-1.8,1.7-1.6,4.7,0.6,6l0.8,0.5c2.1,1.3,4.9,0.6,6.8-1
	c0.7-0.6,1.5-1.1,2.3-1.5c2.2-1.1,4.6-1.6,7-1.5c4.7,0.3,9.3-0.8,13.4-3S393.1,112.6,395.5,108.6z"/>
<path class="st2" d="M158.1,179.3l-6.3,16.4c-0.1,0.3-0.3,0.6-0.6,0.8c-0.3,0.2-0.6,0.4-0.9,0.4l-18.3,3.6c-0.4,0.1-0.7,0.2-0.9,0.5
	c-0.3,0.2-0.5,0.5-0.6,0.9c-0.1,0.3-0.1,0.7,0,1.1c0.1,0.3,0.3,0.7,0.5,0.9l16.2,17.2c0.3,0.3,0.6,0.5,1,0.6c0.4,0.1,0.8,0,1.2-0.1
	l47.6-20.2c0.4-0.2,0.7-0.4,0.9-0.8c0.2-0.3,0.3-0.7,0.3-1.2l-1.1-23.6c0-0.4-0.1-0.7-0.3-1c-0.2-0.3-0.5-0.5-0.8-0.7
	c-0.3-0.2-0.7-0.2-1-0.2c-0.4,0-0.7,0.1-1,0.4l-15.3,10.6c-0.3,0.2-0.6,0.3-0.9,0.3c-0.3,0-0.7,0-1-0.2l-16.1-6.8
	c-0.2-0.1-0.5-0.2-0.8-0.2c-0.3,0-0.5,0.1-0.8,0.2c-0.2,0.1-0.5,0.3-0.7,0.5C158.4,178.8,158.2,179,158.1,179.3z"/>
<path class="st2" d="M338.9,225.4l-22.9,4.8c-0.4,0.1-0.9,0.1-1.3-0.1c-0.4-0.1-0.8-0.4-1.1-0.7l-17.2-17.8
	c-0.3-0.3-0.7-0.6-1.2-0.7c-0.5-0.1-0.9-0.1-1.4,0c-0.5,0.1-0.9,0.4-1.2,0.7c-0.3,0.3-0.6,0.8-0.7,1.2l-7.5,30.6
	c-0.1,0.5-0.1,1.1,0.1,1.6c0.2,0.5,0.5,0.9,1,1.2l56.9,38.7c0.4,0.3,1,0.5,1.5,0.5s1.1-0.2,1.5-0.5l25.7-18.2
	c0.4-0.3,0.7-0.6,0.9-1.1c0.2-0.4,0.3-0.9,0.2-1.4c-0.1-0.5-0.2-0.9-0.5-1.3c-0.3-0.4-0.7-0.7-1.1-0.9l-22.9-9.5
	c-0.4-0.2-0.8-0.4-1.1-0.8c-0.3-0.3-0.5-0.8-0.5-1.2l-4-23c-0.1-0.3-0.2-0.7-0.4-1c-0.2-0.3-0.4-0.6-0.7-0.8c-0.3-0.2-0.6-0.3-1-0.4
	C339.6,225.4,339.2,225.4,338.9,225.4z"/>
<path class="st2" d="M248.8,108.2l-11.9,5.3c-0.2,0.1-0.5,0.1-0.7,0.1c-0.2,0-0.5-0.1-0.7-0.2l-11.5-7.7c-0.2-0.1-0.5-0.2-0.7-0.2
	c-0.3,0-0.5,0-0.8,0.2c-0.2,0.1-0.4,0.3-0.6,0.5s-0.2,0.5-0.2,0.7l-0.5,17.6c0,0.3,0.1,0.6,0.2,0.9c0.2,0.3,0.4,0.4,0.7,0.6
	l35.6,14.3c0.3,0.1,0.6,0.1,0.9,0.1c0.3-0.1,0.6-0.2,0.8-0.4l11.8-13c0.2-0.2,0.3-0.4,0.4-0.7c0.1-0.3,0-0.5-0.1-0.8
	c-0.1-0.3-0.2-0.5-0.4-0.6c-0.2-0.2-0.4-0.3-0.7-0.3l-13.6-2.5c-0.2,0-0.5-0.1-0.7-0.3c-0.2-0.2-0.3-0.4-0.4-0.6l-4.9-12.1
	c-0.1-0.2-0.2-0.3-0.3-0.5c-0.1-0.1-0.3-0.2-0.5-0.3c-0.2-0.1-0.4-0.1-0.6-0.1C249.1,108.1,248.9,108.1,248.8,108.2z"/>
</svg>
