<?xml version="1.0" encoding="utf-8"?>
<!-- Generator: Adobe Illustrator 26.1.0, SVG Export Plug-In . SVG Version: 6.00 Build 0)  -->
<svg version="1.1" id="Layer_1" xmlns="http://www.w3.org/2000/svg" xmlns:xlink="http://www.w3.org/1999/xlink" x="0px" y="0px"
	 viewBox="0 0 500 350" style="enable-background:new 0 0 500 350;" xml:space="preserve">
<style type="text/css">
	.st0{fill:#FFFFFF;stroke:#000F97;stroke-width:3;stroke-miterlimit:10;}
	.st1{fill:none;stroke:#000F97;stroke-width:3;stroke-miterlimit:10;}
	.st2{fill:#FF6853;}
	.st3{fill:#FFA0A0;}
	.st4{fill:#FFD316;}
	.st5{fill:#2AD8E3;}
</style>
<g>
	<path class="st0" d="M454.2,90.1C449.8,78.3,442,68.2,431.6,61S409,50,396.5,50h-157c-5.7,0-11.1,2.3-15.1,6.2l-66.1,66.1
		c-37.5,0-74.5,7.7-108.9,22.6L37.6,150c-1.7,0.7-3.1,1.9-4.1,3.4c-1,1.5-1.5,3.3-1.5,5.1v56.1c0,4.1,1.6,8,4.5,10.8
		s6.8,4.5,10.8,4.5h4.1c2.6,0,5-0.9,7-2.6c1.9-1.7,3.2-4,3.6-6.5c2.1-12.5,8.6-23.9,18.3-32c9.7-8.2,22-12.7,34.7-12.7
		c12.7,0,25,4.5,34.7,12.7c9.7,8.2,16.2,19.5,18.3,32c0.4,2.5,1.7,4.8,3.6,6.5c1.9,1.7,4.4,2.6,6.9,2.6h143.3c2.6,0,5-0.9,7-2.6
		c1.9-1.7,3.2-4,3.6-6.5c2.1-12.5,8.6-23.8,18.3-32s22-12.7,34.7-12.7c12.7,0,25,4.5,34.7,12.7c9.7,8.2,16.2,19.5,18.3,32
		c0.4,2.5,1.7,4.8,3.6,6.5c1.9,1.7,4.4,2.6,6.9,2.6h0.8c2.4,0,4.8-0.5,7-1.4c2.2-0.9,4.2-2.3,5.9-3.9c1.7-1.7,3-3.7,3.9-5.9
		c0.9-2.2,1.4-4.6,1.4-7V167C468.1,140.8,463.4,114.7,454.2,90.1z"/>
	<path class="st0" d="M115.1,183.1c-6.1,0-12.2,1.2-17.9,3.6c-5.7,2.4-10.8,5.8-15.2,10.1s-7.8,9.5-10.1,15.2
		c-2.4,5.7-3.6,11.8-3.6,17.9c0,6.1,1.2,12.2,3.6,17.9c2.4,5.7,5.8,10.8,10.1,15.2s9.5,7.8,15.2,10.1c5.7,2.4,11.8,3.6,17.9,3.6
		c12.4,0,24.3-4.9,33.1-13.7c8.8-8.8,13.7-20.7,13.7-33.1c0-12.4-4.9-24.3-13.7-33.1C139.4,188.1,127.5,183.1,115.1,183.1z
		 M115.1,268.7c-5.1,0-10.1-1-14.8-2.9c-4.7-1.9-9-4.8-12.6-8.4c-3.6-3.6-6.5-7.9-8.4-12.6c-1.9-4.7-2.9-9.7-2.9-14.8
		c0-10.3,4.1-20.1,11.4-27.4c7.3-7.3,17.1-11.3,27.4-11.3c5.1,0,10.1,1,14.8,2.9c4.7,1.9,9,4.8,12.6,8.4c3.6,3.6,6.5,7.9,8.4,12.6
		c1.9,4.7,3,9.7,3,14.8c0,5.1-1,10.1-3,14.8c-1.9,4.7-4.8,9-8.4,12.6c-3.6,3.6-7.9,6.5-12.6,8.4
		C125.2,267.7,120.1,268.7,115.1,268.7z"/>
	<path class="st0" d="M201.2,121.4L230.4,63c0.3-0.7,0.5-1.4,0.4-2.1c0-0.7-0.3-1.5-0.6-2.1c-0.4-0.6-0.9-1.1-1.6-1.5
		c-0.6-0.4-1.4-0.5-2.1-0.6h-2.7l-65.5,65.5c-3.2,0,38.9,1.5,38.9,1.5c0.8,0,1.6-0.2,2.4-0.6C200.2,122.8,200.8,122.2,201.2,121.4z"
		/>
	<path class="st0" d="M308.1,123.9h-93.4c-0.7,0-1.5-0.2-2.1-0.6c-0.6-0.4-1.2-0.9-1.6-1.5c-0.4-0.6-0.6-1.3-0.6-2.1
		c0-0.7,0.1-1.5,0.4-2.1l29.2-58.5c0.4-0.7,0.9-1.3,1.6-1.8c0.7-0.4,1.5-0.6,2.3-0.6h64.2c1.1,0,2.2,0.5,3.1,1.3
		c0.8,0.8,1.3,1.9,1.3,3.1v58.5c0,1.1-0.5,2.2-1.3,3.1C310.4,123.4,309.3,123.9,308.1,123.9z"/>
	<path class="st0" d="M401.5,123.9h-77.6c-0.6,0-1.1-0.1-1.7-0.3c-0.5-0.2-1-0.5-1.4-0.9c-0.4-0.4-0.7-0.9-0.9-1.4
		c-0.2-0.5-0.3-1.1-0.3-1.7V61.1c0-0.6,0.1-1.1,0.3-1.7c0.2-0.5,0.5-1,0.9-1.4c0.4-0.4,0.9-0.7,1.4-0.9c0.5-0.2,1.1-0.3,1.7-0.3
		h69.1c1,0,2,0.4,2.8,1.1c0.8,0.7,1.3,1.6,1.5,2.7l8.5,58.5c0.1,0.6,0,1.2-0.1,1.8c-0.2,0.6-0.5,1.1-0.9,1.6
		c-0.4,0.5-0.9,0.8-1.5,1.1C402.8,123.7,402.2,123.9,401.5,123.9z"/>
	<path class="st0" d="M417.1,123.9h46.7c-2.3-11.5-5.5-22.8-9.6-33.8c-5.4-14.5-16-26.4-29.7-33.4h-15.9c-0.6,0-1.2,0.1-1.8,0.4
		c-0.6,0.3-1.1,0.6-1.5,1.1c-0.4,0.5-0.7,1-0.9,1.6c-0.2,0.6-0.2,1.2-0.1,1.9l8.4,58.5c0.2,1,0.7,2,1.5,2.6
		C415,123.5,416,123.9,417.1,123.9z"/>
	<path class="st1" d="M41.2,183.9l-9.2,2v-27.3h14c1.1,0,2.3,0.2,3.3,0.7c1,0.4,2,1.1,2.8,1.9c0.8,0.8,1.4,1.8,1.9,2.8
		c0.4,1,0.7,2.2,0.7,3.3c0,3.9-1.3,7.7-3.8,10.7C48.4,181,45,183.1,41.2,183.9z"/>
	<path class="st1" d="M461.1,157.1h7v13.3h-4.7c-2.1,0-4.1-0.8-5.5-2.3c-1.5-1.5-2.3-3.5-2.3-5.5c0-0.7,0.1-1.4,0.4-2.1
		c0.3-0.7,0.7-1.3,1.2-1.8c0.5-0.5,1.1-0.9,1.8-1.2C459.6,157.2,460.3,157.1,461.1,157.1z"/>
	<path class="st0" d="M360.3,123.5h24.2c0.8,0,1.5,0.3,2,0.8c0.5,0.5,0.8,1.3,0.8,2c0,1.5-0.6,2.9-1.6,3.9s-2.4,1.6-3.9,1.6h-21.5
		c-0.8,0-1.5-0.3-2-0.8c-0.5-0.5-0.8-1.3-0.8-2v-2.7c0-0.8,0.3-1.5,0.8-2C358.9,123.8,359.6,123.5,360.3,123.5z"/>
	<path class="st0" d="M385.8,183.1c-12.4,0-24.3,4.9-33.1,13.7c-8.8,8.8-13.7,20.7-13.7,33.1c0,12.4,4.9,24.3,13.7,33.1
		c8.8,8.8,20.7,13.7,33.1,13.7c12.4,0,24.3-4.9,33.1-13.7c8.8-8.8,13.7-20.7,13.7-33.1c0-6.1-1.2-12.2-3.6-17.9
		c-2.4-5.7-5.8-10.8-10.1-15.2c-4.3-4.3-9.5-7.8-15.2-10.1C398,184.3,392,183.1,385.8,183.1z M385.8,268.7c-5.1,0-10.1-1-14.8-2.9
		c-4.7-1.9-9-4.8-12.6-8.4c-3.6-3.6-6.5-7.9-8.4-12.6c-1.9-4.7-2.9-9.7-2.9-14.8c0-10.3,4.1-20.1,11.3-27.4
		c7.3-7.3,17.1-11.3,27.4-11.3c10.3,0,20.1,4.1,27.4,11.3c7.3,7.3,11.3,17.1,11.3,27.4c0,5.1-1,10.1-2.9,14.8
		c-1.9,4.7-4.8,9-8.4,12.6c-3.6,3.6-7.9,6.5-12.6,8.4C395.9,267.7,390.9,268.7,385.8,268.7z"/>
	<path class="st0" d="M102.6,196.8c3.9-1.4,8-2.1,12.1-2.1c4.1,0,8.2,0.7,12.1,2.1l2.9-2.5c-4.8-2-9.9-3-15.1-3
		c-5.2,0-10.3,1-15.1,3L102.6,196.8z"/>
	<path class="st0" d="M153.3,233.3c-0.2,2.4-0.6,4.8-1.3,7.1c0.9-3.4,1.4-6.9,1.4-10.4c0-9-3.1-17.8-8.9-24.7l-1.5,3.6
		c4.6,6.1,7,13.5,7,21.1c0,0.4,0,0.9,0,1.4L153.3,233.3z"/>
	<path class="st0" d="M147.2,251l-3.9-0.3c-4.5,6.2-10.9,10.8-18.2,13l-0.9,3.8c5.1-1.3,9.8-3.6,14-6.8c4.2-3.2,7.6-7.2,10.2-11.7
		C148,249.7,147.6,250.4,147.2,251z"/>
	<path class="st0" d="M79.4,231.3c0-0.4,0-0.9,0-1.4c0-7.6,2.4-15,7-21.1l-1.5-3.6c-5.8,6.9-8.9,15.7-8.9,24.7c0,1.1,0,2.2,0.1,3.3
		L79.4,231.3z"/>
	<path class="st0" d="M105.2,267.5l-0.9-3.8c-7.3-2.2-13.7-6.8-18.2-13l-3.9,0.3c-0.4-0.6-0.8-1.3-1.2-2c2.8,4.9,6.6,9.1,11.1,12.3
		c4.5,3.3,9.7,5.5,15.2,6.6C106.7,267.9,105.9,267.7,105.2,267.5z"/>
	<path class="st0" d="M153.3,233.3l-16.4-9.9l7.7-18.2c-4-4.8-9-8.6-14.8-11l-15,13l-15.1-13c-5.7,2.4-10.8,6.2-14.8,11l7.7,18.2
		l-16.4,9.9c0.5,6.3,2.6,12.4,6.1,17.8l18.8-1.6l4.2,18.1c3.1,0.8,6.3,1.2,9.5,1.2c3.2,0,6.4-0.4,9.5-1.2l4.2-18.1l18.8,1.6
		C150.7,245.7,152.8,239.6,153.3,233.3z"/>
	<path class="st1" d="M332.5,220.9c2.1-12.5,8.6-23.8,18.3-32s22-12.7,34.7-12.7c12.7,0,25,4.5,34.7,12.7c9.7,8.2,16.2,19.5,18.3,32
		c0.4,2.5,1.7,4.8,3.6,6.5c1.9,1.7,4.4,2.6,6.9,2.6h0.8c2.4,0,4.8-0.5,7-1.4c2.2-0.9,4.2-2.3,5.9-3.9c1.7-1.7,3-3.7,3.9-5.9
		c0.9-2.2,1.4-4.6,1.4-7v-27.4l-36-10.5c-30.3-8.8-62.6-8-92.5,2.2c-16,5.5-32.8,8.3-49.7,8.3h-46.5c-28.4,0-56.7-3.6-84.3-10.7
		c-28.7-7.4-59-6.3-87.1,3.1c-14.3,4.8-27.8,11.8-39.9,20.6v17.1c0,2,0.4,4,1.2,5.9c0.8,1.9,1.9,3.6,3.3,5c1.4,1.4,3.1,2.6,5,3.3
		c1.9,0.8,3.9,1.2,5.9,1.2h4.1c2.5,0,5-0.9,6.9-2.6c1.9-1.7,3.2-3.9,3.6-6.4c2.1-12.5,8.6-23.9,18.3-32c9.7-8.2,22-12.7,34.7-12.7
		c12.7,0,25,4.5,34.7,12.7c9.7,8.2,16.2,19.5,18.3,32c0.4,2.5,1.7,4.8,3.6,6.5c1.9,1.7,4.4,2.6,6.9,2.6h143.3c2.6,0,5-0.9,7-2.6
		C330.8,225.7,332.1,223.4,332.5,220.9z"/>
	<path class="st0" d="M373.3,196.8c3.9-1.4,8-2.1,12.1-2.1c4.1,0,8.2,0.7,12.1,2.1l2.9-2.5c-4.8-2-9.9-3-15-3c-5.2,0-10.3,1-15.1,3
		L373.3,196.8z"/>
	<path class="st0" d="M424.1,233.3c-0.2,2.4-0.6,4.8-1.3,7.1c0.9-3.4,1.4-6.9,1.4-10.4c0-9-3.1-17.8-8.9-24.7l-1.5,3.6
		c4.6,6.1,7,13.5,7,21.1c0,0.4,0,0.9,0,1.4L424.1,233.3z"/>
	<path class="st0" d="M418,251l-3.9-0.3c-4.5,6.2-10.9,10.8-18.2,13l-0.9,3.8c5.1-1.3,9.8-3.6,14-6.8c4.2-3.2,7.6-7.2,10.2-11.7
		C418.8,249.7,418.4,250.4,418,251z"/>
	<path class="st0" d="M350.2,231.3c0-0.5,0-0.9,0-1.4c0-7.6,2.4-15,7-21.1l-1.5-3.6c-5.8,6.9-8.9,15.7-8.9,24.7
		c0,1.1,0.1,2.2,0.1,3.3L350.2,231.3z"/>
	<path class="st0" d="M376,267.5l-0.9-3.8c-7.3-2.2-13.7-6.8-18.2-13l-3.9,0.3c-0.4-0.6-0.8-1.3-1.2-2c2.8,4.9,6.5,9.1,11.1,12.3
		c4.5,3.3,9.7,5.5,15.2,6.6C377.4,267.9,376.7,267.7,376,267.5z"/>
	<path class="st0" d="M424.1,233.3l-16.4-9.9l7.7-18.2c-4-4.8-9-8.6-14.8-11l-15,13l-15.1-13c-5.7,2.4-10.8,6.2-14.8,11l7.7,18.2
		l-16.4,9.9c0.5,6.3,2.6,12.4,6.1,17.8l18.8-1.6l4.2,18.1c3.1,0.8,6.3,1.2,9.5,1.2c3.2,0,6.4-0.4,9.5-1.2l4.2-18.1L418,251
		C421.4,245.7,423.5,239.6,424.1,233.3z"/>
	<path class="st2" d="M251.3,150.9l-18.1,18.7c-0.3,0.4-0.8,0.6-1.3,0.8c-0.5,0.1-1,0.2-1.5,0.1l-27.1-5.6c-0.5-0.1-1.1-0.1-1.6,0.1
		c-0.5,0.2-0.9,0.5-1.3,0.9c-0.3,0.4-0.6,0.9-0.7,1.4c-0.1,0.5-0.1,1.1,0.1,1.6l12.3,33c0.2,0.6,0.6,1.1,1.1,1.4
		c0.5,0.3,1.1,0.5,1.7,0.5h76.9c0.6,0,1.2-0.2,1.7-0.5c0.5-0.3,0.9-0.8,1.1-1.4l12.3-33c0.2-0.5,0.2-1,0.1-1.6
		c-0.1-0.5-0.3-1-0.7-1.4c-0.3-0.4-0.8-0.7-1.3-0.9c-0.5-0.2-1-0.2-1.6-0.1l-27.1,5.6c-0.5,0.1-1,0.1-1.5-0.1
		c-0.5-0.1-0.9-0.4-1.3-0.8l-18.1-18.7c-0.3-0.3-0.6-0.5-1-0.7c-0.4-0.2-0.8-0.2-1.2-0.2c-0.4,0-0.8,0.1-1.2,0.2
		C251.9,150.4,251.5,150.6,251.3,150.9z"/>
</g>
<path class="st3" d="M172.1,165.8c-6-5.6-6.4-19.5-6.1-27.1c0.1-3.5,1-7.8,4.2-9.4c0.5-0.3,1.1-0.5,1.7-0.5c2.3,0,3.2,2.8,3.5,5.1
	c1.3,7.8,2.3,15.8,2.8,23.8c0.7-0.1,3.6,2.6,4.3,2.7C201,163,206,159,203,162.1c1.3,0.2,4.6-0.6,5.5,0.4c0.5,0.5,0.6,0.8,0.6,1.5
	c0,0.7-0.3,1.4-0.7,2.1c-1.8,2-6.7,1.8-8.9,1.9l-16.3,0.5c-2.6,0.2-5.1,0-7.6-0.6C174.2,167.4,173,166.7,172.1,165.8z"/>
<path class="st4" d="M73.5,267l3,6.3c12.1-3.9,25.8-13.6,37.2-19.2c2-0.8,3.8-2.1,5.2-3.7c1.6-2.7,2.3-6,1.9-9.1l-2.4-36.5
	c0.1-0.4,0-0.9-0.3-1.3c-0.2-0.2-0.4-0.3-0.7-0.5c-0.2-0.1-0.5-0.2-0.8-0.2c-3.8-0.6-7.5-11.7-11.3-11.8l-3.7,46.9
	c-0.2,2.6-1,5.1-2.3,7.3c-1.2,1.5-2.6,2.8-4.2,3.8c-6.2,4.2-15,12.4-21.4,16.4c-0.1,0.1-0.3,0.2-0.4,0.3c-0.1,0.1-0.2,0.3-0.3,0.4
	c0,0.2,0,0.3,0.1,0.5C73.3,266.7,73.4,266.8,73.5,267z"/>
<path class="st4" d="M136.7,161c5.5,53.7,4.6-6.9,0-8.5c-3.2,20-31.8,15.5-31.8,35.8c0,35.9,11.3,66.8,16.2,102.4
	c0.2,1.3,0.6,2.2,2.1,2c2.3-0.3,4.2,0,5.3-1.9c1.1-1.9,0.6-5.4,0.8-7.3c0.5-5.1,0.9-10.3,1.2-15.4c0.6-10.4,1.1-20.7,2.3-31
	c1.4-11.8,2.9-24.3,3.8-36.1C139,174.1,144.6,186.6,136.7,161z"/>
<path class="st5" d="M116,187.6c5,4.6,14.8,3.4,20.6,6.9c0.6-0.8,1.3-1.5,1.9-2.2c17.6-20.7,29.9-35.8,38.1-61.7
	c-4.5-1.2-8.5-4-11.1-7.9c-14.6,14.6-39.8,28-51.7,44.7c-2.4,3.4-4.7,6.9-6.9,10.4C109.5,181.5,112.5,184.8,116,187.6z"/>
<path class="st3" d="M166.2,118.9c0-2.5,0.8-4.9,2.1-7c2.6-4.6,6.2-8.5,10.7-11.4c5.2-3.1,13.6-3.9,18.1,1.1
	c5.3,5.8-0.9,13.6-5.1,18.7c-3.3,4.2-8,7-13.2,7.9C171.2,129.1,166.3,124.7,166.2,118.9z"/>
<path class="st4" d="M200.4,101.8c0.3,1.9,0.3,3.8,0,5.7c0,2.1-0.5,4.2-1.3,6.2c-0.6,1.1-1.3,2.1-2.1,3c-1.5,1.6-3.1,3.1-4.8,4.4
	l-0.9-0.6l4.4-5.2c0.5-0.5,0.9-1.1,1.2-1.7c0.3-0.8,0.3-1.7,0.1-2.5c-0.2-0.8-0.7-1.6-1.4-2.1c-1.4-1.1-3.1-1.6-4.8-1.5
	c-1.7,0.1-3.4,0.4-5,0.9c-2.3,0.6-4.7,1.1-7.1,1.5c-0.8,0.1-1.8,0.2-2.1-0.5c-0.1-0.3-0.2-0.6-0.3-1c-0.1-0.2-0.2-0.5-0.4-0.6
	c-0.2-0.2-0.4-0.3-0.6-0.4c-0.2-0.1-0.5-0.2-0.7-0.2c-0.3,0-0.5,0-0.7,0.1c-0.5,0.2-0.9,0.5-1.1,1c-0.3,0.4-0.4,1-0.3,1.5
	c0.1,0.5,0.3,1,0.6,1.4c0.3,0.4,0.7,0.8,1.2,1c-1.8,2.2-3.6,4.4-5.5,6.6c-2.4,2.9-5.1,0-5.3-3.1c0.1-2.1,0.6-4.1,1.6-5.9
	c2.7-6.2,6-12.8,12.2-15.5c5.7-2.5,13.3-3,18.5,0.7C198,96.4,199.7,98.9,200.4,101.8z"/>
<path class="st4" d="M143.3,108.9c7.9-4.8,18.4-0.4,22.6,2.5c-4.6,4.2-15.6,13.4-23.3,16.2c-9.5,3.5-26.8-11.1-23.7-8.9
	C122,121,133.3,115,143.3,108.9z"/>
<path d="M121.2,290.7c2.9-0.2,5.8-0.1,8.7,0.4c2.2,1.6,4.6,3,7.2,4.1c0.8,0.2,1.5,0.6,2.1,1.2c0.3,0.3,0.5,0.7,0.6,1.1
	c0,0.4-0.1,0.9-0.3,1.2c-0.3,0.2-0.6,0.4-0.9,0.5c-0.3,0.1-0.7,0.1-1,0.1c-5.4,0.1-10.7-0.4-16-1.4c-0.3,0-0.6-0.1-0.9-0.3
	c-0.2-0.2-0.3-0.4-0.3-0.7c-0.3-1-0.3-2.1-0.2-3.1S120.6,291.6,121.2,290.7z"/>
<path d="M73.2,265.9c1.6,2.3,2.8,4.9,3.7,7.5c-0.3,2.6-0.3,5.3,0,7.9c0.2,0.8,0.2,1.6,0,2.3c-0.1,0.4-0.3,0.7-0.6,0.9
	c-0.3,0.2-0.7,0.3-1.1,0.3c-0.7-0.1-1.1-0.8-1.4-1.3c-2.5-4.5-4.6-9.2-6.3-14.2c-0.1-0.3-0.1-0.6,0-0.9c0.1-0.2,0.2-0.4,0.4-0.6
	c0.7-0.7,1.5-1.2,2.4-1.5C71.3,266.1,72.3,265.9,73.2,265.9z"/>
<path class="st3" d="M209.8,165c-0.8-0.3-1.6-0.5-2.4-0.6c-0.7-0.1-1.9,0-1.9-0.8c0-0.8,0.5-0.7,1-1.2s-1-0.5-2,0s-1.9,0.4-1.9,0.4
	s-8.6-0.9-10.1-1.4s-9-1.5-16.7-4.3c-0.7-0.2-1.4-0.2-2.2-0.2c-0.8-7.7-1.9-15.4-3.5-23c-0.4-2.3-1.4-5-3.7-5.2
	c-0.6,0-1.1,0.1-1.7,0.3c-3.1,1.3-3.8,5.3-3.8,8.7c0,7.2,0.9,20.5,7,26.4c1,1,2.2,1.7,3.4,2.2c2.4,0.8,3.1,0.5,7.6,1.3
	c4.5,0.8,13,1.3,16.3,1.1c3.3-0.3,3.2-0.7,7.7-0.2c2,0.8,4.1,1.2,6.2,1.1c0.7,0,1.3-0.2,1.9-0.5c0.3-0.2,0.6-0.4,0.8-0.7
	c0.2-0.3,0.3-0.6,0.4-0.9c-0.1-0.6-0.4-1.2-0.8-1.7C211,165.4,210.5,165.1,209.8,165z"/>
</svg>
