<?xml version="1.0" encoding="utf-8"?>
<!-- Generator: Adobe Illustrator 26.1.0, SVG Export Plug-In . SVG Version: 6.00 Build 0)  -->
<svg version="1.1" id="Layer_1" xmlns="http://www.w3.org/2000/svg" xmlns:xlink="http://www.w3.org/1999/xlink" x="0px" y="0px"
	 viewBox="0 0 500 350" style="enable-background:new 0 0 500 350;" xml:space="preserve">
<style type="text/css">
	.st0{fill:#FFFFFF;stroke:#000F97;stroke-width:3;stroke-miterlimit:10;}
	.st1{fill:#FF6853;}
	.st2{fill:#FFA0A0;}
	.st3{fill:#000F97;}
	.st4{fill:#FFD316;}
	.st5{fill:#EBEFEB;}
</style>
<g>
	<path class="st0" d="M432,109.2H67.5V308H432V109.2z"/>
	<path class="st0" d="M431.9,256.3h-18.1V308h18.1V256.3z"/>
	<path class="st0" d="M303.5,123.6H82.7v124.8h220.9V123.6z"/>
	<path class="st0" d="M292.7,131.7H93.5v108.6h199.3V131.7z"/>
	<path class="st0" d="M308.1,248.4H78.1v15.9h229.9V248.4z"/>
	<path class="st0" d="M308.1,256.3v7.9H78.1v-7.9H67.5V308h247.8v-51.7H308.1z"/>
	<path class="st0" d="M315.3,308h98.5V123.5h-98.5V308z"/>
	<path class="st0" d="M325.6,299.9h79.6V131.7h-79.6V299.9z"/>
	<path class="st0" d="M442,42H57.5v67.2H442V42z"/>
	<path class="st0" d="M452.5,98.1H47v11.2h405.5V98.1z"/>
	<path class="st0" d="M340.8,215.8h-19.5c-1.1,0-2,0.9-2,2v0c0,1.1,0.9,2,2,2h19.5c1.1,0,2-0.9,2-2v0
		C342.8,216.7,341.9,215.8,340.8,215.8z"/>
	<path class="st1" d="M191.7,169.9l-11.5,11.9c-0.2,0.2-0.5,0.4-0.8,0.5c-0.3,0.1-0.6,0.1-0.9,0l-17.2-3.6c-0.3-0.1-0.7,0-1,0.1
		c-0.3,0.1-0.6,0.3-0.8,0.6c-0.2,0.3-0.4,0.6-0.4,0.9c-0.1,0.3,0,0.7,0.1,1l7.8,21c0.1,0.4,0.4,0.7,0.7,0.9c0.3,0.2,0.7,0.3,1.1,0.3
		h48.9c0.4,0,0.8-0.1,1.1-0.3c0.3-0.2,0.6-0.5,0.7-0.9l7.8-21c0.1-0.3,0.1-0.7,0.1-1c-0.1-0.3-0.2-0.6-0.4-0.9
		c-0.2-0.3-0.5-0.4-0.8-0.6c-0.3-0.1-0.7-0.1-1-0.1l-17.2,3.6c-0.3,0.1-0.6,0-0.9,0c-0.3-0.1-0.6-0.3-0.8-0.5l-11.5-11.9
		c-0.2-0.2-0.4-0.3-0.6-0.4c-0.2-0.1-0.5-0.1-0.7-0.1s-0.5,0.1-0.7,0.1C192.1,169.6,191.9,169.7,191.7,169.9z"/>
	<path class="st1" d="M248.4,57.6l-8.6,8.9c-0.2,0.2-0.5,0.4-0.8,0.5c-0.3,0.1-0.6,0.1-0.9,0l-12.6-2.6c-0.3-0.1-0.7,0-1,0.1
		c-0.3,0.1-0.6,0.3-0.8,0.6c-0.2,0.3-0.4,0.6-0.4,0.9s0,0.7,0.1,1l5.8,15.6c0.1,0.4,0.4,0.7,0.7,0.9c0.3,0.2,0.7,0.3,1.1,0.3h37.9
		c0.4,0,0.8-0.1,1.1-0.3c0.3-0.2,0.6-0.5,0.7-0.9l5.8-15.6c0.1-0.3,0.1-0.6,0.1-1c-0.1-0.3-0.2-0.6-0.4-0.9
		c-0.2-0.3-0.5-0.4-0.8-0.6c-0.3-0.1-0.6-0.1-1-0.1l-12.6,2.6c-0.3,0.1-0.6,0.1-0.9,0c-0.3-0.1-0.6-0.3-0.8-0.5l-8.6-8.9
		c-0.2-0.2-0.4-0.3-0.6-0.4c-0.2-0.1-0.5-0.2-0.8-0.2c-0.3,0-0.5,0-0.8,0.1C248.8,57.3,248.5,57.4,248.4,57.6z"/>
</g>
<path class="st2" d="M105.4,300.8l3.2-0.9c0.2,0,0.4-0.1,0.5-0.3c0-0.2,0-0.4,0-0.5c-0.1-1.1-0.3-2.3-0.5-3.5c0,0.2-3.7,0.5-4.1,1
	C104,297.6,105.2,299.9,105.4,300.8z"/>
<path class="st2" d="M118.3,299c1,0.3,2.1,0.5,3.1,0.7c0.3,0.1,0.7,0.1,1,0c0.1-0.1,0.2-0.2,0.3-0.4c0.1-0.2,0.1-0.3,0.2-0.5
	c0.2-0.9,0.4-1.8,0.6-2.7c0-0.1,0-0.2,0-0.3c0-0.1-0.2-0.2-0.4-0.3c-0.8-0.3-3.2-1.1-3.9-0.5C118.9,295.3,118.5,299,118.3,299z"/>
<path class="st2" d="M90.3,96.2c0.2-0.8,0.3-1.6,0.2-2.4c0-0.8-0.4-1.7-1.2-1.8c-0.8-0.1-1.4,0.6-1.8,1.2c-1.5,3.2-2.4,6.6-2.6,10.2
	c1.2,0.4,2.5,0.6,3.7,0.6c0-1.5,0.4-2.9,1-4.2c1-1.2,1.6-2.6,1.8-4.2h-0.6L90.3,96.2z"/>
<path class="st3" d="M114.6,147.7c-1.4-4.8-12.2-6.8-16.2-8.8c-4.4-2.1-8.3-5.1-11.5-8.8c-0.8-0.8-1.3-1.7-1.8-2.7
	c-1-2.8,4.3-23.9,3.9-24l-4.6-1.4c-2.1,6.2-4.4,12.3-6.6,18.5c-1.7,4.8-4.5,9.8-3.6,15c0.6,3.3,4.2,5.5,6.5,7.9
	c2.3,2.4,8.7,8.8,12,12.1l9.9,10c2.2,5,7.3-8.2,8.7-9.9C112.7,154,115.4,150.4,114.6,147.7z"/>
<path class="st4" d="M117.8,297.4c2.2,0.3,4.4,0.9,6.5,1.8c1.4,1.6,3,3.1,4.7,4.3c0.5,0.3,1,0.7,1.4,1.3c0.2,0.3,0.3,0.6,0.2,0.9
	c0,0.3-0.2,0.6-0.4,0.8c-0.2,0.1-0.5,0.2-0.8,0.2c-0.3,0-0.5,0-0.8-0.1c-4.1-0.9-8-2.2-11.9-3.8c-0.2-0.1-0.5-0.2-0.6-0.4
	c-0.1-0.2-0.1-0.4-0.1-0.6c0-0.8,0.1-1.6,0.4-2.4C116.8,298.7,117.3,298,117.8,297.4z"/>
<path class="st4" d="M110.1,297.6c-2.2,0.6-4.3,1.4-6.3,2.5c-1.2,1.8-2.6,3.4-4.2,4.8c-0.5,0.4-0.9,0.9-1.2,1.4
	c-0.1,0.3-0.2,0.6-0.1,0.9c0.1,0.3,0.2,0.6,0.5,0.8c0.3,0.1,0.5,0.1,0.8,0.1c0.3,0,0.5-0.1,0.8-0.2c3.9-1.4,7.7-3.1,11.4-5.2
	c0.2-0.1,0.4-0.3,0.6-0.5c0.1-0.2,0.1-0.4,0.1-0.6C112.1,300,111.3,298.6,110.1,297.6z"/>
<path class="st2" d="M112.6,139c1.9,0,3.7-0.7,5.1-2.1c5.2-4.6,5.7-12.5,5.8-19.5c0.1-0.7-0.1-1.4-0.4-2.1c-0.4-0.4-0.8-0.8-1.3-1.1
	c-0.5-0.3-1.1-0.4-1.6-0.5c-4.8-0.4-9.6-0.5-14.5-0.7c-0.4,0-0.8,0-1.2,0.2c-0.3,0.3-0.6,0.7-0.6,1.1c-0.2,2-0.3,4.1-0.2,6.1
	c-0.2,2.1-0.2,4.2,0,6.3c0.1,2,0.6,4,1.5,5.8c0.9,1.8,2.2,3.4,3.7,4.7C110,138.2,111.3,138.8,112.6,139z"/>
<path class="st3" d="M132.2,156.5c-1.6,1.8-4.4-0.6-8.7-7.9c-2-3.4,2.3-6.3,4.5-8.4l10.1-10.2c3.5-3.3,6.8-7,9.6-10.9
	c3.1-4.6,4.9-10,5.2-15.6c-0.1-0.7,0.1-1.5,0.6-2.1c0.4-0.4,0.9-0.6,1.4-0.7c0.5-0.1,1-0.1,1.6,0c0.8,0.2,1.5,0.6,2,1.2
	c0.5,0.6,0.8,1.4,0.9,2.1C160.6,117.7,141.5,145.6,132.2,156.5z"/>
<path class="st2" d="M153.8,100.6c-0.2-0.9-0.8-1.9-0.5-2.8c0.2-0.5,0.7-0.9,0.8-1.5c0.1-0.5,0-0.7,0-1.1c0-0.2,0.1-0.4,0.3-0.6
	c0.1-0.2,0.3-0.3,0.5-0.4c0.4-0.2,0.9-0.3,1.4-0.3c0.5,0,1,0.1,1.4,0.3c0.4,0.3,0.6,0.6,0.8,1c0.3,0.9,0.4,1.9,0.2,2.8
	c-0.2,0.9-0.4,1.9-0.8,2.8c-0.1,0.3-0.2,0.5-0.4,0.6c-0.2,0.1-0.4,0.2-0.6,0.2c-0.7,0.1-1.4,0.1-2.1,0
	C153.9,101.5,154,101.4,153.8,100.6z"/>
<path class="st1" d="M88.2,258.7c-1-2.5-1.7-5.1-2.1-7.7c-0.2-2-0.1-4.1,0.2-6.1c1.4-13.2,4.4-26.3,8.9-38.8c0.4-1.8,1.5-3.3,3-4.3
	c1.2-0.4,2.6-0.5,3.8-0.2l11,1.4c0.9,0,1.8,0.3,2.5,0.8c0.9,0.8,1.4,2,1.5,3.2c0.9,7.7-0.6,15.4-4.4,22.1c-3.3,7-7.1,13.7-11.4,20
	c-0.7,0.9-1.3,1.9-1.6,3.1c-0.1,1,0,2,0.3,3c2.7,13.4,8.1,24.8,10.3,38.2c0.1,0.4,0,0.8-0.1,1.2s-0.3,0.8-0.5,1.1s-0.6,0.6-0.9,0.8
	c-0.4,0.2-0.8,0.3-1.2,0.3c-1.7,0.1-4.5,0.4-5.4-0.2c-0.2-0.1-0.3-0.4-0.4-0.6l-3-8.4c-2.3-6.3-4.5-12.5-6.8-18.8
	C90.6,265.4,89.4,262,88.2,258.7z"/>
<path class="st1" d="M118.3,295.6c-0.3-0.1-0.6-0.2-0.9-0.4c-0.2-0.3-0.2-0.6-0.2-1c0.3-10.8,5.6-20.9,9.1-31.1
	c0.5-1.2,0.8-2.5,1-3.8c0.2-1.6,0.1-3.2-0.2-4.8c-2.2-15-11.2-28-16.3-42.2c-0.3-0.7-0.5-1.6-0.4-2.4c0.2-0.6,0.5-1.2,0.9-1.6
	c0.4-0.5,0.9-0.9,1.4-1.2c2.7-1.9,5.5-3.5,8.5-4.8c2.8-1.3,6.3-2.2,8.9-0.4c1.9,1.7,3,4,3.3,6.5c2.8,12.5,5.5,25.1,7.4,37.6
	c0.3,1.6,0.4,3.3,0.2,4.9c-0.5,3.5-1.2,7-2.1,10.4c-5.9,12.4-7.2,20.1-12.5,32.7c-0.5,1.2-0.9,2.9-2.3,3.1
	C122.6,297.3,119.8,296,118.3,295.6z"/>
<path class="st5" d="M133,200.5c0.1,0,0.2,0,0-0.2c-0.8-1.2-1.5-2.5-2.1-3.8c-0.5-8.1-1.6-16.1-3.2-24.1c-2.1-9.8-6.5-18.8-9.1-28.5
	c-0.8-2.8-2.1-2.8-5.7-2.7c-0.7,0-1.4,0-2.1,0.1c-2.3-0.1-1.5,0.3-3.4-0.3c-0.5-0.1-1-0.2-1.5-0.1c-0.5,0.1-1,0.2-1.4,0.5
	c-0.4,0.3-0.8,0.6-1,1c-0.3,0.4-0.4,0.9-0.5,1.4c0,1.9,0,3.8-0.1,5.6c-3.7,15.3-5.9,30.9-6.6,46.6c-0.2,0.8-0.4,1.6-0.6,2.4
	c-0.5,1.2-0.8,2.4-1,3.7c0,0.1,0,0.2,0,0.3c-0.1,0.3-0.1,0.7,0,1c0.1,0.3,0.2,0.7,0.4,0.9c0.2,0.3,0.5,0.5,0.7,0.7
	c0.3,0.2,0.6,0.3,1,0.3c11.5,3.6,23.9,3,35.1-1.5l0.4-0.2h0.3l0.5-0.4c0.4-0.3,0.6-0.7,0.7-1.2c0-0.3,0-0.6-0.1-0.9
	C133.4,200.9,133.2,200.7,133,200.5z"/>
<path class="st3" d="M121.5,140.1c3.4-4.2,6.5,0.4,7.7,4.4c4.9,16,6.4,33.2,7.9,50.3c0.2,2.7,0.5,5.5,0.7,8.2
	c0.9,9.8,1.7,19.6,2.6,29.4c0,0.6-9.7,3-10.5,3.3c-5.1,1.3-10.3,1.8-15.6,1.3c-6.5-0.4-12.9-1.6-19.4-1.5c-2.8,0.3-5.6,0.1-8.4-0.5
	c0.9-5.8,1.4-11.6,1.5-17.4c0.6-14.1,2-28.1,3.3-42.2c0.8-7.9,1.2-15.9,2.2-23.7c0.5-4.3,2.3-11.7,6-13.6c3.7-1.9,5.8,3.2,9,4.6
	c1.8,0.9,3.8,1.3,5.8,1.1s3.9-0.9,5.6-2C120.6,141.2,121.1,140.7,121.5,140.1z"/>
<path class="st4" d="M114.8,130.1c0,0-10.8-5.3-10.9-15.7c-0.1-10.4,1.4-9,5.5-9.2c4-0.2,3.2,2.3,7.8,3.1c4.6,0.8,12.7-0.5,11.2,5.6
	c-1.5,6.2-6.3,16.4-8.1,16.2C118.4,129.9,115.8,132.4,114.8,130.1z"/>
</svg>
