<?xml version="1.0" encoding="utf-8"?>
<!-- Generator: Adobe Illustrator 26.1.0, SVG Export Plug-In . SVG Version: 6.00 Build 0)  -->
<svg version="1.1" id="Layer_1" xmlns="http://www.w3.org/2000/svg" xmlns:xlink="http://www.w3.org/1999/xlink" x="0px" y="0px"
	 viewBox="0 0 500 350" style="enable-background:new 0 0 500 350;" xml:space="preserve">
<style type="text/css">
	.st0{fill:#FFFFFF;stroke:#000F97;stroke-width:3;stroke-miterlimit:10;}
	.st1{fill:#FF6853;}
	.st2{fill:#000F97;}
	.st3{fill:#FFD316;}
	.st4{fill:#FFA0A0;}
	.st5{fill:#F7F7F7;}
	.st6{fill:#2AD8E3;}
</style>
<g>
	<path class="st0" d="M373,54H78.6c-6.3,0-11.5,5.1-11.5,11.5v195.4c0,6.3,5.1,11.5,11.5,11.5H373c6.3,0,11.5-5.1,11.5-11.5V65.5
		C384.4,59.1,379.3,54,373,54z"/>
	<path class="st0" d="M373.4,59H78.1c-3.4,0-6.1,2.7-6.1,6.1v196c0,3.4,2.7,6.1,6.1,6.1h295.3c3.4,0,6.1-2.7,6.1-6.1v-196
		C379.5,61.8,376.8,59,373.4,59z"/>
	<path class="st0" d="M476.4,76.5h-61.8c-7.2,0-13.1,5.8-13.1,13v147.1c0,7.2,5.8,13.1,13.1,13.1h61.8c7.2,0,13.1-5.8,13.1-13.1
		V89.6C489.5,82.4,483.6,76.5,476.4,76.5z"/>
	<path class="st0" d="M50,270.3h351.5v8.8c0,1.4-0.6,2.8-1.6,3.8s-2.4,1.6-3.8,1.6H55.5c-1.4,0-2.8-0.6-3.8-1.6
		c-1-1-1.6-2.4-1.6-3.8V270.3z"/>
	<path class="st0" d="M475.8,78.9h-10.3c-0.8,0-1.6,0.2-2.3,0.6c-0.7,0.4-1.3,0.9-1.8,1.6l-0.7,1.1c-0.4,0.7-1,1.2-1.8,1.6
		c-0.7,0.4-1.5,0.6-2.3,0.6h-22.4c-0.8,0-1.6-0.2-2.3-0.6s-1.3-0.9-1.8-1.6l-0.7-1.1c-0.4-0.7-1-1.2-1.8-1.6
		c-0.7-0.4-1.5-0.6-2.3-0.6h-10.3c-3,0-5.8,1.2-7.9,3.3c-2.1,2.1-3.3,5-3.3,7.9v146.1c0,1.5,0.3,2.9,0.8,4.3
		c0.6,1.4,1.4,2.6,2.4,3.7c1,1,2.3,1.9,3.6,2.4s2.8,0.9,4.3,0.9h60.6c3,0,5.8-1.2,7.9-3.3c2.1-2.1,3.3-5,3.3-7.9V90.1
		c0-3-1.2-5.8-3.3-7.9C481.7,80.1,478.8,78.9,475.8,78.9z"/>
	<path class="st0" d="M379.5,78.9H72v141.8h307.5V78.9z"/>
	<path class="st1" d="M88.4,63.3L85,66.8c-0.1,0.1-0.3,0.2-0.4,0.3c-0.2,0.1-0.3,0.1-0.5,0l-4.8-1c-0.2,0-0.4,0-0.5,0
		c-0.2,0.1-0.3,0.2-0.4,0.3c-0.1,0.1-0.2,0.3-0.2,0.5c0,0.2,0,0.4,0,0.5l2.2,6c0.1,0.2,0.2,0.4,0.4,0.5s0.4,0.2,0.6,0.2h15.5
		c0.2,0,0.4-0.1,0.6-0.2c0.2-0.1,0.3-0.3,0.4-0.5l2.2-6c0.1-0.2,0.1-0.3,0-0.5c0-0.2-0.1-0.3-0.2-0.5c-0.1-0.1-0.3-0.2-0.4-0.3
		c-0.2-0.1-0.3-0.1-0.5,0l-4.8,1c-0.2,0-0.3,0-0.5,0c-0.2-0.1-0.3-0.1-0.4-0.3l-3.4-3.5c-0.1-0.1-0.2-0.2-0.3-0.2
		C89.3,63,89.2,63,89.1,63s-0.3,0-0.4,0.1C88.6,63.1,88.5,63.2,88.4,63.3z"/>
	<path class="st1" d="M304.4,134.1l-11.9,12.3c-0.4,0.4-0.9,0.8-1.5,0.9c-0.6,0.2-1.2,0.2-1.8,0.1l-17-3.5c-0.6-0.1-1.3-0.1-1.9,0.1
		c-0.6,0.2-1.1,0.6-1.5,1c-0.4,0.5-0.7,1-0.8,1.7c-0.1,0.6-0.1,1.3,0.2,1.8l7.9,21.2c0.2,0.7,0.7,1.3,1.3,1.7c0.6,0.4,1.3,0.6,2,0.6
		h55.1c0.7,0,1.4-0.2,2-0.7c0.6-0.4,1-1,1.3-1.7l7.9-21.2c0.2-0.6,0.3-1.2,0.2-1.8c-0.1-0.6-0.4-1.2-0.8-1.7c-0.4-0.5-0.9-0.8-1.5-1
		c-0.6-0.2-1.2-0.2-1.9-0.1l-17,3.5c-0.6,0.1-1.2,0.1-1.8-0.1c-0.6-0.2-1.1-0.5-1.5-0.9l-11.9-12.3c-0.3-0.3-0.7-0.6-1.2-0.8
		c-0.4-0.2-0.9-0.3-1.4-0.3c-0.5,0-0.9,0.1-1.4,0.3C305.2,133.5,304.8,133.7,304.4,134.1z"/>
	<path class="st1" d="M418.3,87.2l-2.9,3c-0.1,0.1-0.2,0.2-0.4,0.2c-0.1,0-0.3,0-0.4,0l-4.1-0.9c-0.2,0-0.3,0-0.5,0
		c-0.1,0-0.3,0.1-0.4,0.3c-0.1,0.1-0.2,0.3-0.2,0.4c0,0.2,0,0.3,0,0.5l1.9,5.1c0.1,0.2,0.2,0.3,0.3,0.4c0.1,0.1,0.3,0.2,0.5,0.2
		h13.4c0.2,0,0.3-0.1,0.5-0.2c0.1-0.1,0.3-0.2,0.3-0.4l1.9-5.1c0.1-0.1,0.1-0.3,0-0.5c0-0.2-0.1-0.3-0.2-0.4
		c-0.1-0.1-0.2-0.2-0.4-0.3c-0.1,0-0.3-0.1-0.5,0l-4.1,0.9c-0.1,0-0.3,0-0.4,0c-0.1,0-0.3-0.1-0.4-0.2l-2.9-3
		c-0.2-0.2-0.4-0.2-0.6-0.2C418.7,87,418.5,87,418.3,87.2z"/>
	<path class="st0" d="M252,66.4h-28.9v5H252V66.4z"/>
	<path class="st0" d="M290.5,66.4h-28.9v5h28.9V66.4z"/>
	<path class="st0" d="M329,66.4h-28.9v5H329V66.4z"/>
	<path class="st0" d="M367.5,66.4h-28.9v5h28.9V66.4z"/>
	<path class="st2" d="M479,85h-14v3h14V85z"/>
	<path class="st2" d="M479,90h-14v3h14V90z"/>
	<path class="st2" d="M479,95h-14v3h14V95z"/>
	<path class="st0" d="M487.1,104.6h-82.7v65.7h82.7V104.6z"/>
	<path class="st0" d="M248.2,112.2H104.4v15.5h143.8V112.2z"/>
	<path class="st0" d="M203.2,142h-98.8v15.5h98.8V142z"/>
	<path class="st0" d="M223.6,171.8H104.4v15.5h119.2V171.8z"/>
	<path class="st0" d="M475.9,119.7h-64.1v6.9h64.1V119.7z"/>
	<path class="st0" d="M455.8,133h-44v6.9h44V133z"/>
	<path class="st0" d="M464.9,146.3h-53.1v6.9h53.1V146.3z"/>
</g>
<path class="st3" d="M39.8,128c-2.5-0.9-1.1-4.8,4.6-12.1c2.7-3.4,7.3-0.1,10.4,1.2l14.6,6.4c4.9,2.3,9.9,4.2,15.1,5.5
	c6,1.4,12.3,1.1,18.2-0.9c0.8-0.4,1.6-0.5,2.4-0.3c0.5,0.3,1,0.6,1.3,1.1s0.5,1,0.6,1.6c0.1,0.9,0,1.8-0.4,2.5
	c-0.4,0.8-1.1,1.4-1.9,1.8C91.2,141.8,54.8,133.3,39.8,128z"/>
<path class="st4" d="M106.2,127.9c0.9-0.6,1.6-1.6,2.7-1.6c0.6,0,1.2,0.3,1.8,0.2c0.6-0.2,0.7-0.4,1.1-0.5c0.2-0.1,0.5-0.1,0.8,0
	c0.2,0.1,0.5,0.2,0.7,0.4c0.4,0.4,0.7,0.8,0.9,1.3c0.2,0.5,0.3,1,0.3,1.5c-0.1,0.5-0.4,0.9-0.8,1.2c-0.8,0.7-1.8,1.2-2.8,1.4
	c-1.1,0.2-2.1,0.3-3.2,0.3c-0.3,0-0.6,0-0.8-0.1c-0.2-0.1-0.4-0.3-0.5-0.6c-0.4-0.7-0.6-1.4-0.8-2.1
	C105.3,128.3,105.5,128.3,106.2,127.9z"/>
<path class="st4" d="M60,218.2c0.9,3.9,1.3,7.9,1.1,11.9c-0.3,2.9-1,5.7-1.9,8.5c-4,13.3-8.9,26.3-14.7,38.9
	c-0.3,0.8-0.7,1.5-1.4,1.9c-1.4,0.9-3.4-0.3-3.9-1.9c-0.3-1.6-0.2-3.4,0.4-4.9c3.3-11.5,6.7-23.2,9-34.9c0.6-2.5-0.1-5,0-7.5
	c-0.2-2.9-0.7-5.9-1.6-8.7c-2.6-9.5-5.6-19-8.9-28.4c-1-2.9-2-6.2-0.5-8.9c1.5-2.7,4.9-3.6,7.9-3.9c1.9-0.2,3.8-0.2,5.7-0.1
	c3.5,0.2,4.5,1.4,4.6,4.6c0,3.8,0.6,7.6,1,11.4C57.7,203.5,58.7,210.9,60,218.2z"/>
<path class="st4" d="M32.8,253c-0.4,9.3-0.7,18.5-1.6,27.6l-4.8,0.6c-0.6-19.3-1.3-38.7-3.7-57.9c-1.3-9.9-3-19.8-4-29.8
	c-0.4-3.9-0.4-8.3,2.5-10.9c1.3-1.1,2.9-1.7,4.6-1.8c3.1-0.4,9,0.9,9.8,4.6c0.1,2.3,0,4.5-0.4,6.8l-0.3,8.3
	c-0.4,11.2-0.9,22.3-1.4,33.5L32.8,253z"/>
<path class="st5" d="M30.7,295.5c-1.6,0-3.2-0.3-4.8-0.8c-0.4-0.1-0.7-0.3-1-0.6c-0.1-0.2-0.2-0.5-0.1-0.8v-1c0-0.1,0-0.2,0-0.3
	c0-0.1,0.3,0,0.4,0c2.5,0.6,5,0.8,7.6,0.5c0.6,0,1.1-0.2,1.6-0.5c0,0,0.2-0.2,0.3,0c0.1,0.2,0.1,0.1,0.2,0.2
	c0.2,0.5,0.3,1.1,0.2,1.6c-0.2,0.4-0.9,0.7-1.2,0.9C32.8,295.3,31.8,295.5,30.7,295.5z"/>
<path class="st6" d="M32.5,278.7c0.2-0.7,0.3-1.6-0.2-2.1c-0.4-0.2-0.8-0.4-1.2-0.3c-1.4,0-2.8,0.2-4.1,0.5c-0.2,0-0.4,0.1-0.6,0.3
	c-0.1,0.2-0.2,0.4-0.2,0.7c-0.1,1.6,0,3.3,0.3,4.9c0,0.2,0.1,0.5,0.2,0.7c0.2,0.2,0.4,0.3,0.6,0.4c0.2,0.1,0.4,0.2,0.7,0.2
	c1.1,0.2,2.5,0.5,3.2-0.5C31.8,281.9,32.3,280.3,32.5,278.7z"/>
<path class="st6" d="M33.4,287.5c-0.5-0.6-1.1-1-1.8-1.4c-0.8-0.5-1.7-0.9-2.6-0.9c-0.7,0-1.3,0.2-1.9,0.6c-0.6,0.3-1.1,0.8-1.4,1.4
	c-0.7,1.2-1,2.5-1.1,3.8c-0.1,0.5,0,1,0.2,1.4c0.2,0.3,0.5,0.5,0.7,0.7c0.3,0.2,0.6,0.3,1,0.3c2.6,0.6,5.4,0.4,7.9-0.8
	C36.1,291.9,34.3,288.5,33.4,287.5z"/>
<path class="st6" d="M25.8,281.4c-0.3,0.6-0.5,1.4-0.5,2.1l-0.5,8.1c0,0.1,0,0.2,0,0.3c0,0.1,0.3,0.1,0.4,0.1c2.3,0,4.6-0.2,7-0.3
	c0.6,0,1.4-0.2,1.6-0.7c0.1-0.4,0.1-0.8-0.1-1.2c-0.6-2-0.8-4.1-1.5-6.1c-0.2-0.9-0.7-1.7-1.4-2.3C29.8,280.4,26.7,280,25.8,281.4z"
	/>
<path class="st5" d="M50.4,292.1c-0.4,0.4-0.9,0.7-1.5,0.7c-0.4,0-0.8-0.1-1.1-0.2c-1.2-0.3-2.3-0.6-3.4-1.1c-3.3-1.4-6.3-3.2-9-5.5
	c-0.2-0.1-0.4-0.3-0.5-0.5c-0.2-0.3-0.2-0.7-0.2-1s0.1-0.7,0.2-1c0.1-0.2,0.2-0.3,0.3-0.4c0.1,0,0.2-0.1,0.3-0.1s0.2,0,0.3,0.1
	c0.8,0.5,1.6,1.2,2.3,1.9c3.3,2.5,7.1,4.3,11.1,5.3c0.3,0.1,1.6,0.2,1.8,0.5C51.1,291,50.7,291.8,50.4,292.1z"/>
<path class="st6" d="M43.4,280.3c0.9-1.2,1.7-2.5,2.5-3.8c0-0.1,0.2-0.3,0-0.4c0-0.1,0-0.1-0.1-0.2c0,0-0.1-0.1-0.1-0.1
	c-0.9-0.8-2-1.3-3.1-1.5c-0.4,0-0.8,0.1-1.1,0.3c-0.3,0.3-0.4,0.6-0.6,0.9c-0.5,1.1-0.7,2.3-0.9,3.5c0,0.2,0,0.4,0,0.6
	c0,0.2,0.1,0.4,0.3,0.5c0.1,0.1,0.3,0.2,0.4,0.2c0.5,0.3,1,0.6,1.6,0.7C43,281.2,43,280.8,43.4,280.3z"/>
<path class="st6" d="M39.2,276.1c-0.1-0.1-0.2-0.3-0.4-0.3c-0.2-0.1-0.3,0-0.5,0c-0.2,0.1-0.3,0.2-0.4,0.3c-0.2,0.3-0.3,0.6-0.4,1
	c-0.5,1.1-1,2.2-1.8,3.2c-0.4,0.5-0.6,1.1-0.7,1.7c-0.1,0.6-0.1,1.2,0,1.8c0.6,1.1,1.5,2,2.6,2.4l4.6,2.7c1.3,0.8,2.7,1.5,4.2,2.1
	c1,0.4,2,0.5,3.1,0.4c0.5,0,1-0.2,1.5-0.5c0.5-0.3,0.8-0.6,1.2-1.1c0.5-0.9,0.7-2,0.5-3.1c0-1-0.3-2-0.9-2.9
	c-0.4-0.4-0.9-0.8-1.5-1.1c-0.6-0.3-1.2-0.4-1.8-0.4c-1.2,0-2.4,0-3.7,0c-0.3,0-0.6,0-0.8-0.2c-0.2-0.2-0.4-0.4-0.6-0.6
	C42,279.9,40.5,278.1,39.2,276.1z"/>
<path class="st2" d="M35.1,180.2c0.9-1.4,2.2-2.5,3.6-3.4c1.4-0.9,3-1.4,4.7-1.6c3.3-0.3,6.6-0.1,9.9,0.6c1.7,0.3,4,0.8,4.8,2.5
	c0.3,1.6,0.4,3.3,0.3,5c0.7,4.9,1.7,9.8,3,14.6c0.7,2.8,1.3,5.6,1.7,8.4c0.6,4.6,1.8,14.2,1.7,18.8c0,8.7,0,7.8-4.3,20.8
	c-2.3,6.2-7.8,19.3-11.6,24.8c1.4,0.8,1.8,1.6,0.5,3.2c-0.2,0.3-0.5,0.5-0.8,0.7c-0.3,0.2-0.7,0.3-1,0.3c-0.6,0-1.1,0-1.7-0.2
	c-2.6-0.7-5.2-1.6-7.6-2.8c-0.3-0.2-0.6-0.3-0.7-0.6c-0.1-0.2-0.1-0.4,0-0.5c0.3-0.9,0.8-1.6,1.4-2.3c0.1-0.1,0.2-0.2,0.4-0.3
	c0.2,0,0.4,0,0.6,0h0.8c1.2-9.3,6.1-20,7.3-29.2c0.3-1.6,0.4-3.3,0.4-4.9c-0.3-3.4-3-12.7-4.3-15.8l-8.2-23c-1-2.4-1.7-4.9-2.1-7.5
	C33.4,185.1,33.8,182.5,35.1,180.2z"/>
<path class="st2" d="M18.3,208.5c-1.8-9.5-2.7-19.1-2.6-28.7c0-0.6,0.1-1.2,0.2-1.7c0.3-0.7,0.7-1.3,1.3-1.8
	c1.5-1.2,3.5-1.7,5.4-1.5c1.9,0.2,3.8,0.7,5.6,1.4l6.5,2.2c1.9,0.3,3.7,1,5.3,1.9c1.9,1.8,0.3,6.7,0.2,9.1c-0.3,8.4,0.9,16.9,0,25.3
	c-0.7,5.8-1.3,11.4-2.1,17.2c-0.3,2.3-0.4,6.8-0.6,9.2c-0.2,1.7-0.4,3.4-0.6,5.1c-0.6,4.6-2.5,20.5-3.1,25c0.5,0,0.7,0.3,0.7,1
	c0,0.7,0,1.9-0.8,2.2c-0.2,0.1-0.5,0.2-0.8,0.2l-6,0.4c-0.6,0-1.3,0-1.9,0c-0.2,0-0.3,0-0.5,0c-0.1-0.1-0.2-0.3-0.3-0.5
	c-0.2-0.8-0.2-1.7,0-2.5c0-0.2,0.1-0.3,0.2-0.4c0.1-0.1,0.1-0.1,0.2-0.1c-0.3-0.7-0.5-1.5-0.5-2.3C22.8,253.2,20.7,224.1,18.3,208.5
	z"/>
<path class="st4" d="M33.7,103.7c-1-1.3-1.8-2.8-2.3-4.4c-0.3-0.9-0.3-1.8-0.6-2.7c-0.3-0.9-0.5-1.8-0.6-2.8c0-1,0-2-0.1-3
	c-0.2-0.9-0.5-1.7-0.7-2.6c-0.3-1.3-0.2-2.6,0.2-3.8c0.2-0.6,0.5-1.2,0.9-1.8c0.3-0.5,0.9-0.9,1.3-1.5c0.2-0.5,0.5-1,0.6-1.6
	c0.3-0.6,0.6-1.1,0.9-1.7c0.7-1.1,1.4-2.2,2.3-3.1c1.2-1.4,2.8-2.5,4.6-3.2c1.8-0.7,3.7-0.9,5.5-0.7c7.5,1.3,7.8,11.1,7.8,17.7
	c0.2,5.2-1.5,10.3-4.8,14.4C43.6,108.6,37.3,108.2,33.7,103.7z"/>
<path class="st1" d="M48.4,67.4c1.8,0.7,4.2-0.6,5.9,0.5c0.5,0.4,0.9,1,1.2,1.6s0.3,1.3,0.2,2c-0.3,1.3-0.5,2.7-0.6,4
	c0.2,0.9,0.2,1.8,0,2.7c-0.3,0.6-0.8,1.1-1.3,1.4c-0.6,0.3-1.2,0.5-1.9,0.5c-1.3,0-2.6,0.1-3.9,0.2c-4.6,1.1-6.7,7.9-12.1,6.4
	c-0.4-0.2-0.8-0.4-1.2-0.7c-0.6-0.3-1.2-0.4-1.8-0.3s-1.2,0.4-1.6,0.9c-0.6,0.7-0.8,1.6-0.8,2.5c0,0.5,0,1,0.3,1.4
	c0.2,0.3,0.4,0.5,0.6,0.7c0.2,0.2,0.5,0.3,0.8,0.4c0.7,0.2,1.4,0,1.8,0.5c0.4,0.5-0.1,1.8-0.2,2.3c-0.3,1.8-0.7,3.5-1.1,5.3
	c-3.8-4.2-7.8-8.5-9.5-13.9c-1.7-5.4-0.5-12.1,4.3-15.2c1.6-0.9,3.4-1.6,5.3-2c3.8-1,7.5-1.9,11.3-2.7c0.8-0.2,1.6-0.2,2.3,0
	C46.8,66.3,47.5,67.1,48.4,67.4z"/>
<path class="st6" d="M39.8,109.8c1,0.4,2.2,0.2,3.3,0.5c1,0.4,1.8,1.1,2.5,1.9c0.7,0.8,1.2,1.8,1.4,2.8c1,2.9,1.8,5.8,2.3,8.8
	c0.6,3,1.2,5.9,1.8,8.9c0.6,3,1.3,6.4,1.6,9.7c0.3,3.3,0.4,6,0.6,9c0.4,6.2,4,12.2,5.3,18.3c0.6,2.3,1,4.6,1,6.9
	c0,0.6-0.2,1.2-0.5,1.8c-0.3,0.3-0.7,0.6-1.2,0.8c-4.1,1.8-8.4,3.2-12.7,4.1c-3.1,0.5-6.4,0.6-9.5,0.3c-2.9-0.2-10.4-0.4-13.3-0.7
	c-1.4-0.1-2.7-0.4-4-1c-2-1.4-3.4-3.5-3.9-5.9c-1.9-6.5,0.6-13.9,1.7-20.6c1-6.7,1.4-13.5,3.1-20.1c1.3-6.3,3.2-12.4,5.4-18.4
	c1.2-2.9,2.7-5.7,4.6-8.2C32.1,104.9,36.5,108.6,39.8,109.8z"/>
<path class="st3" d="M39.6,136.9c-0.9,15.1-0.8,30.2,0.1,45.3c0.2,4,0.7,7.9,1.5,11.7c-8.9-1.8-17.9-2.7-27-2.6
	c-0.5,0.1-1.1,0-1.6-0.2c-1.2-0.6-1.4-2.3-1.5-3.7c-0.9-20.4,1.4-40.7,6.7-60.4c1.1-4.1,2.4-8.2,3.9-12.2c0.7-2.2,1.7-4.3,3.2-6.1
	c3.9-4.5,12.2-4,13.9,2.3C41.1,119.2,40.1,128.3,39.6,136.9z"/>
<path class="st3" d="M42.8,114.1c0.6,3.4,1.3,6.7,2.3,10c1.3,3.8,3.2,7.3,4.1,11.2c1.8,7.6-0.1,15.8,1.3,23.5
	c0.7,3.6,2.1,6.9,2.9,10.6c1.4,6.3,0.8,13.2,3.1,19.2h5.4c-0.9-13.8-5.4-27-7.4-40.6c-1.6-11.1-1.6-22.6-5.6-32.9
	c-0.6-1.8-1.6-3.5-2.9-4.9c-0.9-0.8-3.2-2.6-4.1-1.3C41.4,109.7,42.6,113.2,42.8,114.1z"/>
<path class="st2" d="M32.4,89.7l4.1-2.8c0.9-0.6,2.2-0.4,2.8,0.5l8.3,12c0.6,0.9,0.4,2.2-0.5,2.8L43,105c-0.9,0.6-2.2,0.4-2.8-0.5
	l-8.3-12C31.3,91.6,31.5,90.3,32.4,89.7z"/>
<path class="st3" d="M23,108.2c0.7-0.6,1.5-1,2.3-1.1c0.9-0.1,1.8,0,2.6,0.3c1.7,1.4,3,3.3,3.5,5.4c3,8.1,5.9,16.2,8.9,24.3
	c1.4,3.2,2.1,6.6,1.9,10.1c-0.5,3.5-3.3,6.7-6.1,5.6c-1.5-0.8-2.7-2.1-3.4-3.7c-5.2-9-9.4-18.6-12.5-28.5
	C18.7,115.6,19.3,111.2,23,108.2z"/>
<path class="st3" d="M41.3,152.4c1.8-1.5,3-3.6,3.4-6c0.4-2.4,0.6-4.9,0.5-7.4c0-2.7,0-5.4,0-8.1c0.1-5.3-0.2-10.6-0.9-15.8
	c0-0.2-0.1-0.3-0.1-0.4c-0.1-0.1-0.2-0.2-0.3-0.2c-0.1-0.1-0.3-0.1-0.4-0.1l-4.9-0.2c1.1,0-1.2,17.4-1.4,19
	c-0.8,5.5-2.2,12.4-1.2,18C36.4,154,39.6,153.6,41.3,152.4z"/>
<path class="st4" d="M41.5,113.3c-0.4,0-0.7,0-1.1-0.1c-0.3-0.1-0.7-0.3-0.9-0.5c-0.2-0.3-0.4-0.6-0.5-1c-0.6-1.7-1-3.5-1.3-5.3
	c-0.1-0.3-0.1-0.6,0-0.9c0-0.1,0.1-0.3,0.3-0.4c0.1-0.1,0.3-0.1,0.4-0.1c0.3,0,0.6,0.3,0.8,0.1c0.1-0.1,0.1-0.2,0.2-0.3
	c0.3-0.8,0.5-1.7,0.7-2.5c0.1-0.4,0.2-0.9,0.5-1.2c0.2-0.4,0.6-0.7,0.9-1c0.5-0.2,1.1-0.3,1.7-0.1c0.7,0.1,1.4,0.4,2,0.8
	c0.6,0.5,1,1.1,1.2,1.8c0.2,0.7,0.3,1.5,0.1,2.2c-0.3,1.5-0.8,2.9-1.5,4.2c-0.3,1.3-0.6,2.6-1.2,3.8
	C43.5,113.5,42.2,113.3,41.5,113.3z"/>
</svg>
